%TF.GenerationSoftware,KiCad,Pcbnew,8.0.6*%
%TF.CreationDate,2024-12-17T19:04:38+01:00*%
%TF.ProjectId,MultiMacro,4d756c74-694d-4616-9372-6f2e6b696361,rev?*%
%TF.SameCoordinates,Original*%
%TF.FileFunction,Soldermask,Top*%
%TF.FilePolarity,Negative*%
%FSLAX46Y46*%
G04 Gerber Fmt 4.6, Leading zero omitted, Abs format (unit mm)*
G04 Created by KiCad (PCBNEW 8.0.6) date 2024-12-17 19:04:38*
%MOMM*%
%LPD*%
G01*
G04 APERTURE LIST*
G04 Aperture macros list*
%AMRoundRect*
0 Rectangle with rounded corners*
0 $1 Rounding radius*
0 $2 $3 $4 $5 $6 $7 $8 $9 X,Y pos of 4 corners*
0 Add a 4 corners polygon primitive as box body*
4,1,4,$2,$3,$4,$5,$6,$7,$8,$9,$2,$3,0*
0 Add four circle primitives for the rounded corners*
1,1,$1+$1,$2,$3*
1,1,$1+$1,$4,$5*
1,1,$1+$1,$6,$7*
1,1,$1+$1,$8,$9*
0 Add four rect primitives between the rounded corners*
20,1,$1+$1,$2,$3,$4,$5,0*
20,1,$1+$1,$4,$5,$6,$7,0*
20,1,$1+$1,$6,$7,$8,$9,0*
20,1,$1+$1,$8,$9,$2,$3,0*%
%AMFreePoly0*
4,1,19,0.500000,-0.750000,0.000000,-0.750000,0.000000,-0.744911,-0.071157,-0.744911,-0.207708,-0.704816,-0.327430,-0.627875,-0.420627,-0.520320,-0.479746,-0.390866,-0.500000,-0.250000,-0.500000,0.250000,-0.479746,0.390866,-0.420627,0.520320,-0.327430,0.627875,-0.207708,0.704816,-0.071157,0.744911,0.000000,0.744911,0.000000,0.750000,0.500000,0.750000,0.500000,-0.750000,0.500000,-0.750000,
$1*%
%AMFreePoly1*
4,1,19,0.000000,0.744911,0.071157,0.744911,0.207708,0.704816,0.327430,0.627875,0.420627,0.520320,0.479746,0.390866,0.500000,0.250000,0.500000,-0.250000,0.479746,-0.390866,0.420627,-0.520320,0.327430,-0.627875,0.207708,-0.704816,0.071157,-0.744911,0.000000,-0.744911,0.000000,-0.750000,-0.500000,-0.750000,-0.500000,0.750000,0.000000,0.750000,0.000000,0.744911,0.000000,0.744911,
$1*%
G04 Aperture macros list end*
%ADD10R,1.200000X0.900000*%
%ADD11R,0.900000X1.200000*%
%ADD12O,2.900000X1.700000*%
%ADD13C,1.100025*%
%ADD14R,2.700000X1.200000*%
%ADD15FreePoly0,180.000000*%
%ADD16FreePoly1,180.000000*%
%ADD17FreePoly0,0.000000*%
%ADD18FreePoly1,0.000000*%
%ADD19RoundRect,0.250000X0.625000X-0.350000X0.625000X0.350000X-0.625000X0.350000X-0.625000X-0.350000X0*%
%ADD20O,1.750000X1.200000*%
%ADD21RoundRect,0.400000X0.900000X0.400000X-0.900000X0.400000X-0.900000X-0.400000X0.900000X-0.400000X0*%
%ADD22RoundRect,0.400050X0.899950X0.400050X-0.899950X0.400050X-0.899950X-0.400050X0.899950X-0.400050X0*%
%ADD23RoundRect,0.400050X0.400050X0.400050X-0.400050X0.400050X-0.400050X-0.400050X0.400050X-0.400050X0*%
%ADD24RoundRect,0.400000X0.400000X0.900000X-0.400000X0.900000X-0.400000X-0.900000X0.400000X-0.900000X0*%
%ADD25RoundRect,0.393700X0.393700X0.906300X-0.393700X0.906300X-0.393700X-0.906300X0.393700X-0.906300X0*%
%ADD26C,1.600000*%
%ADD27C,1.574800*%
G04 APERTURE END LIST*
D10*
%TO.C,U14*%
X120079070Y-25411936D03*
X120079070Y-26912064D03*
X117079070Y-26912064D03*
X117079070Y-25411936D03*
%TD*%
%TO.C,U13*%
X100836570Y-25411936D03*
X100836570Y-26912064D03*
X103836570Y-26912064D03*
X103836570Y-25411936D03*
%TD*%
%TO.C,U12*%
X84594070Y-25411936D03*
X84594070Y-26912064D03*
X87594070Y-26912064D03*
X87594070Y-25411936D03*
%TD*%
%TO.C,U11*%
X68351570Y-25411936D03*
X68351570Y-26912064D03*
X71351570Y-26912064D03*
X71351570Y-25411936D03*
%TD*%
%TO.C,U10*%
X52109070Y-25411936D03*
X52109070Y-26912064D03*
X55109070Y-26912064D03*
X55109070Y-25411936D03*
%TD*%
D11*
%TO.C,U9*%
X43445936Y-34119949D03*
X44946064Y-34119949D03*
X44946064Y-31119949D03*
X43445936Y-31119949D03*
%TD*%
%TO.C,U8*%
X43445936Y-44025949D03*
X44946064Y-44025949D03*
X44946064Y-41025949D03*
X43445936Y-41025949D03*
%TD*%
%TO.C,U7*%
X43445936Y-53931949D03*
X44946064Y-53931949D03*
X44946064Y-50931949D03*
X43445936Y-50931949D03*
%TD*%
D10*
%TO.C,U6*%
X55171033Y-59659013D03*
X55171033Y-58158885D03*
X52171033Y-58158885D03*
X52171033Y-59659013D03*
%TD*%
%TO.C,U5*%
X71413533Y-59659013D03*
X71413533Y-58158885D03*
X68413533Y-58158885D03*
X68413533Y-59659013D03*
%TD*%
%TO.C,U4*%
X87656033Y-59659013D03*
X87656033Y-58158885D03*
X84656033Y-58158885D03*
X84656033Y-59659013D03*
%TD*%
%TO.C,U3*%
X103898533Y-59659013D03*
X103898533Y-58158885D03*
X100898533Y-58158885D03*
X100898533Y-59659013D03*
%TD*%
%TO.C,U2*%
X120141033Y-59659013D03*
X120141033Y-58158885D03*
X117141033Y-58158885D03*
X117141033Y-59659013D03*
%TD*%
D12*
%TO.C,SW10*%
X112360051Y-32372051D03*
X124860051Y-32372051D03*
X112360051Y-37372051D03*
X124860051Y-37372051D03*
%TD*%
%TO.C,SW4*%
X96104051Y-47724051D03*
X108604051Y-47724051D03*
X96104051Y-52724051D03*
X108604051Y-52724051D03*
%TD*%
%TO.C,SW16*%
X124860051Y-45024051D03*
X112360051Y-45024051D03*
X124860051Y-40024051D03*
X112360051Y-40024051D03*
%TD*%
D13*
%TO.C,SW11*%
X160274000Y-29718000D03*
X160274000Y-36518102D03*
D14*
X156867980Y-30618178D03*
X156867980Y-33118051D03*
X156867980Y-35617924D03*
%TD*%
D15*
%TO.C,JP1*%
X158892000Y-27305000D03*
D16*
X157592000Y-27305000D03*
%TD*%
D12*
%TO.C,SW3*%
X79848051Y-47724051D03*
X92348051Y-47724051D03*
X79848051Y-52724051D03*
X92348051Y-52724051D03*
%TD*%
%TO.C,SW7*%
X63592051Y-32372051D03*
X76092051Y-32372051D03*
X63592051Y-37372051D03*
X76092051Y-37372051D03*
%TD*%
%TO.C,SW6*%
X47390051Y-32372051D03*
X59890051Y-32372051D03*
X47390051Y-37372051D03*
X59890051Y-37372051D03*
%TD*%
%TO.C,SW2*%
X63592051Y-47724051D03*
X76092051Y-47724051D03*
X63592051Y-52724051D03*
X76092051Y-52724051D03*
%TD*%
%TO.C,SW14*%
X92348051Y-45024051D03*
X79848051Y-45024051D03*
X92348051Y-40024051D03*
X79848051Y-40024051D03*
%TD*%
%TO.C,SW12*%
X59890051Y-45024051D03*
X47390051Y-45024051D03*
X59890051Y-40024051D03*
X47390051Y-40024051D03*
%TD*%
%TO.C,SW13*%
X76092051Y-45024051D03*
X63592051Y-45024051D03*
X76092051Y-40024051D03*
X63592051Y-40024051D03*
%TD*%
%TO.C,SW1*%
X47390051Y-47724051D03*
X59890051Y-47724051D03*
X47390051Y-52724051D03*
X59890051Y-52724051D03*
%TD*%
D17*
%TO.C,JP3*%
X155926000Y-38735000D03*
D18*
X157226000Y-38735000D03*
%TD*%
D12*
%TO.C,SW5*%
X112360051Y-47724051D03*
X124860051Y-47724051D03*
X112360051Y-52724051D03*
X124860051Y-52724051D03*
%TD*%
%TO.C,SW9*%
X96104051Y-32372051D03*
X108604051Y-32372051D03*
X96104051Y-37372051D03*
X108604051Y-37372051D03*
%TD*%
D15*
%TO.C,JP2*%
X131856000Y-37084000D03*
D16*
X130556000Y-37084000D03*
%TD*%
D12*
%TO.C,SW8*%
X79848051Y-32372051D03*
X92348051Y-32372051D03*
X79848051Y-37372051D03*
X92348051Y-37372051D03*
%TD*%
%TO.C,SW15*%
X108604051Y-45024051D03*
X96104051Y-45024051D03*
X108604051Y-40024051D03*
X96104051Y-40024051D03*
%TD*%
D19*
%TO.C,J1*%
X147701000Y-32639000D03*
D20*
X147701000Y-30639000D03*
%TD*%
D21*
%TO.C,RZ1*%
X136814000Y-26162000D03*
X136814000Y-28702000D03*
X136814000Y-31242000D03*
X136814000Y-33782000D03*
X136814000Y-36322000D03*
D22*
X136814000Y-38862000D03*
D23*
X137404000Y-41462050D03*
D22*
X136814000Y-43942000D03*
X136814000Y-46482000D03*
D24*
X139954000Y-47292000D03*
D25*
X142494000Y-47292000D03*
X145034000Y-47292000D03*
X147574000Y-47292000D03*
X150114000Y-47292000D03*
D22*
X153254000Y-46482000D03*
X153254000Y-43942000D03*
D23*
X152699000Y-41402000D03*
D22*
X153254000Y-38862000D03*
X153254000Y-36322000D03*
X153254000Y-33782000D03*
X153254000Y-31242000D03*
X153254000Y-26162000D03*
X153254000Y-28702000D03*
%TD*%
D26*
%TO.C,U1*%
X157733990Y-56642010D03*
X155193990Y-56642010D03*
X152653990Y-56642010D03*
X150113990Y-56642010D03*
X147573990Y-56642010D03*
X145033990Y-56642010D03*
X142493990Y-56642010D03*
X139953990Y-56642010D03*
X137413990Y-56642010D03*
X134873990Y-56642010D03*
X132333990Y-56642010D03*
X129793990Y-56642010D03*
X157734000Y-41402000D03*
X155194000Y-41402000D03*
X152654000Y-41402000D03*
X150114000Y-41402000D03*
X147574000Y-41402000D03*
X145034000Y-41402000D03*
X142494000Y-41402000D03*
X139954000Y-41402000D03*
X137414000Y-41402000D03*
X134874000Y-41402000D03*
X132334000Y-41402000D03*
X129794000Y-41402000D03*
D27*
X132888790Y-53562010D03*
X132888790Y-51022010D03*
X132888790Y-48482010D03*
D26*
X160273990Y-56642010D03*
X160274000Y-41402000D03*
%TD*%
M02*
