%TF.GenerationSoftware,KiCad,Pcbnew,8.0.6*%
%TF.CreationDate,2024-12-17T19:04:38+01:00*%
%TF.ProjectId,MultiMacro,4d756c74-694d-4616-9372-6f2e6b696361,rev?*%
%TF.SameCoordinates,Original*%
%TF.FileFunction,Legend,Top*%
%TF.FilePolarity,Positive*%
%FSLAX46Y46*%
G04 Gerber Fmt 4.6, Leading zero omitted, Abs format (unit mm)*
G04 Created by KiCad (PCBNEW 8.0.6) date 2024-12-17 19:04:38*
%MOMM*%
%LPD*%
G01*
G04 APERTURE LIST*
G04 Aperture macros list*
%AMRoundRect*
0 Rectangle with rounded corners*
0 $1 Rounding radius*
0 $2 $3 $4 $5 $6 $7 $8 $9 X,Y pos of 4 corners*
0 Add a 4 corners polygon primitive as box body*
4,1,4,$2,$3,$4,$5,$6,$7,$8,$9,$2,$3,0*
0 Add four circle primitives for the rounded corners*
1,1,$1+$1,$2,$3*
1,1,$1+$1,$4,$5*
1,1,$1+$1,$6,$7*
1,1,$1+$1,$8,$9*
0 Add four rect primitives between the rounded corners*
20,1,$1+$1,$2,$3,$4,$5,0*
20,1,$1+$1,$4,$5,$6,$7,0*
20,1,$1+$1,$6,$7,$8,$9,0*
20,1,$1+$1,$8,$9,$2,$3,0*%
%AMFreePoly0*
4,1,19,0.500000,-0.750000,0.000000,-0.750000,0.000000,-0.744911,-0.071157,-0.744911,-0.207708,-0.704816,-0.327430,-0.627875,-0.420627,-0.520320,-0.479746,-0.390866,-0.500000,-0.250000,-0.500000,0.250000,-0.479746,0.390866,-0.420627,0.520320,-0.327430,0.627875,-0.207708,0.704816,-0.071157,0.744911,0.000000,0.744911,0.000000,0.750000,0.500000,0.750000,0.500000,-0.750000,0.500000,-0.750000,
$1*%
%AMFreePoly1*
4,1,19,0.000000,0.744911,0.071157,0.744911,0.207708,0.704816,0.327430,0.627875,0.420627,0.520320,0.479746,0.390866,0.500000,0.250000,0.500000,-0.250000,0.479746,-0.390866,0.420627,-0.520320,0.327430,-0.627875,0.207708,-0.704816,0.071157,-0.744911,0.000000,-0.744911,0.000000,-0.750000,-0.500000,-0.750000,-0.500000,0.750000,0.000000,0.750000,0.000000,0.744911,0.000000,0.744911,
$1*%
G04 Aperture macros list end*
%ADD10C,0.100000*%
%ADD11C,0.300000*%
%ADD12C,0.125000*%
%ADD13C,0.200000*%
%ADD14C,0.150000*%
%ADD15C,0.254000*%
%ADD16C,0.059995*%
%ADD17C,0.120000*%
%ADD18R,1.200000X0.900000*%
%ADD19R,0.900000X1.200000*%
%ADD20O,2.900000X1.700000*%
%ADD21C,1.100025*%
%ADD22R,2.700000X1.200000*%
%ADD23FreePoly0,180.000000*%
%ADD24FreePoly1,180.000000*%
%ADD25FreePoly0,0.000000*%
%ADD26FreePoly1,0.000000*%
%ADD27RoundRect,0.250000X0.625000X-0.350000X0.625000X0.350000X-0.625000X0.350000X-0.625000X-0.350000X0*%
%ADD28O,1.750000X1.200000*%
%ADD29RoundRect,0.400000X0.900000X0.400000X-0.900000X0.400000X-0.900000X-0.400000X0.900000X-0.400000X0*%
%ADD30RoundRect,0.400050X0.899950X0.400050X-0.899950X0.400050X-0.899950X-0.400050X0.899950X-0.400050X0*%
%ADD31RoundRect,0.400050X0.400050X0.400050X-0.400050X0.400050X-0.400050X-0.400050X0.400050X-0.400050X0*%
%ADD32RoundRect,0.400000X0.400000X0.900000X-0.400000X0.900000X-0.400000X-0.900000X0.400000X-0.900000X0*%
%ADD33RoundRect,0.393700X0.393700X0.906300X-0.393700X0.906300X-0.393700X-0.906300X0.393700X-0.906300X0*%
%ADD34C,1.600000*%
%ADD35C,1.574800*%
G04 APERTURE END LIST*
D10*
X138479884Y-26669419D02*
X138479884Y-25669419D01*
X139051312Y-26669419D02*
X138622741Y-26097990D01*
X139051312Y-25669419D02*
X138479884Y-26240847D01*
X139527503Y-26669419D02*
X139717979Y-26669419D01*
X139717979Y-26669419D02*
X139813217Y-26621800D01*
X139813217Y-26621800D02*
X139860836Y-26574180D01*
X139860836Y-26574180D02*
X139956074Y-26431323D01*
X139956074Y-26431323D02*
X140003693Y-26240847D01*
X140003693Y-26240847D02*
X140003693Y-25859895D01*
X140003693Y-25859895D02*
X139956074Y-25764657D01*
X139956074Y-25764657D02*
X139908455Y-25717038D01*
X139908455Y-25717038D02*
X139813217Y-25669419D01*
X139813217Y-25669419D02*
X139622741Y-25669419D01*
X139622741Y-25669419D02*
X139527503Y-25717038D01*
X139527503Y-25717038D02*
X139479884Y-25764657D01*
X139479884Y-25764657D02*
X139432265Y-25859895D01*
X139432265Y-25859895D02*
X139432265Y-26097990D01*
X139432265Y-26097990D02*
X139479884Y-26193228D01*
X139479884Y-26193228D02*
X139527503Y-26240847D01*
X139527503Y-26240847D02*
X139622741Y-26288466D01*
X139622741Y-26288466D02*
X139813217Y-26288466D01*
X139813217Y-26288466D02*
X139908455Y-26240847D01*
X139908455Y-26240847D02*
X139956074Y-26193228D01*
X139956074Y-26193228D02*
X140003693Y-26097990D01*
X138479884Y-34416419D02*
X138479884Y-33416419D01*
X139051312Y-34416419D02*
X138622741Y-33844990D01*
X139051312Y-33416419D02*
X138479884Y-33987847D01*
X139908455Y-33416419D02*
X139717979Y-33416419D01*
X139717979Y-33416419D02*
X139622741Y-33464038D01*
X139622741Y-33464038D02*
X139575122Y-33511657D01*
X139575122Y-33511657D02*
X139479884Y-33654514D01*
X139479884Y-33654514D02*
X139432265Y-33844990D01*
X139432265Y-33844990D02*
X139432265Y-34225942D01*
X139432265Y-34225942D02*
X139479884Y-34321180D01*
X139479884Y-34321180D02*
X139527503Y-34368800D01*
X139527503Y-34368800D02*
X139622741Y-34416419D01*
X139622741Y-34416419D02*
X139813217Y-34416419D01*
X139813217Y-34416419D02*
X139908455Y-34368800D01*
X139908455Y-34368800D02*
X139956074Y-34321180D01*
X139956074Y-34321180D02*
X140003693Y-34225942D01*
X140003693Y-34225942D02*
X140003693Y-33987847D01*
X140003693Y-33987847D02*
X139956074Y-33892609D01*
X139956074Y-33892609D02*
X139908455Y-33844990D01*
X139908455Y-33844990D02*
X139813217Y-33797371D01*
X139813217Y-33797371D02*
X139622741Y-33797371D01*
X139622741Y-33797371D02*
X139527503Y-33844990D01*
X139527503Y-33844990D02*
X139479884Y-33892609D01*
X139479884Y-33892609D02*
X139432265Y-33987847D01*
X150005074Y-44830419D02*
X149528884Y-44830419D01*
X149528884Y-44830419D02*
X149528884Y-43830419D01*
X150338408Y-44306609D02*
X150671741Y-44306609D01*
X150814598Y-44830419D02*
X150338408Y-44830419D01*
X150338408Y-44830419D02*
X150338408Y-43830419D01*
X150338408Y-43830419D02*
X150814598Y-43830419D01*
X151243170Y-44830419D02*
X151243170Y-43830419D01*
X151243170Y-43830419D02*
X151481265Y-43830419D01*
X151481265Y-43830419D02*
X151624122Y-43878038D01*
X151624122Y-43878038D02*
X151719360Y-43973276D01*
X151719360Y-43973276D02*
X151766979Y-44068514D01*
X151766979Y-44068514D02*
X151814598Y-44258990D01*
X151814598Y-44258990D02*
X151814598Y-44401847D01*
X151814598Y-44401847D02*
X151766979Y-44592323D01*
X151766979Y-44592323D02*
X151719360Y-44687561D01*
X151719360Y-44687561D02*
X151624122Y-44782800D01*
X151624122Y-44782800D02*
X151481265Y-44830419D01*
X151481265Y-44830419D02*
X151243170Y-44830419D01*
X138606884Y-44830419D02*
X138606884Y-43830419D01*
X139178312Y-44830419D02*
X138749741Y-44258990D01*
X139178312Y-43830419D02*
X138606884Y-44401847D01*
X140035455Y-44163752D02*
X140035455Y-44830419D01*
X139797360Y-43782800D02*
X139559265Y-44497085D01*
X139559265Y-44497085D02*
X140178312Y-44497085D01*
X131748884Y-55625419D02*
X131748884Y-54625419D01*
X132320312Y-55625419D02*
X131891741Y-55053990D01*
X132320312Y-54625419D02*
X131748884Y-55196847D01*
X132939360Y-54625419D02*
X133034598Y-54625419D01*
X133034598Y-54625419D02*
X133129836Y-54673038D01*
X133129836Y-54673038D02*
X133177455Y-54720657D01*
X133177455Y-54720657D02*
X133225074Y-54815895D01*
X133225074Y-54815895D02*
X133272693Y-55006371D01*
X133272693Y-55006371D02*
X133272693Y-55244466D01*
X133272693Y-55244466D02*
X133225074Y-55434942D01*
X133225074Y-55434942D02*
X133177455Y-55530180D01*
X133177455Y-55530180D02*
X133129836Y-55577800D01*
X133129836Y-55577800D02*
X133034598Y-55625419D01*
X133034598Y-55625419D02*
X132939360Y-55625419D01*
X132939360Y-55625419D02*
X132844122Y-55577800D01*
X132844122Y-55577800D02*
X132796503Y-55530180D01*
X132796503Y-55530180D02*
X132748884Y-55434942D01*
X132748884Y-55434942D02*
X132701265Y-55244466D01*
X132701265Y-55244466D02*
X132701265Y-55006371D01*
X132701265Y-55006371D02*
X132748884Y-54815895D01*
X132748884Y-54815895D02*
X132796503Y-54720657D01*
X132796503Y-54720657D02*
X132844122Y-54673038D01*
X132844122Y-54673038D02*
X132939360Y-54625419D01*
X143001419Y-44019115D02*
X142001419Y-44019115D01*
X143001419Y-43447687D02*
X142429990Y-43876258D01*
X142001419Y-43447687D02*
X142572847Y-44019115D01*
X142001419Y-43114353D02*
X142001419Y-42447687D01*
X142001419Y-42447687D02*
X143001419Y-42876258D01*
X141908884Y-49910419D02*
X141908884Y-48910419D01*
X142480312Y-49910419D02*
X142051741Y-49338990D01*
X142480312Y-48910419D02*
X141908884Y-49481847D01*
X143432693Y-49910419D02*
X142861265Y-49910419D01*
X143146979Y-49910419D02*
X143146979Y-48910419D01*
X143146979Y-48910419D02*
X143051741Y-49053276D01*
X143051741Y-49053276D02*
X142956503Y-49148514D01*
X142956503Y-49148514D02*
X142861265Y-49196133D01*
X132714419Y-43892115D02*
X131714419Y-43892115D01*
X132714419Y-43320687D02*
X132142990Y-43749258D01*
X131714419Y-43320687D02*
X132285847Y-43892115D01*
X131714419Y-42987353D02*
X131714419Y-42368306D01*
X131714419Y-42368306D02*
X132095371Y-42701639D01*
X132095371Y-42701639D02*
X132095371Y-42558782D01*
X132095371Y-42558782D02*
X132142990Y-42463544D01*
X132142990Y-42463544D02*
X132190609Y-42415925D01*
X132190609Y-42415925D02*
X132285847Y-42368306D01*
X132285847Y-42368306D02*
X132523942Y-42368306D01*
X132523942Y-42368306D02*
X132619180Y-42415925D01*
X132619180Y-42415925D02*
X132666800Y-42463544D01*
X132666800Y-42463544D02*
X132714419Y-42558782D01*
X132714419Y-42558782D02*
X132714419Y-42844496D01*
X132714419Y-42844496D02*
X132666800Y-42939734D01*
X132666800Y-42939734D02*
X132619180Y-42987353D01*
D11*
X135198225Y-26724828D02*
X134341082Y-26724828D01*
X134769653Y-26724828D02*
X134769653Y-25224828D01*
X134769653Y-25224828D02*
X134626796Y-25439114D01*
X134626796Y-25439114D02*
X134483939Y-25581971D01*
X134483939Y-25581971D02*
X134341082Y-25653400D01*
D10*
X155901122Y-25825752D02*
X156234455Y-25825752D01*
X155834455Y-25968609D02*
X156067789Y-25468609D01*
X156067789Y-25468609D02*
X156301122Y-25968609D01*
X156634455Y-25968609D02*
X156567789Y-25944800D01*
X156567789Y-25944800D02*
X156534455Y-25897180D01*
X156534455Y-25897180D02*
X156534455Y-25468609D01*
X156834456Y-25635276D02*
X156967789Y-25968609D01*
X156967789Y-25968609D02*
X157101122Y-25730514D01*
X157101122Y-25730514D02*
X157234456Y-25968609D01*
X157234456Y-25968609D02*
X157367789Y-25635276D01*
X157634455Y-25920990D02*
X157667789Y-25944800D01*
X157667789Y-25944800D02*
X157634455Y-25968609D01*
X157634455Y-25968609D02*
X157601122Y-25944800D01*
X157601122Y-25944800D02*
X157634455Y-25920990D01*
X157634455Y-25920990D02*
X157634455Y-25968609D01*
X158101122Y-25468609D02*
X158234455Y-25468609D01*
X158234455Y-25468609D02*
X158301122Y-25492419D01*
X158301122Y-25492419D02*
X158367788Y-25540038D01*
X158367788Y-25540038D02*
X158401122Y-25635276D01*
X158401122Y-25635276D02*
X158401122Y-25801942D01*
X158401122Y-25801942D02*
X158367788Y-25897180D01*
X158367788Y-25897180D02*
X158301122Y-25944800D01*
X158301122Y-25944800D02*
X158234455Y-25968609D01*
X158234455Y-25968609D02*
X158101122Y-25968609D01*
X158101122Y-25968609D02*
X158034455Y-25944800D01*
X158034455Y-25944800D02*
X157967788Y-25897180D01*
X157967788Y-25897180D02*
X157934455Y-25801942D01*
X157934455Y-25801942D02*
X157934455Y-25635276D01*
X157934455Y-25635276D02*
X157967788Y-25540038D01*
X157967788Y-25540038D02*
X158034455Y-25492419D01*
X158034455Y-25492419D02*
X158101122Y-25468609D01*
X158701121Y-25635276D02*
X158701121Y-25968609D01*
X158701121Y-25682895D02*
X158734455Y-25659085D01*
X158734455Y-25659085D02*
X158801121Y-25635276D01*
X158801121Y-25635276D02*
X158901121Y-25635276D01*
X158901121Y-25635276D02*
X158967788Y-25659085D01*
X158967788Y-25659085D02*
X159001121Y-25706704D01*
X159001121Y-25706704D02*
X159001121Y-25968609D01*
D12*
X129336474Y-34685119D02*
X129669807Y-35685119D01*
X129669807Y-35685119D02*
X130003140Y-34685119D01*
X130765045Y-35685119D02*
X130765045Y-35161309D01*
X130765045Y-35161309D02*
X130717426Y-35066071D01*
X130717426Y-35066071D02*
X130622188Y-35018452D01*
X130622188Y-35018452D02*
X130431712Y-35018452D01*
X130431712Y-35018452D02*
X130336474Y-35066071D01*
X130765045Y-35637500D02*
X130669807Y-35685119D01*
X130669807Y-35685119D02*
X130431712Y-35685119D01*
X130431712Y-35685119D02*
X130336474Y-35637500D01*
X130336474Y-35637500D02*
X130288855Y-35542261D01*
X130288855Y-35542261D02*
X130288855Y-35447023D01*
X130288855Y-35447023D02*
X130336474Y-35351785D01*
X130336474Y-35351785D02*
X130431712Y-35304166D01*
X130431712Y-35304166D02*
X130669807Y-35304166D01*
X130669807Y-35304166D02*
X130765045Y-35256547D01*
X131241236Y-35685119D02*
X131241236Y-35018452D01*
X131241236Y-35208928D02*
X131288855Y-35113690D01*
X131288855Y-35113690D02*
X131336474Y-35066071D01*
X131336474Y-35066071D02*
X131431712Y-35018452D01*
X131431712Y-35018452D02*
X131526950Y-35018452D01*
X131860284Y-35685119D02*
X131860284Y-35018452D01*
X131860284Y-34685119D02*
X131812665Y-34732738D01*
X131812665Y-34732738D02*
X131860284Y-34780357D01*
X131860284Y-34780357D02*
X131907903Y-34732738D01*
X131907903Y-34732738D02*
X131860284Y-34685119D01*
X131860284Y-34685119D02*
X131860284Y-34780357D01*
X132765045Y-35685119D02*
X132765045Y-35161309D01*
X132765045Y-35161309D02*
X132717426Y-35066071D01*
X132717426Y-35066071D02*
X132622188Y-35018452D01*
X132622188Y-35018452D02*
X132431712Y-35018452D01*
X132431712Y-35018452D02*
X132336474Y-35066071D01*
X132765045Y-35637500D02*
X132669807Y-35685119D01*
X132669807Y-35685119D02*
X132431712Y-35685119D01*
X132431712Y-35685119D02*
X132336474Y-35637500D01*
X132336474Y-35637500D02*
X132288855Y-35542261D01*
X132288855Y-35542261D02*
X132288855Y-35447023D01*
X132288855Y-35447023D02*
X132336474Y-35351785D01*
X132336474Y-35351785D02*
X132431712Y-35304166D01*
X132431712Y-35304166D02*
X132669807Y-35304166D01*
X132669807Y-35304166D02*
X132765045Y-35256547D01*
X133241236Y-35018452D02*
X133241236Y-35685119D01*
X133241236Y-35113690D02*
X133288855Y-35066071D01*
X133288855Y-35066071D02*
X133384093Y-35018452D01*
X133384093Y-35018452D02*
X133526950Y-35018452D01*
X133526950Y-35018452D02*
X133622188Y-35066071D01*
X133622188Y-35066071D02*
X133669807Y-35161309D01*
X133669807Y-35161309D02*
X133669807Y-35685119D01*
X134003141Y-35018452D02*
X134384093Y-35018452D01*
X134145998Y-34685119D02*
X134145998Y-35542261D01*
X134145998Y-35542261D02*
X134193617Y-35637500D01*
X134193617Y-35637500D02*
X134288855Y-35685119D01*
X134288855Y-35685119D02*
X134384093Y-35685119D01*
D10*
X149671693Y-28257038D02*
X149576455Y-28209419D01*
X149576455Y-28209419D02*
X149433598Y-28209419D01*
X149433598Y-28209419D02*
X149290741Y-28257038D01*
X149290741Y-28257038D02*
X149195503Y-28352276D01*
X149195503Y-28352276D02*
X149147884Y-28447514D01*
X149147884Y-28447514D02*
X149100265Y-28637990D01*
X149100265Y-28637990D02*
X149100265Y-28780847D01*
X149100265Y-28780847D02*
X149147884Y-28971323D01*
X149147884Y-28971323D02*
X149195503Y-29066561D01*
X149195503Y-29066561D02*
X149290741Y-29161800D01*
X149290741Y-29161800D02*
X149433598Y-29209419D01*
X149433598Y-29209419D02*
X149528836Y-29209419D01*
X149528836Y-29209419D02*
X149671693Y-29161800D01*
X149671693Y-29161800D02*
X149719312Y-29114180D01*
X149719312Y-29114180D02*
X149719312Y-28780847D01*
X149719312Y-28780847D02*
X149528836Y-28780847D01*
X150147884Y-29209419D02*
X150147884Y-28209419D01*
X150147884Y-28209419D02*
X150719312Y-29209419D01*
X150719312Y-29209419D02*
X150719312Y-28209419D01*
X151195503Y-29209419D02*
X151195503Y-28209419D01*
X151195503Y-28209419D02*
X151433598Y-28209419D01*
X151433598Y-28209419D02*
X151576455Y-28257038D01*
X151576455Y-28257038D02*
X151671693Y-28352276D01*
X151671693Y-28352276D02*
X151719312Y-28447514D01*
X151719312Y-28447514D02*
X151766931Y-28637990D01*
X151766931Y-28637990D02*
X151766931Y-28780847D01*
X151766931Y-28780847D02*
X151719312Y-28971323D01*
X151719312Y-28971323D02*
X151671693Y-29066561D01*
X151671693Y-29066561D02*
X151576455Y-29161800D01*
X151576455Y-29161800D02*
X151433598Y-29209419D01*
X151433598Y-29209419D02*
X151195503Y-29209419D01*
X150812038Y-54925306D02*
X150764419Y-55020544D01*
X150764419Y-55020544D02*
X150764419Y-55163401D01*
X150764419Y-55163401D02*
X150812038Y-55306258D01*
X150812038Y-55306258D02*
X150907276Y-55401496D01*
X150907276Y-55401496D02*
X151002514Y-55449115D01*
X151002514Y-55449115D02*
X151192990Y-55496734D01*
X151192990Y-55496734D02*
X151335847Y-55496734D01*
X151335847Y-55496734D02*
X151526323Y-55449115D01*
X151526323Y-55449115D02*
X151621561Y-55401496D01*
X151621561Y-55401496D02*
X151716800Y-55306258D01*
X151716800Y-55306258D02*
X151764419Y-55163401D01*
X151764419Y-55163401D02*
X151764419Y-55068163D01*
X151764419Y-55068163D02*
X151716800Y-54925306D01*
X151716800Y-54925306D02*
X151669180Y-54877687D01*
X151669180Y-54877687D02*
X151335847Y-54877687D01*
X151335847Y-54877687D02*
X151335847Y-55068163D01*
X151764419Y-54449115D02*
X150764419Y-54449115D01*
X150764419Y-54449115D02*
X151764419Y-53877687D01*
X151764419Y-53877687D02*
X150764419Y-53877687D01*
X151764419Y-53401496D02*
X150764419Y-53401496D01*
X150764419Y-53401496D02*
X150764419Y-53163401D01*
X150764419Y-53163401D02*
X150812038Y-53020544D01*
X150812038Y-53020544D02*
X150907276Y-52925306D01*
X150907276Y-52925306D02*
X151002514Y-52877687D01*
X151002514Y-52877687D02*
X151192990Y-52830068D01*
X151192990Y-52830068D02*
X151335847Y-52830068D01*
X151335847Y-52830068D02*
X151526323Y-52877687D01*
X151526323Y-52877687D02*
X151621561Y-52925306D01*
X151621561Y-52925306D02*
X151716800Y-53020544D01*
X151716800Y-53020544D02*
X151764419Y-53163401D01*
X151764419Y-53163401D02*
X151764419Y-53401496D01*
X157514027Y-42560419D02*
X157847360Y-43560419D01*
X157847360Y-43560419D02*
X158180693Y-42560419D01*
X158847360Y-43036609D02*
X158990217Y-43084228D01*
X158990217Y-43084228D02*
X159037836Y-43131847D01*
X159037836Y-43131847D02*
X159085455Y-43227085D01*
X159085455Y-43227085D02*
X159085455Y-43369942D01*
X159085455Y-43369942D02*
X159037836Y-43465180D01*
X159037836Y-43465180D02*
X158990217Y-43512800D01*
X158990217Y-43512800D02*
X158894979Y-43560419D01*
X158894979Y-43560419D02*
X158514027Y-43560419D01*
X158514027Y-43560419D02*
X158514027Y-42560419D01*
X158514027Y-42560419D02*
X158847360Y-42560419D01*
X158847360Y-42560419D02*
X158942598Y-42608038D01*
X158942598Y-42608038D02*
X158990217Y-42655657D01*
X158990217Y-42655657D02*
X159037836Y-42750895D01*
X159037836Y-42750895D02*
X159037836Y-42846133D01*
X159037836Y-42846133D02*
X158990217Y-42941371D01*
X158990217Y-42941371D02*
X158942598Y-42988990D01*
X158942598Y-42988990D02*
X158847360Y-43036609D01*
X158847360Y-43036609D02*
X158514027Y-43036609D01*
X159466408Y-43274704D02*
X159942598Y-43274704D01*
X159371170Y-43560419D02*
X159704503Y-42560419D01*
X159704503Y-42560419D02*
X160037836Y-43560419D01*
X160228313Y-42560419D02*
X160799741Y-42560419D01*
X160514027Y-43560419D02*
X160514027Y-42560419D01*
X139368884Y-49910419D02*
X139368884Y-48910419D01*
X139940312Y-49910419D02*
X139511741Y-49338990D01*
X139940312Y-48910419D02*
X139368884Y-49481847D01*
X140321265Y-49005657D02*
X140368884Y-48958038D01*
X140368884Y-48958038D02*
X140464122Y-48910419D01*
X140464122Y-48910419D02*
X140702217Y-48910419D01*
X140702217Y-48910419D02*
X140797455Y-48958038D01*
X140797455Y-48958038D02*
X140845074Y-49005657D01*
X140845074Y-49005657D02*
X140892693Y-49100895D01*
X140892693Y-49100895D02*
X140892693Y-49196133D01*
X140892693Y-49196133D02*
X140845074Y-49338990D01*
X140845074Y-49338990D02*
X140273646Y-49910419D01*
X140273646Y-49910419D02*
X140892693Y-49910419D01*
X138681665Y-43636908D02*
X137974558Y-42929801D01*
X139085726Y-43232847D02*
X138378619Y-43131831D01*
X138378619Y-42525740D02*
X138378619Y-43333862D01*
X139018382Y-41885976D02*
X138681665Y-42222694D01*
X138681665Y-42222694D02*
X138984711Y-42593083D01*
X138984711Y-42593083D02*
X138984711Y-42525740D01*
X138984711Y-42525740D02*
X139018382Y-42424724D01*
X139018382Y-42424724D02*
X139186741Y-42256366D01*
X139186741Y-42256366D02*
X139287756Y-42222694D01*
X139287756Y-42222694D02*
X139355100Y-42222694D01*
X139355100Y-42222694D02*
X139456115Y-42256366D01*
X139456115Y-42256366D02*
X139624474Y-42424724D01*
X139624474Y-42424724D02*
X139658146Y-42525740D01*
X139658146Y-42525740D02*
X139658146Y-42593083D01*
X139658146Y-42593083D02*
X139624474Y-42694098D01*
X139624474Y-42694098D02*
X139456115Y-42862457D01*
X139456115Y-42862457D02*
X139355100Y-42896129D01*
X139355100Y-42896129D02*
X139287756Y-42896129D01*
X130174419Y-44019115D02*
X129174419Y-44019115D01*
X130174419Y-43447687D02*
X129602990Y-43876258D01*
X129174419Y-43447687D02*
X129745847Y-44019115D01*
X129269657Y-43066734D02*
X129222038Y-43019115D01*
X129222038Y-43019115D02*
X129174419Y-42923877D01*
X129174419Y-42923877D02*
X129174419Y-42685782D01*
X129174419Y-42685782D02*
X129222038Y-42590544D01*
X129222038Y-42590544D02*
X129269657Y-42542925D01*
X129269657Y-42542925D02*
X129364895Y-42495306D01*
X129364895Y-42495306D02*
X129460133Y-42495306D01*
X129460133Y-42495306D02*
X129602990Y-42542925D01*
X129602990Y-42542925D02*
X130174419Y-43114353D01*
X130174419Y-43114353D02*
X130174419Y-42495306D01*
X145414419Y-44019115D02*
X144414419Y-44019115D01*
X145414419Y-43447687D02*
X144842990Y-43876258D01*
X144414419Y-43447687D02*
X144985847Y-44019115D01*
X144842990Y-42876258D02*
X144795371Y-42971496D01*
X144795371Y-42971496D02*
X144747752Y-43019115D01*
X144747752Y-43019115D02*
X144652514Y-43066734D01*
X144652514Y-43066734D02*
X144604895Y-43066734D01*
X144604895Y-43066734D02*
X144509657Y-43019115D01*
X144509657Y-43019115D02*
X144462038Y-42971496D01*
X144462038Y-42971496D02*
X144414419Y-42876258D01*
X144414419Y-42876258D02*
X144414419Y-42685782D01*
X144414419Y-42685782D02*
X144462038Y-42590544D01*
X144462038Y-42590544D02*
X144509657Y-42542925D01*
X144509657Y-42542925D02*
X144604895Y-42495306D01*
X144604895Y-42495306D02*
X144652514Y-42495306D01*
X144652514Y-42495306D02*
X144747752Y-42542925D01*
X144747752Y-42542925D02*
X144795371Y-42590544D01*
X144795371Y-42590544D02*
X144842990Y-42685782D01*
X144842990Y-42685782D02*
X144842990Y-42876258D01*
X144842990Y-42876258D02*
X144890609Y-42971496D01*
X144890609Y-42971496D02*
X144938228Y-43019115D01*
X144938228Y-43019115D02*
X145033466Y-43066734D01*
X145033466Y-43066734D02*
X145223942Y-43066734D01*
X145223942Y-43066734D02*
X145319180Y-43019115D01*
X145319180Y-43019115D02*
X145366800Y-42971496D01*
X145366800Y-42971496D02*
X145414419Y-42876258D01*
X145414419Y-42876258D02*
X145414419Y-42685782D01*
X145414419Y-42685782D02*
X145366800Y-42590544D01*
X145366800Y-42590544D02*
X145319180Y-42542925D01*
X145319180Y-42542925D02*
X145223942Y-42495306D01*
X145223942Y-42495306D02*
X145033466Y-42495306D01*
X145033466Y-42495306D02*
X144938228Y-42542925D01*
X144938228Y-42542925D02*
X144890609Y-42590544D01*
X144890609Y-42590544D02*
X144842990Y-42685782D01*
X137082884Y-48513419D02*
X137082884Y-47513419D01*
X137654312Y-48513419D02*
X137225741Y-47941990D01*
X137654312Y-47513419D02*
X137082884Y-48084847D01*
X137987646Y-47513419D02*
X138606693Y-47513419D01*
X138606693Y-47513419D02*
X138273360Y-47894371D01*
X138273360Y-47894371D02*
X138416217Y-47894371D01*
X138416217Y-47894371D02*
X138511455Y-47941990D01*
X138511455Y-47941990D02*
X138559074Y-47989609D01*
X138559074Y-47989609D02*
X138606693Y-48084847D01*
X138606693Y-48084847D02*
X138606693Y-48322942D01*
X138606693Y-48322942D02*
X138559074Y-48418180D01*
X138559074Y-48418180D02*
X138511455Y-48465800D01*
X138511455Y-48465800D02*
X138416217Y-48513419D01*
X138416217Y-48513419D02*
X138130503Y-48513419D01*
X138130503Y-48513419D02*
X138035265Y-48465800D01*
X138035265Y-48465800D02*
X137987646Y-48418180D01*
X138479884Y-29336419D02*
X138479884Y-28336419D01*
X139051312Y-29336419D02*
X138622741Y-28764990D01*
X139051312Y-28336419D02*
X138479884Y-28907847D01*
X139622741Y-28764990D02*
X139527503Y-28717371D01*
X139527503Y-28717371D02*
X139479884Y-28669752D01*
X139479884Y-28669752D02*
X139432265Y-28574514D01*
X139432265Y-28574514D02*
X139432265Y-28526895D01*
X139432265Y-28526895D02*
X139479884Y-28431657D01*
X139479884Y-28431657D02*
X139527503Y-28384038D01*
X139527503Y-28384038D02*
X139622741Y-28336419D01*
X139622741Y-28336419D02*
X139813217Y-28336419D01*
X139813217Y-28336419D02*
X139908455Y-28384038D01*
X139908455Y-28384038D02*
X139956074Y-28431657D01*
X139956074Y-28431657D02*
X140003693Y-28526895D01*
X140003693Y-28526895D02*
X140003693Y-28574514D01*
X140003693Y-28574514D02*
X139956074Y-28669752D01*
X139956074Y-28669752D02*
X139908455Y-28717371D01*
X139908455Y-28717371D02*
X139813217Y-28764990D01*
X139813217Y-28764990D02*
X139622741Y-28764990D01*
X139622741Y-28764990D02*
X139527503Y-28812609D01*
X139527503Y-28812609D02*
X139479884Y-28860228D01*
X139479884Y-28860228D02*
X139432265Y-28955466D01*
X139432265Y-28955466D02*
X139432265Y-29145942D01*
X139432265Y-29145942D02*
X139479884Y-29241180D01*
X139479884Y-29241180D02*
X139527503Y-29288800D01*
X139527503Y-29288800D02*
X139622741Y-29336419D01*
X139622741Y-29336419D02*
X139813217Y-29336419D01*
X139813217Y-29336419D02*
X139908455Y-29288800D01*
X139908455Y-29288800D02*
X139956074Y-29241180D01*
X139956074Y-29241180D02*
X140003693Y-29145942D01*
X140003693Y-29145942D02*
X140003693Y-28955466D01*
X140003693Y-28955466D02*
X139956074Y-28860228D01*
X139956074Y-28860228D02*
X139908455Y-28812609D01*
X139908455Y-28812609D02*
X139813217Y-28764990D01*
X145541419Y-54845925D02*
X145541419Y-55322115D01*
X145541419Y-55322115D02*
X144541419Y-55322115D01*
X145017609Y-54512591D02*
X145017609Y-54179258D01*
X145541419Y-54036401D02*
X145541419Y-54512591D01*
X145541419Y-54512591D02*
X144541419Y-54512591D01*
X144541419Y-54512591D02*
X144541419Y-54036401D01*
X145541419Y-53607829D02*
X144541419Y-53607829D01*
X144541419Y-53607829D02*
X144541419Y-53369734D01*
X144541419Y-53369734D02*
X144589038Y-53226877D01*
X144589038Y-53226877D02*
X144684276Y-53131639D01*
X144684276Y-53131639D02*
X144779514Y-53084020D01*
X144779514Y-53084020D02*
X144969990Y-53036401D01*
X144969990Y-53036401D02*
X145112847Y-53036401D01*
X145112847Y-53036401D02*
X145303323Y-53084020D01*
X145303323Y-53084020D02*
X145398561Y-53131639D01*
X145398561Y-53131639D02*
X145493800Y-53226877D01*
X145493800Y-53226877D02*
X145541419Y-53369734D01*
X145541419Y-53369734D02*
X145541419Y-53607829D01*
X147954419Y-44146115D02*
X146954419Y-44146115D01*
X147954419Y-43574687D02*
X147382990Y-44003258D01*
X146954419Y-43574687D02*
X147525847Y-44146115D01*
X147954419Y-43098496D02*
X147954419Y-42908020D01*
X147954419Y-42908020D02*
X147906800Y-42812782D01*
X147906800Y-42812782D02*
X147859180Y-42765163D01*
X147859180Y-42765163D02*
X147716323Y-42669925D01*
X147716323Y-42669925D02*
X147525847Y-42622306D01*
X147525847Y-42622306D02*
X147144895Y-42622306D01*
X147144895Y-42622306D02*
X147049657Y-42669925D01*
X147049657Y-42669925D02*
X147002038Y-42717544D01*
X147002038Y-42717544D02*
X146954419Y-42812782D01*
X146954419Y-42812782D02*
X146954419Y-43003258D01*
X146954419Y-43003258D02*
X147002038Y-43098496D01*
X147002038Y-43098496D02*
X147049657Y-43146115D01*
X147049657Y-43146115D02*
X147144895Y-43193734D01*
X147144895Y-43193734D02*
X147382990Y-43193734D01*
X147382990Y-43193734D02*
X147478228Y-43146115D01*
X147478228Y-43146115D02*
X147525847Y-43098496D01*
X147525847Y-43098496D02*
X147573466Y-43003258D01*
X147573466Y-43003258D02*
X147573466Y-42812782D01*
X147573466Y-42812782D02*
X147525847Y-42717544D01*
X147525847Y-42717544D02*
X147478228Y-42669925D01*
X147478228Y-42669925D02*
X147382990Y-42622306D01*
D13*
X128139184Y-30302331D02*
X128139184Y-29635664D01*
X128139184Y-29730902D02*
X128186803Y-29683283D01*
X128186803Y-29683283D02*
X128282041Y-29635664D01*
X128282041Y-29635664D02*
X128424898Y-29635664D01*
X128424898Y-29635664D02*
X128520136Y-29683283D01*
X128520136Y-29683283D02*
X128567755Y-29778521D01*
X128567755Y-29778521D02*
X128567755Y-30302331D01*
X128567755Y-29778521D02*
X128615374Y-29683283D01*
X128615374Y-29683283D02*
X128710612Y-29635664D01*
X128710612Y-29635664D02*
X128853469Y-29635664D01*
X128853469Y-29635664D02*
X128948708Y-29683283D01*
X128948708Y-29683283D02*
X128996327Y-29778521D01*
X128996327Y-29778521D02*
X128996327Y-30302331D01*
X129901088Y-29635664D02*
X129901088Y-30302331D01*
X129662993Y-29254712D02*
X129424898Y-29968997D01*
X129424898Y-29968997D02*
X130043945Y-29968997D01*
X130377279Y-29397569D02*
X130424898Y-29349950D01*
X130424898Y-29349950D02*
X130520136Y-29302331D01*
X130520136Y-29302331D02*
X130758231Y-29302331D01*
X130758231Y-29302331D02*
X130853469Y-29349950D01*
X130853469Y-29349950D02*
X130901088Y-29397569D01*
X130901088Y-29397569D02*
X130948707Y-29492807D01*
X130948707Y-29492807D02*
X130948707Y-29588045D01*
X130948707Y-29588045D02*
X130901088Y-29730902D01*
X130901088Y-29730902D02*
X130329660Y-30302331D01*
X130329660Y-30302331D02*
X130948707Y-30302331D01*
X131758231Y-30254712D02*
X131662993Y-30302331D01*
X131662993Y-30302331D02*
X131472517Y-30302331D01*
X131472517Y-30302331D02*
X131377279Y-30254712D01*
X131377279Y-30254712D02*
X131329660Y-30159473D01*
X131329660Y-30159473D02*
X131329660Y-29778521D01*
X131329660Y-29778521D02*
X131377279Y-29683283D01*
X131377279Y-29683283D02*
X131472517Y-29635664D01*
X131472517Y-29635664D02*
X131662993Y-29635664D01*
X131662993Y-29635664D02*
X131758231Y-29683283D01*
X131758231Y-29683283D02*
X131805850Y-29778521D01*
X131805850Y-29778521D02*
X131805850Y-29873759D01*
X131805850Y-29873759D02*
X131329660Y-29968997D01*
X132234422Y-30207092D02*
X132282041Y-30254712D01*
X132282041Y-30254712D02*
X132234422Y-30302331D01*
X132234422Y-30302331D02*
X132186803Y-30254712D01*
X132186803Y-30254712D02*
X132234422Y-30207092D01*
X132234422Y-30207092D02*
X132234422Y-30302331D01*
X133139183Y-30302331D02*
X133139183Y-29302331D01*
X133139183Y-30254712D02*
X133043945Y-30302331D01*
X133043945Y-30302331D02*
X132853469Y-30302331D01*
X132853469Y-30302331D02*
X132758231Y-30254712D01*
X132758231Y-30254712D02*
X132710612Y-30207092D01*
X132710612Y-30207092D02*
X132662993Y-30111854D01*
X132662993Y-30111854D02*
X132662993Y-29826140D01*
X132662993Y-29826140D02*
X132710612Y-29730902D01*
X132710612Y-29730902D02*
X132758231Y-29683283D01*
X132758231Y-29683283D02*
X132853469Y-29635664D01*
X132853469Y-29635664D02*
X133043945Y-29635664D01*
X133043945Y-29635664D02*
X133139183Y-29683283D01*
X133996326Y-30254712D02*
X133901088Y-30302331D01*
X133901088Y-30302331D02*
X133710612Y-30302331D01*
X133710612Y-30302331D02*
X133615374Y-30254712D01*
X133615374Y-30254712D02*
X133567755Y-30159473D01*
X133567755Y-30159473D02*
X133567755Y-29778521D01*
X133567755Y-29778521D02*
X133615374Y-29683283D01*
X133615374Y-29683283D02*
X133710612Y-29635664D01*
X133710612Y-29635664D02*
X133901088Y-29635664D01*
X133901088Y-29635664D02*
X133996326Y-29683283D01*
X133996326Y-29683283D02*
X134043945Y-29778521D01*
X134043945Y-29778521D02*
X134043945Y-29873759D01*
X134043945Y-29873759D02*
X133567755Y-29968997D01*
X129948708Y-31912275D02*
X129948708Y-31245608D01*
X129948708Y-31340846D02*
X129996327Y-31293227D01*
X129996327Y-31293227D02*
X130091565Y-31245608D01*
X130091565Y-31245608D02*
X130234422Y-31245608D01*
X130234422Y-31245608D02*
X130329660Y-31293227D01*
X130329660Y-31293227D02*
X130377279Y-31388465D01*
X130377279Y-31388465D02*
X130377279Y-31912275D01*
X130377279Y-31388465D02*
X130424898Y-31293227D01*
X130424898Y-31293227D02*
X130520136Y-31245608D01*
X130520136Y-31245608D02*
X130662993Y-31245608D01*
X130662993Y-31245608D02*
X130758232Y-31293227D01*
X130758232Y-31293227D02*
X130805851Y-31388465D01*
X130805851Y-31388465D02*
X130805851Y-31912275D01*
X131282041Y-31912275D02*
X131282041Y-30912275D01*
X131282041Y-31293227D02*
X131377279Y-31245608D01*
X131377279Y-31245608D02*
X131567755Y-31245608D01*
X131567755Y-31245608D02*
X131662993Y-31293227D01*
X131662993Y-31293227D02*
X131710612Y-31340846D01*
X131710612Y-31340846D02*
X131758231Y-31436084D01*
X131758231Y-31436084D02*
X131758231Y-31721798D01*
X131758231Y-31721798D02*
X131710612Y-31817036D01*
X131710612Y-31817036D02*
X131662993Y-31864656D01*
X131662993Y-31864656D02*
X131567755Y-31912275D01*
X131567755Y-31912275D02*
X131377279Y-31912275D01*
X131377279Y-31912275D02*
X131282041Y-31864656D01*
X132186803Y-31531322D02*
X132948708Y-31531322D01*
X133329660Y-31245608D02*
X133520136Y-31912275D01*
X133520136Y-31912275D02*
X133710612Y-31436084D01*
X133710612Y-31436084D02*
X133901088Y-31912275D01*
X133901088Y-31912275D02*
X134091564Y-31245608D01*
X131091565Y-32522219D02*
X131424898Y-33522219D01*
X131424898Y-33522219D02*
X131758231Y-32522219D01*
X132615374Y-33522219D02*
X132043946Y-33522219D01*
X132329660Y-33522219D02*
X132329660Y-32522219D01*
X132329660Y-32522219D02*
X132234422Y-32665076D01*
X132234422Y-32665076D02*
X132139184Y-32760314D01*
X132139184Y-32760314D02*
X132043946Y-32807933D01*
X133043946Y-33426980D02*
X133091565Y-33474600D01*
X133091565Y-33474600D02*
X133043946Y-33522219D01*
X133043946Y-33522219D02*
X132996327Y-33474600D01*
X132996327Y-33474600D02*
X133043946Y-33426980D01*
X133043946Y-33426980D02*
X133043946Y-33522219D01*
X133710612Y-32522219D02*
X133805850Y-32522219D01*
X133805850Y-32522219D02*
X133901088Y-32569838D01*
X133901088Y-32569838D02*
X133948707Y-32617457D01*
X133948707Y-32617457D02*
X133996326Y-32712695D01*
X133996326Y-32712695D02*
X134043945Y-32903171D01*
X134043945Y-32903171D02*
X134043945Y-33141266D01*
X134043945Y-33141266D02*
X133996326Y-33331742D01*
X133996326Y-33331742D02*
X133948707Y-33426980D01*
X133948707Y-33426980D02*
X133901088Y-33474600D01*
X133901088Y-33474600D02*
X133805850Y-33522219D01*
X133805850Y-33522219D02*
X133710612Y-33522219D01*
X133710612Y-33522219D02*
X133615374Y-33474600D01*
X133615374Y-33474600D02*
X133567755Y-33426980D01*
X133567755Y-33426980D02*
X133520136Y-33331742D01*
X133520136Y-33331742D02*
X133472517Y-33141266D01*
X133472517Y-33141266D02*
X133472517Y-32903171D01*
X133472517Y-32903171D02*
X133520136Y-32712695D01*
X133520136Y-32712695D02*
X133567755Y-32617457D01*
X133567755Y-32617457D02*
X133615374Y-32569838D01*
X133615374Y-32569838D02*
X133710612Y-32522219D01*
D10*
X129335884Y-55498419D02*
X129335884Y-54498419D01*
X129907312Y-55498419D02*
X129478741Y-54926990D01*
X129907312Y-54498419D02*
X129335884Y-55069847D01*
X130859693Y-55498419D02*
X130288265Y-55498419D01*
X130573979Y-55498419D02*
X130573979Y-54498419D01*
X130573979Y-54498419D02*
X130478741Y-54641276D01*
X130478741Y-54641276D02*
X130383503Y-54736514D01*
X130383503Y-54736514D02*
X130288265Y-54784133D01*
X144448884Y-49910419D02*
X144448884Y-48910419D01*
X145020312Y-49910419D02*
X144591741Y-49338990D01*
X145020312Y-48910419D02*
X144448884Y-49481847D01*
X145639360Y-48910419D02*
X145734598Y-48910419D01*
X145734598Y-48910419D02*
X145829836Y-48958038D01*
X145829836Y-48958038D02*
X145877455Y-49005657D01*
X145877455Y-49005657D02*
X145925074Y-49100895D01*
X145925074Y-49100895D02*
X145972693Y-49291371D01*
X145972693Y-49291371D02*
X145972693Y-49529466D01*
X145972693Y-49529466D02*
X145925074Y-49719942D01*
X145925074Y-49719942D02*
X145877455Y-49815180D01*
X145877455Y-49815180D02*
X145829836Y-49862800D01*
X145829836Y-49862800D02*
X145734598Y-49910419D01*
X145734598Y-49910419D02*
X145639360Y-49910419D01*
X145639360Y-49910419D02*
X145544122Y-49862800D01*
X145544122Y-49862800D02*
X145496503Y-49815180D01*
X145496503Y-49815180D02*
X145448884Y-49719942D01*
X145448884Y-49719942D02*
X145401265Y-49529466D01*
X145401265Y-49529466D02*
X145401265Y-49291371D01*
X145401265Y-49291371D02*
X145448884Y-49100895D01*
X145448884Y-49100895D02*
X145496503Y-49005657D01*
X145496503Y-49005657D02*
X145544122Y-48958038D01*
X145544122Y-48958038D02*
X145639360Y-48910419D01*
X135127419Y-44019115D02*
X134127419Y-44019115D01*
X135127419Y-43447687D02*
X134555990Y-43876258D01*
X134127419Y-43447687D02*
X134698847Y-44019115D01*
X134460752Y-42590544D02*
X135127419Y-42590544D01*
X134079800Y-42828639D02*
X134794085Y-43066734D01*
X134794085Y-43066734D02*
X134794085Y-42447687D01*
X145322027Y-25669419D02*
X145655360Y-26669419D01*
X145655360Y-26669419D02*
X145988693Y-25669419D01*
X146893455Y-26574180D02*
X146845836Y-26621800D01*
X146845836Y-26621800D02*
X146702979Y-26669419D01*
X146702979Y-26669419D02*
X146607741Y-26669419D01*
X146607741Y-26669419D02*
X146464884Y-26621800D01*
X146464884Y-26621800D02*
X146369646Y-26526561D01*
X146369646Y-26526561D02*
X146322027Y-26431323D01*
X146322027Y-26431323D02*
X146274408Y-26240847D01*
X146274408Y-26240847D02*
X146274408Y-26097990D01*
X146274408Y-26097990D02*
X146322027Y-25907514D01*
X146322027Y-25907514D02*
X146369646Y-25812276D01*
X146369646Y-25812276D02*
X146464884Y-25717038D01*
X146464884Y-25717038D02*
X146607741Y-25669419D01*
X146607741Y-25669419D02*
X146702979Y-25669419D01*
X146702979Y-25669419D02*
X146845836Y-25717038D01*
X146845836Y-25717038D02*
X146893455Y-25764657D01*
X147893455Y-26574180D02*
X147845836Y-26621800D01*
X147845836Y-26621800D02*
X147702979Y-26669419D01*
X147702979Y-26669419D02*
X147607741Y-26669419D01*
X147607741Y-26669419D02*
X147464884Y-26621800D01*
X147464884Y-26621800D02*
X147369646Y-26526561D01*
X147369646Y-26526561D02*
X147322027Y-26431323D01*
X147322027Y-26431323D02*
X147274408Y-26240847D01*
X147274408Y-26240847D02*
X147274408Y-26097990D01*
X147274408Y-26097990D02*
X147322027Y-25907514D01*
X147322027Y-25907514D02*
X147369646Y-25812276D01*
X147369646Y-25812276D02*
X147464884Y-25717038D01*
X147464884Y-25717038D02*
X147607741Y-25669419D01*
X147607741Y-25669419D02*
X147702979Y-25669419D01*
X147702979Y-25669419D02*
X147845836Y-25717038D01*
X147845836Y-25717038D02*
X147893455Y-25764657D01*
X149036312Y-25621800D02*
X148179170Y-26907514D01*
X149845836Y-26669419D02*
X149369646Y-26669419D01*
X149369646Y-26669419D02*
X149369646Y-25669419D01*
X150179170Y-26145609D02*
X150512503Y-26145609D01*
X150655360Y-26669419D02*
X150179170Y-26669419D01*
X150179170Y-26669419D02*
X150179170Y-25669419D01*
X150179170Y-25669419D02*
X150655360Y-25669419D01*
X151083932Y-26669419D02*
X151083932Y-25669419D01*
X151083932Y-25669419D02*
X151322027Y-25669419D01*
X151322027Y-25669419D02*
X151464884Y-25717038D01*
X151464884Y-25717038D02*
X151560122Y-25812276D01*
X151560122Y-25812276D02*
X151607741Y-25907514D01*
X151607741Y-25907514D02*
X151655360Y-26097990D01*
X151655360Y-26097990D02*
X151655360Y-26240847D01*
X151655360Y-26240847D02*
X151607741Y-26431323D01*
X151607741Y-26431323D02*
X151560122Y-26526561D01*
X151560122Y-26526561D02*
X151464884Y-26621800D01*
X151464884Y-26621800D02*
X151322027Y-26669419D01*
X151322027Y-26669419D02*
X151083932Y-26669419D01*
X141223419Y-43765115D02*
X140223419Y-43765115D01*
X141223419Y-43193687D02*
X140651990Y-43622258D01*
X140223419Y-43193687D02*
X140794847Y-43765115D01*
X140223419Y-42336544D02*
X140223419Y-42527020D01*
X140223419Y-42527020D02*
X140271038Y-42622258D01*
X140271038Y-42622258D02*
X140318657Y-42669877D01*
X140318657Y-42669877D02*
X140461514Y-42765115D01*
X140461514Y-42765115D02*
X140651990Y-42812734D01*
X140651990Y-42812734D02*
X141032942Y-42812734D01*
X141032942Y-42812734D02*
X141128180Y-42765115D01*
X141128180Y-42765115D02*
X141175800Y-42717496D01*
X141175800Y-42717496D02*
X141223419Y-42622258D01*
X141223419Y-42622258D02*
X141223419Y-42431782D01*
X141223419Y-42431782D02*
X141175800Y-42336544D01*
X141175800Y-42336544D02*
X141128180Y-42288925D01*
X141128180Y-42288925D02*
X141032942Y-42241306D01*
X141032942Y-42241306D02*
X140794847Y-42241306D01*
X140794847Y-42241306D02*
X140699609Y-42288925D01*
X140699609Y-42288925D02*
X140651990Y-42336544D01*
X140651990Y-42336544D02*
X140604371Y-42431782D01*
X140604371Y-42431782D02*
X140604371Y-42622258D01*
X140604371Y-42622258D02*
X140651990Y-42717496D01*
X140651990Y-42717496D02*
X140699609Y-42765115D01*
X140699609Y-42765115D02*
X140794847Y-42812734D01*
X138479884Y-31749419D02*
X138479884Y-30749419D01*
X139051312Y-31749419D02*
X138622741Y-31177990D01*
X139051312Y-30749419D02*
X138479884Y-31320847D01*
X139384646Y-30749419D02*
X140051312Y-30749419D01*
X140051312Y-30749419D02*
X139622741Y-31749419D01*
X146954419Y-55210972D02*
X147954419Y-54877639D01*
X147954419Y-54877639D02*
X146954419Y-54544306D01*
X147668704Y-54258591D02*
X147668704Y-53782401D01*
X147954419Y-54353829D02*
X146954419Y-54020496D01*
X146954419Y-54020496D02*
X147954419Y-53687163D01*
X147954419Y-52782401D02*
X147478228Y-53115734D01*
X147954419Y-53353829D02*
X146954419Y-53353829D01*
X146954419Y-53353829D02*
X146954419Y-52972877D01*
X146954419Y-52972877D02*
X147002038Y-52877639D01*
X147002038Y-52877639D02*
X147049657Y-52830020D01*
X147049657Y-52830020D02*
X147144895Y-52782401D01*
X147144895Y-52782401D02*
X147287752Y-52782401D01*
X147287752Y-52782401D02*
X147382990Y-52830020D01*
X147382990Y-52830020D02*
X147430609Y-52877639D01*
X147430609Y-52877639D02*
X147478228Y-52972877D01*
X147478228Y-52972877D02*
X147478228Y-53353829D01*
X149621419Y-39716972D02*
X150621419Y-39383639D01*
X150621419Y-39383639D02*
X149621419Y-39050306D01*
X150526180Y-38145544D02*
X150573800Y-38193163D01*
X150573800Y-38193163D02*
X150621419Y-38336020D01*
X150621419Y-38336020D02*
X150621419Y-38431258D01*
X150621419Y-38431258D02*
X150573800Y-38574115D01*
X150573800Y-38574115D02*
X150478561Y-38669353D01*
X150478561Y-38669353D02*
X150383323Y-38716972D01*
X150383323Y-38716972D02*
X150192847Y-38764591D01*
X150192847Y-38764591D02*
X150049990Y-38764591D01*
X150049990Y-38764591D02*
X149859514Y-38716972D01*
X149859514Y-38716972D02*
X149764276Y-38669353D01*
X149764276Y-38669353D02*
X149669038Y-38574115D01*
X149669038Y-38574115D02*
X149621419Y-38431258D01*
X149621419Y-38431258D02*
X149621419Y-38336020D01*
X149621419Y-38336020D02*
X149669038Y-38193163D01*
X149669038Y-38193163D02*
X149716657Y-38145544D01*
X150526180Y-37145544D02*
X150573800Y-37193163D01*
X150573800Y-37193163D02*
X150621419Y-37336020D01*
X150621419Y-37336020D02*
X150621419Y-37431258D01*
X150621419Y-37431258D02*
X150573800Y-37574115D01*
X150573800Y-37574115D02*
X150478561Y-37669353D01*
X150478561Y-37669353D02*
X150383323Y-37716972D01*
X150383323Y-37716972D02*
X150192847Y-37764591D01*
X150192847Y-37764591D02*
X150049990Y-37764591D01*
X150049990Y-37764591D02*
X149859514Y-37716972D01*
X149859514Y-37716972D02*
X149764276Y-37669353D01*
X149764276Y-37669353D02*
X149669038Y-37574115D01*
X149669038Y-37574115D02*
X149621419Y-37431258D01*
X149621419Y-37431258D02*
X149621419Y-37336020D01*
X149621419Y-37336020D02*
X149669038Y-37193163D01*
X149669038Y-37193163D02*
X149716657Y-37145544D01*
X149573800Y-36002687D02*
X150859514Y-36859829D01*
X150621419Y-35193163D02*
X150621419Y-35669353D01*
X150621419Y-35669353D02*
X149621419Y-35669353D01*
X150097609Y-34859829D02*
X150097609Y-34526496D01*
X150621419Y-34383639D02*
X150621419Y-34859829D01*
X150621419Y-34859829D02*
X149621419Y-34859829D01*
X149621419Y-34859829D02*
X149621419Y-34383639D01*
X150621419Y-33955067D02*
X149621419Y-33955067D01*
X149621419Y-33955067D02*
X149621419Y-33716972D01*
X149621419Y-33716972D02*
X149669038Y-33574115D01*
X149669038Y-33574115D02*
X149764276Y-33478877D01*
X149764276Y-33478877D02*
X149859514Y-33431258D01*
X149859514Y-33431258D02*
X150049990Y-33383639D01*
X150049990Y-33383639D02*
X150192847Y-33383639D01*
X150192847Y-33383639D02*
X150383323Y-33431258D01*
X150383323Y-33431258D02*
X150478561Y-33478877D01*
X150478561Y-33478877D02*
X150573800Y-33574115D01*
X150573800Y-33574115D02*
X150621419Y-33716972D01*
X150621419Y-33716972D02*
X150621419Y-33955067D01*
X158628455Y-38579133D02*
X158861789Y-39279133D01*
X158861789Y-39279133D02*
X159095122Y-38579133D01*
X159561789Y-38912466D02*
X159661789Y-38945800D01*
X159661789Y-38945800D02*
X159695122Y-38979133D01*
X159695122Y-38979133D02*
X159728455Y-39045800D01*
X159728455Y-39045800D02*
X159728455Y-39145800D01*
X159728455Y-39145800D02*
X159695122Y-39212466D01*
X159695122Y-39212466D02*
X159661789Y-39245800D01*
X159661789Y-39245800D02*
X159595122Y-39279133D01*
X159595122Y-39279133D02*
X159328455Y-39279133D01*
X159328455Y-39279133D02*
X159328455Y-38579133D01*
X159328455Y-38579133D02*
X159561789Y-38579133D01*
X159561789Y-38579133D02*
X159628455Y-38612466D01*
X159628455Y-38612466D02*
X159661789Y-38645800D01*
X159661789Y-38645800D02*
X159695122Y-38712466D01*
X159695122Y-38712466D02*
X159695122Y-38779133D01*
X159695122Y-38779133D02*
X159661789Y-38845800D01*
X159661789Y-38845800D02*
X159628455Y-38879133D01*
X159628455Y-38879133D02*
X159561789Y-38912466D01*
X159561789Y-38912466D02*
X159328455Y-38912466D01*
X160395122Y-39279133D02*
X159995122Y-39279133D01*
X160195122Y-39279133D02*
X160195122Y-38579133D01*
X160195122Y-38579133D02*
X160128455Y-38679133D01*
X160128455Y-38679133D02*
X160061789Y-38745800D01*
X160061789Y-38745800D02*
X159995122Y-38779133D01*
X160628456Y-38579133D02*
X161061789Y-38579133D01*
X161061789Y-38579133D02*
X160828456Y-38845800D01*
X160828456Y-38845800D02*
X160928456Y-38845800D01*
X160928456Y-38845800D02*
X160995122Y-38879133D01*
X160995122Y-38879133D02*
X161028456Y-38912466D01*
X161028456Y-38912466D02*
X161061789Y-38979133D01*
X161061789Y-38979133D02*
X161061789Y-39145800D01*
X161061789Y-39145800D02*
X161028456Y-39212466D01*
X161028456Y-39212466D02*
X160995122Y-39245800D01*
X160995122Y-39245800D02*
X160928456Y-39279133D01*
X160928456Y-39279133D02*
X160728456Y-39279133D01*
X160728456Y-39279133D02*
X160661789Y-39245800D01*
X160661789Y-39245800D02*
X160628456Y-39212466D01*
D14*
X117251973Y-29016844D02*
X117251973Y-29826367D01*
X117251973Y-29826367D02*
X117299592Y-29921605D01*
X117299592Y-29921605D02*
X117347211Y-29969225D01*
X117347211Y-29969225D02*
X117442449Y-30016844D01*
X117442449Y-30016844D02*
X117632925Y-30016844D01*
X117632925Y-30016844D02*
X117728163Y-29969225D01*
X117728163Y-29969225D02*
X117775782Y-29921605D01*
X117775782Y-29921605D02*
X117823401Y-29826367D01*
X117823401Y-29826367D02*
X117823401Y-29016844D01*
X118823401Y-30016844D02*
X118251973Y-30016844D01*
X118537687Y-30016844D02*
X118537687Y-29016844D01*
X118537687Y-29016844D02*
X118442449Y-29159701D01*
X118442449Y-29159701D02*
X118347211Y-29254939D01*
X118347211Y-29254939D02*
X118251973Y-29302558D01*
X119680544Y-29350177D02*
X119680544Y-30016844D01*
X119442449Y-28969225D02*
X119204354Y-29683510D01*
X119204354Y-29683510D02*
X119823401Y-29683510D01*
X101009473Y-29016844D02*
X101009473Y-29826367D01*
X101009473Y-29826367D02*
X101057092Y-29921605D01*
X101057092Y-29921605D02*
X101104711Y-29969225D01*
X101104711Y-29969225D02*
X101199949Y-30016844D01*
X101199949Y-30016844D02*
X101390425Y-30016844D01*
X101390425Y-30016844D02*
X101485663Y-29969225D01*
X101485663Y-29969225D02*
X101533282Y-29921605D01*
X101533282Y-29921605D02*
X101580901Y-29826367D01*
X101580901Y-29826367D02*
X101580901Y-29016844D01*
X102580901Y-30016844D02*
X102009473Y-30016844D01*
X102295187Y-30016844D02*
X102295187Y-29016844D01*
X102295187Y-29016844D02*
X102199949Y-29159701D01*
X102199949Y-29159701D02*
X102104711Y-29254939D01*
X102104711Y-29254939D02*
X102009473Y-29302558D01*
X102914235Y-29016844D02*
X103533282Y-29016844D01*
X103533282Y-29016844D02*
X103199949Y-29397796D01*
X103199949Y-29397796D02*
X103342806Y-29397796D01*
X103342806Y-29397796D02*
X103438044Y-29445415D01*
X103438044Y-29445415D02*
X103485663Y-29493034D01*
X103485663Y-29493034D02*
X103533282Y-29588272D01*
X103533282Y-29588272D02*
X103533282Y-29826367D01*
X103533282Y-29826367D02*
X103485663Y-29921605D01*
X103485663Y-29921605D02*
X103438044Y-29969225D01*
X103438044Y-29969225D02*
X103342806Y-30016844D01*
X103342806Y-30016844D02*
X103057092Y-30016844D01*
X103057092Y-30016844D02*
X102961854Y-29969225D01*
X102961854Y-29969225D02*
X102914235Y-29921605D01*
X84766973Y-29016844D02*
X84766973Y-29826367D01*
X84766973Y-29826367D02*
X84814592Y-29921605D01*
X84814592Y-29921605D02*
X84862211Y-29969225D01*
X84862211Y-29969225D02*
X84957449Y-30016844D01*
X84957449Y-30016844D02*
X85147925Y-30016844D01*
X85147925Y-30016844D02*
X85243163Y-29969225D01*
X85243163Y-29969225D02*
X85290782Y-29921605D01*
X85290782Y-29921605D02*
X85338401Y-29826367D01*
X85338401Y-29826367D02*
X85338401Y-29016844D01*
X86338401Y-30016844D02*
X85766973Y-30016844D01*
X86052687Y-30016844D02*
X86052687Y-29016844D01*
X86052687Y-29016844D02*
X85957449Y-29159701D01*
X85957449Y-29159701D02*
X85862211Y-29254939D01*
X85862211Y-29254939D02*
X85766973Y-29302558D01*
X86719354Y-29112082D02*
X86766973Y-29064463D01*
X86766973Y-29064463D02*
X86862211Y-29016844D01*
X86862211Y-29016844D02*
X87100306Y-29016844D01*
X87100306Y-29016844D02*
X87195544Y-29064463D01*
X87195544Y-29064463D02*
X87243163Y-29112082D01*
X87243163Y-29112082D02*
X87290782Y-29207320D01*
X87290782Y-29207320D02*
X87290782Y-29302558D01*
X87290782Y-29302558D02*
X87243163Y-29445415D01*
X87243163Y-29445415D02*
X86671735Y-30016844D01*
X86671735Y-30016844D02*
X87290782Y-30016844D01*
X68524473Y-29016844D02*
X68524473Y-29826367D01*
X68524473Y-29826367D02*
X68572092Y-29921605D01*
X68572092Y-29921605D02*
X68619711Y-29969225D01*
X68619711Y-29969225D02*
X68714949Y-30016844D01*
X68714949Y-30016844D02*
X68905425Y-30016844D01*
X68905425Y-30016844D02*
X69000663Y-29969225D01*
X69000663Y-29969225D02*
X69048282Y-29921605D01*
X69048282Y-29921605D02*
X69095901Y-29826367D01*
X69095901Y-29826367D02*
X69095901Y-29016844D01*
X70095901Y-30016844D02*
X69524473Y-30016844D01*
X69810187Y-30016844D02*
X69810187Y-29016844D01*
X69810187Y-29016844D02*
X69714949Y-29159701D01*
X69714949Y-29159701D02*
X69619711Y-29254939D01*
X69619711Y-29254939D02*
X69524473Y-29302558D01*
X71048282Y-30016844D02*
X70476854Y-30016844D01*
X70762568Y-30016844D02*
X70762568Y-29016844D01*
X70762568Y-29016844D02*
X70667330Y-29159701D01*
X70667330Y-29159701D02*
X70572092Y-29254939D01*
X70572092Y-29254939D02*
X70476854Y-29302558D01*
X52281973Y-29016844D02*
X52281973Y-29826367D01*
X52281973Y-29826367D02*
X52329592Y-29921605D01*
X52329592Y-29921605D02*
X52377211Y-29969225D01*
X52377211Y-29969225D02*
X52472449Y-30016844D01*
X52472449Y-30016844D02*
X52662925Y-30016844D01*
X52662925Y-30016844D02*
X52758163Y-29969225D01*
X52758163Y-29969225D02*
X52805782Y-29921605D01*
X52805782Y-29921605D02*
X52853401Y-29826367D01*
X52853401Y-29826367D02*
X52853401Y-29016844D01*
X53853401Y-30016844D02*
X53281973Y-30016844D01*
X53567687Y-30016844D02*
X53567687Y-29016844D01*
X53567687Y-29016844D02*
X53472449Y-29159701D01*
X53472449Y-29159701D02*
X53377211Y-29254939D01*
X53377211Y-29254939D02*
X53281973Y-29302558D01*
X54472449Y-29016844D02*
X54567687Y-29016844D01*
X54567687Y-29016844D02*
X54662925Y-29064463D01*
X54662925Y-29064463D02*
X54710544Y-29112082D01*
X54710544Y-29112082D02*
X54758163Y-29207320D01*
X54758163Y-29207320D02*
X54805782Y-29397796D01*
X54805782Y-29397796D02*
X54805782Y-29635891D01*
X54805782Y-29635891D02*
X54758163Y-29826367D01*
X54758163Y-29826367D02*
X54710544Y-29921605D01*
X54710544Y-29921605D02*
X54662925Y-29969225D01*
X54662925Y-29969225D02*
X54567687Y-30016844D01*
X54567687Y-30016844D02*
X54472449Y-30016844D01*
X54472449Y-30016844D02*
X54377211Y-29969225D01*
X54377211Y-29969225D02*
X54329592Y-29921605D01*
X54329592Y-29921605D02*
X54281973Y-29826367D01*
X54281973Y-29826367D02*
X54234354Y-29635891D01*
X54234354Y-29635891D02*
X54234354Y-29397796D01*
X54234354Y-29397796D02*
X54281973Y-29207320D01*
X54281973Y-29207320D02*
X54329592Y-29112082D01*
X54329592Y-29112082D02*
X54377211Y-29064463D01*
X54377211Y-29064463D02*
X54472449Y-29016844D01*
X47050844Y-33470855D02*
X47860367Y-33470855D01*
X47860367Y-33470855D02*
X47955605Y-33423236D01*
X47955605Y-33423236D02*
X48003225Y-33375617D01*
X48003225Y-33375617D02*
X48050844Y-33280379D01*
X48050844Y-33280379D02*
X48050844Y-33089903D01*
X48050844Y-33089903D02*
X48003225Y-32994665D01*
X48003225Y-32994665D02*
X47955605Y-32947046D01*
X47955605Y-32947046D02*
X47860367Y-32899427D01*
X47860367Y-32899427D02*
X47050844Y-32899427D01*
X48050844Y-32375617D02*
X48050844Y-32185141D01*
X48050844Y-32185141D02*
X48003225Y-32089903D01*
X48003225Y-32089903D02*
X47955605Y-32042284D01*
X47955605Y-32042284D02*
X47812748Y-31947046D01*
X47812748Y-31947046D02*
X47622272Y-31899427D01*
X47622272Y-31899427D02*
X47241320Y-31899427D01*
X47241320Y-31899427D02*
X47146082Y-31947046D01*
X47146082Y-31947046D02*
X47098463Y-31994665D01*
X47098463Y-31994665D02*
X47050844Y-32089903D01*
X47050844Y-32089903D02*
X47050844Y-32280379D01*
X47050844Y-32280379D02*
X47098463Y-32375617D01*
X47098463Y-32375617D02*
X47146082Y-32423236D01*
X47146082Y-32423236D02*
X47241320Y-32470855D01*
X47241320Y-32470855D02*
X47479415Y-32470855D01*
X47479415Y-32470855D02*
X47574653Y-32423236D01*
X47574653Y-32423236D02*
X47622272Y-32375617D01*
X47622272Y-32375617D02*
X47669891Y-32280379D01*
X47669891Y-32280379D02*
X47669891Y-32089903D01*
X47669891Y-32089903D02*
X47622272Y-31994665D01*
X47622272Y-31994665D02*
X47574653Y-31947046D01*
X47574653Y-31947046D02*
X47479415Y-31899427D01*
X47050844Y-43376855D02*
X47860367Y-43376855D01*
X47860367Y-43376855D02*
X47955605Y-43329236D01*
X47955605Y-43329236D02*
X48003225Y-43281617D01*
X48003225Y-43281617D02*
X48050844Y-43186379D01*
X48050844Y-43186379D02*
X48050844Y-42995903D01*
X48050844Y-42995903D02*
X48003225Y-42900665D01*
X48003225Y-42900665D02*
X47955605Y-42853046D01*
X47955605Y-42853046D02*
X47860367Y-42805427D01*
X47860367Y-42805427D02*
X47050844Y-42805427D01*
X47479415Y-42186379D02*
X47431796Y-42281617D01*
X47431796Y-42281617D02*
X47384177Y-42329236D01*
X47384177Y-42329236D02*
X47288939Y-42376855D01*
X47288939Y-42376855D02*
X47241320Y-42376855D01*
X47241320Y-42376855D02*
X47146082Y-42329236D01*
X47146082Y-42329236D02*
X47098463Y-42281617D01*
X47098463Y-42281617D02*
X47050844Y-42186379D01*
X47050844Y-42186379D02*
X47050844Y-41995903D01*
X47050844Y-41995903D02*
X47098463Y-41900665D01*
X47098463Y-41900665D02*
X47146082Y-41853046D01*
X47146082Y-41853046D02*
X47241320Y-41805427D01*
X47241320Y-41805427D02*
X47288939Y-41805427D01*
X47288939Y-41805427D02*
X47384177Y-41853046D01*
X47384177Y-41853046D02*
X47431796Y-41900665D01*
X47431796Y-41900665D02*
X47479415Y-41995903D01*
X47479415Y-41995903D02*
X47479415Y-42186379D01*
X47479415Y-42186379D02*
X47527034Y-42281617D01*
X47527034Y-42281617D02*
X47574653Y-42329236D01*
X47574653Y-42329236D02*
X47669891Y-42376855D01*
X47669891Y-42376855D02*
X47860367Y-42376855D01*
X47860367Y-42376855D02*
X47955605Y-42329236D01*
X47955605Y-42329236D02*
X48003225Y-42281617D01*
X48003225Y-42281617D02*
X48050844Y-42186379D01*
X48050844Y-42186379D02*
X48050844Y-41995903D01*
X48050844Y-41995903D02*
X48003225Y-41900665D01*
X48003225Y-41900665D02*
X47955605Y-41853046D01*
X47955605Y-41853046D02*
X47860367Y-41805427D01*
X47860367Y-41805427D02*
X47669891Y-41805427D01*
X47669891Y-41805427D02*
X47574653Y-41853046D01*
X47574653Y-41853046D02*
X47527034Y-41900665D01*
X47527034Y-41900665D02*
X47479415Y-41995903D01*
X47050844Y-53282855D02*
X47860367Y-53282855D01*
X47860367Y-53282855D02*
X47955605Y-53235236D01*
X47955605Y-53235236D02*
X48003225Y-53187617D01*
X48003225Y-53187617D02*
X48050844Y-53092379D01*
X48050844Y-53092379D02*
X48050844Y-52901903D01*
X48050844Y-52901903D02*
X48003225Y-52806665D01*
X48003225Y-52806665D02*
X47955605Y-52759046D01*
X47955605Y-52759046D02*
X47860367Y-52711427D01*
X47860367Y-52711427D02*
X47050844Y-52711427D01*
X47050844Y-52330474D02*
X47050844Y-51663808D01*
X47050844Y-51663808D02*
X48050844Y-52092379D01*
X52998130Y-54963743D02*
X52998130Y-55773266D01*
X52998130Y-55773266D02*
X53045749Y-55868504D01*
X53045749Y-55868504D02*
X53093368Y-55916124D01*
X53093368Y-55916124D02*
X53188606Y-55963743D01*
X53188606Y-55963743D02*
X53379082Y-55963743D01*
X53379082Y-55963743D02*
X53474320Y-55916124D01*
X53474320Y-55916124D02*
X53521939Y-55868504D01*
X53521939Y-55868504D02*
X53569558Y-55773266D01*
X53569558Y-55773266D02*
X53569558Y-54963743D01*
X54474320Y-54963743D02*
X54283844Y-54963743D01*
X54283844Y-54963743D02*
X54188606Y-55011362D01*
X54188606Y-55011362D02*
X54140987Y-55058981D01*
X54140987Y-55058981D02*
X54045749Y-55201838D01*
X54045749Y-55201838D02*
X53998130Y-55392314D01*
X53998130Y-55392314D02*
X53998130Y-55773266D01*
X53998130Y-55773266D02*
X54045749Y-55868504D01*
X54045749Y-55868504D02*
X54093368Y-55916124D01*
X54093368Y-55916124D02*
X54188606Y-55963743D01*
X54188606Y-55963743D02*
X54379082Y-55963743D01*
X54379082Y-55963743D02*
X54474320Y-55916124D01*
X54474320Y-55916124D02*
X54521939Y-55868504D01*
X54521939Y-55868504D02*
X54569558Y-55773266D01*
X54569558Y-55773266D02*
X54569558Y-55535171D01*
X54569558Y-55535171D02*
X54521939Y-55439933D01*
X54521939Y-55439933D02*
X54474320Y-55392314D01*
X54474320Y-55392314D02*
X54379082Y-55344695D01*
X54379082Y-55344695D02*
X54188606Y-55344695D01*
X54188606Y-55344695D02*
X54093368Y-55392314D01*
X54093368Y-55392314D02*
X54045749Y-55439933D01*
X54045749Y-55439933D02*
X53998130Y-55535171D01*
X69240630Y-54963743D02*
X69240630Y-55773266D01*
X69240630Y-55773266D02*
X69288249Y-55868504D01*
X69288249Y-55868504D02*
X69335868Y-55916124D01*
X69335868Y-55916124D02*
X69431106Y-55963743D01*
X69431106Y-55963743D02*
X69621582Y-55963743D01*
X69621582Y-55963743D02*
X69716820Y-55916124D01*
X69716820Y-55916124D02*
X69764439Y-55868504D01*
X69764439Y-55868504D02*
X69812058Y-55773266D01*
X69812058Y-55773266D02*
X69812058Y-54963743D01*
X70764439Y-54963743D02*
X70288249Y-54963743D01*
X70288249Y-54963743D02*
X70240630Y-55439933D01*
X70240630Y-55439933D02*
X70288249Y-55392314D01*
X70288249Y-55392314D02*
X70383487Y-55344695D01*
X70383487Y-55344695D02*
X70621582Y-55344695D01*
X70621582Y-55344695D02*
X70716820Y-55392314D01*
X70716820Y-55392314D02*
X70764439Y-55439933D01*
X70764439Y-55439933D02*
X70812058Y-55535171D01*
X70812058Y-55535171D02*
X70812058Y-55773266D01*
X70812058Y-55773266D02*
X70764439Y-55868504D01*
X70764439Y-55868504D02*
X70716820Y-55916124D01*
X70716820Y-55916124D02*
X70621582Y-55963743D01*
X70621582Y-55963743D02*
X70383487Y-55963743D01*
X70383487Y-55963743D02*
X70288249Y-55916124D01*
X70288249Y-55916124D02*
X70240630Y-55868504D01*
X85483130Y-54963743D02*
X85483130Y-55773266D01*
X85483130Y-55773266D02*
X85530749Y-55868504D01*
X85530749Y-55868504D02*
X85578368Y-55916124D01*
X85578368Y-55916124D02*
X85673606Y-55963743D01*
X85673606Y-55963743D02*
X85864082Y-55963743D01*
X85864082Y-55963743D02*
X85959320Y-55916124D01*
X85959320Y-55916124D02*
X86006939Y-55868504D01*
X86006939Y-55868504D02*
X86054558Y-55773266D01*
X86054558Y-55773266D02*
X86054558Y-54963743D01*
X86959320Y-55297076D02*
X86959320Y-55963743D01*
X86721225Y-54916124D02*
X86483130Y-55630409D01*
X86483130Y-55630409D02*
X87102177Y-55630409D01*
X101725630Y-54963743D02*
X101725630Y-55773266D01*
X101725630Y-55773266D02*
X101773249Y-55868504D01*
X101773249Y-55868504D02*
X101820868Y-55916124D01*
X101820868Y-55916124D02*
X101916106Y-55963743D01*
X101916106Y-55963743D02*
X102106582Y-55963743D01*
X102106582Y-55963743D02*
X102201820Y-55916124D01*
X102201820Y-55916124D02*
X102249439Y-55868504D01*
X102249439Y-55868504D02*
X102297058Y-55773266D01*
X102297058Y-55773266D02*
X102297058Y-54963743D01*
X102678011Y-54963743D02*
X103297058Y-54963743D01*
X103297058Y-54963743D02*
X102963725Y-55344695D01*
X102963725Y-55344695D02*
X103106582Y-55344695D01*
X103106582Y-55344695D02*
X103201820Y-55392314D01*
X103201820Y-55392314D02*
X103249439Y-55439933D01*
X103249439Y-55439933D02*
X103297058Y-55535171D01*
X103297058Y-55535171D02*
X103297058Y-55773266D01*
X103297058Y-55773266D02*
X103249439Y-55868504D01*
X103249439Y-55868504D02*
X103201820Y-55916124D01*
X103201820Y-55916124D02*
X103106582Y-55963743D01*
X103106582Y-55963743D02*
X102820868Y-55963743D01*
X102820868Y-55963743D02*
X102725630Y-55916124D01*
X102725630Y-55916124D02*
X102678011Y-55868504D01*
X117968130Y-54963743D02*
X117968130Y-55773266D01*
X117968130Y-55773266D02*
X118015749Y-55868504D01*
X118015749Y-55868504D02*
X118063368Y-55916124D01*
X118063368Y-55916124D02*
X118158606Y-55963743D01*
X118158606Y-55963743D02*
X118349082Y-55963743D01*
X118349082Y-55963743D02*
X118444320Y-55916124D01*
X118444320Y-55916124D02*
X118491939Y-55868504D01*
X118491939Y-55868504D02*
X118539558Y-55773266D01*
X118539558Y-55773266D02*
X118539558Y-54963743D01*
X118968130Y-55058981D02*
X119015749Y-55011362D01*
X119015749Y-55011362D02*
X119110987Y-54963743D01*
X119110987Y-54963743D02*
X119349082Y-54963743D01*
X119349082Y-54963743D02*
X119444320Y-55011362D01*
X119444320Y-55011362D02*
X119491939Y-55058981D01*
X119491939Y-55058981D02*
X119539558Y-55154219D01*
X119539558Y-55154219D02*
X119539558Y-55249457D01*
X119539558Y-55249457D02*
X119491939Y-55392314D01*
X119491939Y-55392314D02*
X118920511Y-55963743D01*
X118920511Y-55963743D02*
X119539558Y-55963743D01*
X116800527Y-35279251D02*
X116943384Y-35326870D01*
X116943384Y-35326870D02*
X117181479Y-35326870D01*
X117181479Y-35326870D02*
X117276717Y-35279251D01*
X117276717Y-35279251D02*
X117324336Y-35231631D01*
X117324336Y-35231631D02*
X117371955Y-35136393D01*
X117371955Y-35136393D02*
X117371955Y-35041155D01*
X117371955Y-35041155D02*
X117324336Y-34945917D01*
X117324336Y-34945917D02*
X117276717Y-34898298D01*
X117276717Y-34898298D02*
X117181479Y-34850679D01*
X117181479Y-34850679D02*
X116991003Y-34803060D01*
X116991003Y-34803060D02*
X116895765Y-34755441D01*
X116895765Y-34755441D02*
X116848146Y-34707822D01*
X116848146Y-34707822D02*
X116800527Y-34612584D01*
X116800527Y-34612584D02*
X116800527Y-34517346D01*
X116800527Y-34517346D02*
X116848146Y-34422108D01*
X116848146Y-34422108D02*
X116895765Y-34374489D01*
X116895765Y-34374489D02*
X116991003Y-34326870D01*
X116991003Y-34326870D02*
X117229098Y-34326870D01*
X117229098Y-34326870D02*
X117371955Y-34374489D01*
X117705289Y-34326870D02*
X117943384Y-35326870D01*
X117943384Y-35326870D02*
X118133860Y-34612584D01*
X118133860Y-34612584D02*
X118324336Y-35326870D01*
X118324336Y-35326870D02*
X118562432Y-34326870D01*
X119467193Y-35326870D02*
X118895765Y-35326870D01*
X119181479Y-35326870D02*
X119181479Y-34326870D01*
X119181479Y-34326870D02*
X119086241Y-34469727D01*
X119086241Y-34469727D02*
X118991003Y-34564965D01*
X118991003Y-34564965D02*
X118895765Y-34612584D01*
X120086241Y-34326870D02*
X120181479Y-34326870D01*
X120181479Y-34326870D02*
X120276717Y-34374489D01*
X120276717Y-34374489D02*
X120324336Y-34422108D01*
X120324336Y-34422108D02*
X120371955Y-34517346D01*
X120371955Y-34517346D02*
X120419574Y-34707822D01*
X120419574Y-34707822D02*
X120419574Y-34945917D01*
X120419574Y-34945917D02*
X120371955Y-35136393D01*
X120371955Y-35136393D02*
X120324336Y-35231631D01*
X120324336Y-35231631D02*
X120276717Y-35279251D01*
X120276717Y-35279251D02*
X120181479Y-35326870D01*
X120181479Y-35326870D02*
X120086241Y-35326870D01*
X120086241Y-35326870D02*
X119991003Y-35279251D01*
X119991003Y-35279251D02*
X119943384Y-35231631D01*
X119943384Y-35231631D02*
X119895765Y-35136393D01*
X119895765Y-35136393D02*
X119848146Y-34945917D01*
X119848146Y-34945917D02*
X119848146Y-34707822D01*
X119848146Y-34707822D02*
X119895765Y-34517346D01*
X119895765Y-34517346D02*
X119943384Y-34422108D01*
X119943384Y-34422108D02*
X119991003Y-34374489D01*
X119991003Y-34374489D02*
X120086241Y-34326870D01*
X101020718Y-42331251D02*
X101163575Y-42378870D01*
X101163575Y-42378870D02*
X101401670Y-42378870D01*
X101401670Y-42378870D02*
X101496908Y-42331251D01*
X101496908Y-42331251D02*
X101544527Y-42283631D01*
X101544527Y-42283631D02*
X101592146Y-42188393D01*
X101592146Y-42188393D02*
X101592146Y-42093155D01*
X101592146Y-42093155D02*
X101544527Y-41997917D01*
X101544527Y-41997917D02*
X101496908Y-41950298D01*
X101496908Y-41950298D02*
X101401670Y-41902679D01*
X101401670Y-41902679D02*
X101211194Y-41855060D01*
X101211194Y-41855060D02*
X101115956Y-41807441D01*
X101115956Y-41807441D02*
X101068337Y-41759822D01*
X101068337Y-41759822D02*
X101020718Y-41664584D01*
X101020718Y-41664584D02*
X101020718Y-41569346D01*
X101020718Y-41569346D02*
X101068337Y-41474108D01*
X101068337Y-41474108D02*
X101115956Y-41426489D01*
X101115956Y-41426489D02*
X101211194Y-41378870D01*
X101211194Y-41378870D02*
X101449289Y-41378870D01*
X101449289Y-41378870D02*
X101592146Y-41426489D01*
X101925480Y-41378870D02*
X102163575Y-42378870D01*
X102163575Y-42378870D02*
X102354051Y-41664584D01*
X102354051Y-41664584D02*
X102544527Y-42378870D01*
X102544527Y-42378870D02*
X102782623Y-41378870D01*
X103592146Y-41712203D02*
X103592146Y-42378870D01*
X103354051Y-41331251D02*
X103115956Y-42045536D01*
X103115956Y-42045536D02*
X103735003Y-42045536D01*
X116800527Y-51231251D02*
X116943384Y-51278870D01*
X116943384Y-51278870D02*
X117181479Y-51278870D01*
X117181479Y-51278870D02*
X117276717Y-51231251D01*
X117276717Y-51231251D02*
X117324336Y-51183631D01*
X117324336Y-51183631D02*
X117371955Y-51088393D01*
X117371955Y-51088393D02*
X117371955Y-50993155D01*
X117371955Y-50993155D02*
X117324336Y-50897917D01*
X117324336Y-50897917D02*
X117276717Y-50850298D01*
X117276717Y-50850298D02*
X117181479Y-50802679D01*
X117181479Y-50802679D02*
X116991003Y-50755060D01*
X116991003Y-50755060D02*
X116895765Y-50707441D01*
X116895765Y-50707441D02*
X116848146Y-50659822D01*
X116848146Y-50659822D02*
X116800527Y-50564584D01*
X116800527Y-50564584D02*
X116800527Y-50469346D01*
X116800527Y-50469346D02*
X116848146Y-50374108D01*
X116848146Y-50374108D02*
X116895765Y-50326489D01*
X116895765Y-50326489D02*
X116991003Y-50278870D01*
X116991003Y-50278870D02*
X117229098Y-50278870D01*
X117229098Y-50278870D02*
X117371955Y-50326489D01*
X117705289Y-50278870D02*
X117943384Y-51278870D01*
X117943384Y-51278870D02*
X118133860Y-50564584D01*
X118133860Y-50564584D02*
X118324336Y-51278870D01*
X118324336Y-51278870D02*
X118562432Y-50278870D01*
X119467193Y-51278870D02*
X118895765Y-51278870D01*
X119181479Y-51278870D02*
X119181479Y-50278870D01*
X119181479Y-50278870D02*
X119086241Y-50421727D01*
X119086241Y-50421727D02*
X118991003Y-50516965D01*
X118991003Y-50516965D02*
X118895765Y-50564584D01*
X120324336Y-50278870D02*
X120133860Y-50278870D01*
X120133860Y-50278870D02*
X120038622Y-50326489D01*
X120038622Y-50326489D02*
X119991003Y-50374108D01*
X119991003Y-50374108D02*
X119895765Y-50516965D01*
X119895765Y-50516965D02*
X119848146Y-50707441D01*
X119848146Y-50707441D02*
X119848146Y-51088393D01*
X119848146Y-51088393D02*
X119895765Y-51183631D01*
X119895765Y-51183631D02*
X119943384Y-51231251D01*
X119943384Y-51231251D02*
X120038622Y-51278870D01*
X120038622Y-51278870D02*
X120229098Y-51278870D01*
X120229098Y-51278870D02*
X120324336Y-51231251D01*
X120324336Y-51231251D02*
X120371955Y-51183631D01*
X120371955Y-51183631D02*
X120419574Y-51088393D01*
X120419574Y-51088393D02*
X120419574Y-50850298D01*
X120419574Y-50850298D02*
X120371955Y-50755060D01*
X120371955Y-50755060D02*
X120324336Y-50707441D01*
X120324336Y-50707441D02*
X120229098Y-50659822D01*
X120229098Y-50659822D02*
X120038622Y-50659822D01*
X120038622Y-50659822D02*
X119943384Y-50707441D01*
X119943384Y-50707441D02*
X119895765Y-50755060D01*
X119895765Y-50755060D02*
X119848146Y-50850298D01*
X160681200Y-34829523D02*
X160728819Y-34686666D01*
X160728819Y-34686666D02*
X160728819Y-34448571D01*
X160728819Y-34448571D02*
X160681200Y-34353333D01*
X160681200Y-34353333D02*
X160633580Y-34305714D01*
X160633580Y-34305714D02*
X160538342Y-34258095D01*
X160538342Y-34258095D02*
X160443104Y-34258095D01*
X160443104Y-34258095D02*
X160347866Y-34305714D01*
X160347866Y-34305714D02*
X160300247Y-34353333D01*
X160300247Y-34353333D02*
X160252628Y-34448571D01*
X160252628Y-34448571D02*
X160205009Y-34639047D01*
X160205009Y-34639047D02*
X160157390Y-34734285D01*
X160157390Y-34734285D02*
X160109771Y-34781904D01*
X160109771Y-34781904D02*
X160014533Y-34829523D01*
X160014533Y-34829523D02*
X159919295Y-34829523D01*
X159919295Y-34829523D02*
X159824057Y-34781904D01*
X159824057Y-34781904D02*
X159776438Y-34734285D01*
X159776438Y-34734285D02*
X159728819Y-34639047D01*
X159728819Y-34639047D02*
X159728819Y-34400952D01*
X159728819Y-34400952D02*
X159776438Y-34258095D01*
X159728819Y-33924761D02*
X160728819Y-33686666D01*
X160728819Y-33686666D02*
X160014533Y-33496190D01*
X160014533Y-33496190D02*
X160728819Y-33305714D01*
X160728819Y-33305714D02*
X159728819Y-33067619D01*
X160728819Y-32162857D02*
X160728819Y-32734285D01*
X160728819Y-32448571D02*
X159728819Y-32448571D01*
X159728819Y-32448571D02*
X159871676Y-32543809D01*
X159871676Y-32543809D02*
X159966914Y-32639047D01*
X159966914Y-32639047D02*
X160014533Y-32734285D01*
X160728819Y-31210476D02*
X160728819Y-31781904D01*
X160728819Y-31496190D02*
X159728819Y-31496190D01*
X159728819Y-31496190D02*
X159871676Y-31591428D01*
X159871676Y-31591428D02*
X159966914Y-31686666D01*
X159966914Y-31686666D02*
X160014533Y-31781904D01*
X159988333Y-27502295D02*
X159988333Y-28073723D01*
X159988333Y-28073723D02*
X159950238Y-28188009D01*
X159950238Y-28188009D02*
X159874047Y-28264200D01*
X159874047Y-28264200D02*
X159759762Y-28302295D01*
X159759762Y-28302295D02*
X159683571Y-28302295D01*
X160369286Y-28302295D02*
X160369286Y-27502295D01*
X160369286Y-27502295D02*
X160674048Y-27502295D01*
X160674048Y-27502295D02*
X160750238Y-27540390D01*
X160750238Y-27540390D02*
X160788333Y-27578485D01*
X160788333Y-27578485D02*
X160826429Y-27654676D01*
X160826429Y-27654676D02*
X160826429Y-27768961D01*
X160826429Y-27768961D02*
X160788333Y-27845152D01*
X160788333Y-27845152D02*
X160750238Y-27883247D01*
X160750238Y-27883247D02*
X160674048Y-27921342D01*
X160674048Y-27921342D02*
X160369286Y-27921342D01*
X161588333Y-28302295D02*
X161131190Y-28302295D01*
X161359762Y-28302295D02*
X161359762Y-27502295D01*
X161359762Y-27502295D02*
X161283571Y-27616580D01*
X161283571Y-27616580D02*
X161207381Y-27692771D01*
X161207381Y-27692771D02*
X161131190Y-27730866D01*
X84764718Y-42331251D02*
X84907575Y-42378870D01*
X84907575Y-42378870D02*
X85145670Y-42378870D01*
X85145670Y-42378870D02*
X85240908Y-42331251D01*
X85240908Y-42331251D02*
X85288527Y-42283631D01*
X85288527Y-42283631D02*
X85336146Y-42188393D01*
X85336146Y-42188393D02*
X85336146Y-42093155D01*
X85336146Y-42093155D02*
X85288527Y-41997917D01*
X85288527Y-41997917D02*
X85240908Y-41950298D01*
X85240908Y-41950298D02*
X85145670Y-41902679D01*
X85145670Y-41902679D02*
X84955194Y-41855060D01*
X84955194Y-41855060D02*
X84859956Y-41807441D01*
X84859956Y-41807441D02*
X84812337Y-41759822D01*
X84812337Y-41759822D02*
X84764718Y-41664584D01*
X84764718Y-41664584D02*
X84764718Y-41569346D01*
X84764718Y-41569346D02*
X84812337Y-41474108D01*
X84812337Y-41474108D02*
X84859956Y-41426489D01*
X84859956Y-41426489D02*
X84955194Y-41378870D01*
X84955194Y-41378870D02*
X85193289Y-41378870D01*
X85193289Y-41378870D02*
X85336146Y-41426489D01*
X85669480Y-41378870D02*
X85907575Y-42378870D01*
X85907575Y-42378870D02*
X86098051Y-41664584D01*
X86098051Y-41664584D02*
X86288527Y-42378870D01*
X86288527Y-42378870D02*
X86526623Y-41378870D01*
X86812337Y-41378870D02*
X87431384Y-41378870D01*
X87431384Y-41378870D02*
X87098051Y-41759822D01*
X87098051Y-41759822D02*
X87240908Y-41759822D01*
X87240908Y-41759822D02*
X87336146Y-41807441D01*
X87336146Y-41807441D02*
X87383765Y-41855060D01*
X87383765Y-41855060D02*
X87431384Y-41950298D01*
X87431384Y-41950298D02*
X87431384Y-42188393D01*
X87431384Y-42188393D02*
X87383765Y-42283631D01*
X87383765Y-42283631D02*
X87336146Y-42331251D01*
X87336146Y-42331251D02*
X87240908Y-42378870D01*
X87240908Y-42378870D02*
X86955194Y-42378870D01*
X86955194Y-42378870D02*
X86859956Y-42331251D01*
X86859956Y-42331251D02*
X86812337Y-42283631D01*
X68508718Y-35279251D02*
X68651575Y-35326870D01*
X68651575Y-35326870D02*
X68889670Y-35326870D01*
X68889670Y-35326870D02*
X68984908Y-35279251D01*
X68984908Y-35279251D02*
X69032527Y-35231631D01*
X69032527Y-35231631D02*
X69080146Y-35136393D01*
X69080146Y-35136393D02*
X69080146Y-35041155D01*
X69080146Y-35041155D02*
X69032527Y-34945917D01*
X69032527Y-34945917D02*
X68984908Y-34898298D01*
X68984908Y-34898298D02*
X68889670Y-34850679D01*
X68889670Y-34850679D02*
X68699194Y-34803060D01*
X68699194Y-34803060D02*
X68603956Y-34755441D01*
X68603956Y-34755441D02*
X68556337Y-34707822D01*
X68556337Y-34707822D02*
X68508718Y-34612584D01*
X68508718Y-34612584D02*
X68508718Y-34517346D01*
X68508718Y-34517346D02*
X68556337Y-34422108D01*
X68556337Y-34422108D02*
X68603956Y-34374489D01*
X68603956Y-34374489D02*
X68699194Y-34326870D01*
X68699194Y-34326870D02*
X68937289Y-34326870D01*
X68937289Y-34326870D02*
X69080146Y-34374489D01*
X69413480Y-34326870D02*
X69651575Y-35326870D01*
X69651575Y-35326870D02*
X69842051Y-34612584D01*
X69842051Y-34612584D02*
X70032527Y-35326870D01*
X70032527Y-35326870D02*
X70270623Y-34326870D01*
X70556337Y-34326870D02*
X71223003Y-34326870D01*
X71223003Y-34326870D02*
X70794432Y-35326870D01*
X52306718Y-35279251D02*
X52449575Y-35326870D01*
X52449575Y-35326870D02*
X52687670Y-35326870D01*
X52687670Y-35326870D02*
X52782908Y-35279251D01*
X52782908Y-35279251D02*
X52830527Y-35231631D01*
X52830527Y-35231631D02*
X52878146Y-35136393D01*
X52878146Y-35136393D02*
X52878146Y-35041155D01*
X52878146Y-35041155D02*
X52830527Y-34945917D01*
X52830527Y-34945917D02*
X52782908Y-34898298D01*
X52782908Y-34898298D02*
X52687670Y-34850679D01*
X52687670Y-34850679D02*
X52497194Y-34803060D01*
X52497194Y-34803060D02*
X52401956Y-34755441D01*
X52401956Y-34755441D02*
X52354337Y-34707822D01*
X52354337Y-34707822D02*
X52306718Y-34612584D01*
X52306718Y-34612584D02*
X52306718Y-34517346D01*
X52306718Y-34517346D02*
X52354337Y-34422108D01*
X52354337Y-34422108D02*
X52401956Y-34374489D01*
X52401956Y-34374489D02*
X52497194Y-34326870D01*
X52497194Y-34326870D02*
X52735289Y-34326870D01*
X52735289Y-34326870D02*
X52878146Y-34374489D01*
X53211480Y-34326870D02*
X53449575Y-35326870D01*
X53449575Y-35326870D02*
X53640051Y-34612584D01*
X53640051Y-34612584D02*
X53830527Y-35326870D01*
X53830527Y-35326870D02*
X54068623Y-34326870D01*
X54878146Y-34326870D02*
X54687670Y-34326870D01*
X54687670Y-34326870D02*
X54592432Y-34374489D01*
X54592432Y-34374489D02*
X54544813Y-34422108D01*
X54544813Y-34422108D02*
X54449575Y-34564965D01*
X54449575Y-34564965D02*
X54401956Y-34755441D01*
X54401956Y-34755441D02*
X54401956Y-35136393D01*
X54401956Y-35136393D02*
X54449575Y-35231631D01*
X54449575Y-35231631D02*
X54497194Y-35279251D01*
X54497194Y-35279251D02*
X54592432Y-35326870D01*
X54592432Y-35326870D02*
X54782908Y-35326870D01*
X54782908Y-35326870D02*
X54878146Y-35279251D01*
X54878146Y-35279251D02*
X54925765Y-35231631D01*
X54925765Y-35231631D02*
X54973384Y-35136393D01*
X54973384Y-35136393D02*
X54973384Y-34898298D01*
X54973384Y-34898298D02*
X54925765Y-34803060D01*
X54925765Y-34803060D02*
X54878146Y-34755441D01*
X54878146Y-34755441D02*
X54782908Y-34707822D01*
X54782908Y-34707822D02*
X54592432Y-34707822D01*
X54592432Y-34707822D02*
X54497194Y-34755441D01*
X54497194Y-34755441D02*
X54449575Y-34803060D01*
X54449575Y-34803060D02*
X54401956Y-34898298D01*
X68508718Y-42331251D02*
X68651575Y-42378870D01*
X68651575Y-42378870D02*
X68889670Y-42378870D01*
X68889670Y-42378870D02*
X68984908Y-42331251D01*
X68984908Y-42331251D02*
X69032527Y-42283631D01*
X69032527Y-42283631D02*
X69080146Y-42188393D01*
X69080146Y-42188393D02*
X69080146Y-42093155D01*
X69080146Y-42093155D02*
X69032527Y-41997917D01*
X69032527Y-41997917D02*
X68984908Y-41950298D01*
X68984908Y-41950298D02*
X68889670Y-41902679D01*
X68889670Y-41902679D02*
X68699194Y-41855060D01*
X68699194Y-41855060D02*
X68603956Y-41807441D01*
X68603956Y-41807441D02*
X68556337Y-41759822D01*
X68556337Y-41759822D02*
X68508718Y-41664584D01*
X68508718Y-41664584D02*
X68508718Y-41569346D01*
X68508718Y-41569346D02*
X68556337Y-41474108D01*
X68556337Y-41474108D02*
X68603956Y-41426489D01*
X68603956Y-41426489D02*
X68699194Y-41378870D01*
X68699194Y-41378870D02*
X68937289Y-41378870D01*
X68937289Y-41378870D02*
X69080146Y-41426489D01*
X69413480Y-41378870D02*
X69651575Y-42378870D01*
X69651575Y-42378870D02*
X69842051Y-41664584D01*
X69842051Y-41664584D02*
X70032527Y-42378870D01*
X70032527Y-42378870D02*
X70270623Y-41378870D01*
X70603956Y-41474108D02*
X70651575Y-41426489D01*
X70651575Y-41426489D02*
X70746813Y-41378870D01*
X70746813Y-41378870D02*
X70984908Y-41378870D01*
X70984908Y-41378870D02*
X71080146Y-41426489D01*
X71080146Y-41426489D02*
X71127765Y-41474108D01*
X71127765Y-41474108D02*
X71175384Y-41569346D01*
X71175384Y-41569346D02*
X71175384Y-41664584D01*
X71175384Y-41664584D02*
X71127765Y-41807441D01*
X71127765Y-41807441D02*
X70556337Y-42378870D01*
X70556337Y-42378870D02*
X71175384Y-42378870D01*
X84288527Y-51231251D02*
X84431384Y-51278870D01*
X84431384Y-51278870D02*
X84669479Y-51278870D01*
X84669479Y-51278870D02*
X84764717Y-51231251D01*
X84764717Y-51231251D02*
X84812336Y-51183631D01*
X84812336Y-51183631D02*
X84859955Y-51088393D01*
X84859955Y-51088393D02*
X84859955Y-50993155D01*
X84859955Y-50993155D02*
X84812336Y-50897917D01*
X84812336Y-50897917D02*
X84764717Y-50850298D01*
X84764717Y-50850298D02*
X84669479Y-50802679D01*
X84669479Y-50802679D02*
X84479003Y-50755060D01*
X84479003Y-50755060D02*
X84383765Y-50707441D01*
X84383765Y-50707441D02*
X84336146Y-50659822D01*
X84336146Y-50659822D02*
X84288527Y-50564584D01*
X84288527Y-50564584D02*
X84288527Y-50469346D01*
X84288527Y-50469346D02*
X84336146Y-50374108D01*
X84336146Y-50374108D02*
X84383765Y-50326489D01*
X84383765Y-50326489D02*
X84479003Y-50278870D01*
X84479003Y-50278870D02*
X84717098Y-50278870D01*
X84717098Y-50278870D02*
X84859955Y-50326489D01*
X85193289Y-50278870D02*
X85431384Y-51278870D01*
X85431384Y-51278870D02*
X85621860Y-50564584D01*
X85621860Y-50564584D02*
X85812336Y-51278870D01*
X85812336Y-51278870D02*
X86050432Y-50278870D01*
X86955193Y-51278870D02*
X86383765Y-51278870D01*
X86669479Y-51278870D02*
X86669479Y-50278870D01*
X86669479Y-50278870D02*
X86574241Y-50421727D01*
X86574241Y-50421727D02*
X86479003Y-50516965D01*
X86479003Y-50516965D02*
X86383765Y-50564584D01*
X87812336Y-50612203D02*
X87812336Y-51278870D01*
X87574241Y-50231251D02*
X87336146Y-50945536D01*
X87336146Y-50945536D02*
X87955193Y-50945536D01*
X51830527Y-51231251D02*
X51973384Y-51278870D01*
X51973384Y-51278870D02*
X52211479Y-51278870D01*
X52211479Y-51278870D02*
X52306717Y-51231251D01*
X52306717Y-51231251D02*
X52354336Y-51183631D01*
X52354336Y-51183631D02*
X52401955Y-51088393D01*
X52401955Y-51088393D02*
X52401955Y-50993155D01*
X52401955Y-50993155D02*
X52354336Y-50897917D01*
X52354336Y-50897917D02*
X52306717Y-50850298D01*
X52306717Y-50850298D02*
X52211479Y-50802679D01*
X52211479Y-50802679D02*
X52021003Y-50755060D01*
X52021003Y-50755060D02*
X51925765Y-50707441D01*
X51925765Y-50707441D02*
X51878146Y-50659822D01*
X51878146Y-50659822D02*
X51830527Y-50564584D01*
X51830527Y-50564584D02*
X51830527Y-50469346D01*
X51830527Y-50469346D02*
X51878146Y-50374108D01*
X51878146Y-50374108D02*
X51925765Y-50326489D01*
X51925765Y-50326489D02*
X52021003Y-50278870D01*
X52021003Y-50278870D02*
X52259098Y-50278870D01*
X52259098Y-50278870D02*
X52401955Y-50326489D01*
X52735289Y-50278870D02*
X52973384Y-51278870D01*
X52973384Y-51278870D02*
X53163860Y-50564584D01*
X53163860Y-50564584D02*
X53354336Y-51278870D01*
X53354336Y-51278870D02*
X53592432Y-50278870D01*
X54497193Y-51278870D02*
X53925765Y-51278870D01*
X54211479Y-51278870D02*
X54211479Y-50278870D01*
X54211479Y-50278870D02*
X54116241Y-50421727D01*
X54116241Y-50421727D02*
X54021003Y-50516965D01*
X54021003Y-50516965D02*
X53925765Y-50564584D01*
X54878146Y-50374108D02*
X54925765Y-50326489D01*
X54925765Y-50326489D02*
X55021003Y-50278870D01*
X55021003Y-50278870D02*
X55259098Y-50278870D01*
X55259098Y-50278870D02*
X55354336Y-50326489D01*
X55354336Y-50326489D02*
X55401955Y-50374108D01*
X55401955Y-50374108D02*
X55449574Y-50469346D01*
X55449574Y-50469346D02*
X55449574Y-50564584D01*
X55449574Y-50564584D02*
X55401955Y-50707441D01*
X55401955Y-50707441D02*
X54830527Y-51278870D01*
X54830527Y-51278870D02*
X55449574Y-51278870D01*
X68032527Y-51231251D02*
X68175384Y-51278870D01*
X68175384Y-51278870D02*
X68413479Y-51278870D01*
X68413479Y-51278870D02*
X68508717Y-51231251D01*
X68508717Y-51231251D02*
X68556336Y-51183631D01*
X68556336Y-51183631D02*
X68603955Y-51088393D01*
X68603955Y-51088393D02*
X68603955Y-50993155D01*
X68603955Y-50993155D02*
X68556336Y-50897917D01*
X68556336Y-50897917D02*
X68508717Y-50850298D01*
X68508717Y-50850298D02*
X68413479Y-50802679D01*
X68413479Y-50802679D02*
X68223003Y-50755060D01*
X68223003Y-50755060D02*
X68127765Y-50707441D01*
X68127765Y-50707441D02*
X68080146Y-50659822D01*
X68080146Y-50659822D02*
X68032527Y-50564584D01*
X68032527Y-50564584D02*
X68032527Y-50469346D01*
X68032527Y-50469346D02*
X68080146Y-50374108D01*
X68080146Y-50374108D02*
X68127765Y-50326489D01*
X68127765Y-50326489D02*
X68223003Y-50278870D01*
X68223003Y-50278870D02*
X68461098Y-50278870D01*
X68461098Y-50278870D02*
X68603955Y-50326489D01*
X68937289Y-50278870D02*
X69175384Y-51278870D01*
X69175384Y-51278870D02*
X69365860Y-50564584D01*
X69365860Y-50564584D02*
X69556336Y-51278870D01*
X69556336Y-51278870D02*
X69794432Y-50278870D01*
X70699193Y-51278870D02*
X70127765Y-51278870D01*
X70413479Y-51278870D02*
X70413479Y-50278870D01*
X70413479Y-50278870D02*
X70318241Y-50421727D01*
X70318241Y-50421727D02*
X70223003Y-50516965D01*
X70223003Y-50516965D02*
X70127765Y-50564584D01*
X71032527Y-50278870D02*
X71651574Y-50278870D01*
X71651574Y-50278870D02*
X71318241Y-50659822D01*
X71318241Y-50659822D02*
X71461098Y-50659822D01*
X71461098Y-50659822D02*
X71556336Y-50707441D01*
X71556336Y-50707441D02*
X71603955Y-50755060D01*
X71603955Y-50755060D02*
X71651574Y-50850298D01*
X71651574Y-50850298D02*
X71651574Y-51088393D01*
X71651574Y-51088393D02*
X71603955Y-51183631D01*
X71603955Y-51183631D02*
X71556336Y-51231251D01*
X71556336Y-51231251D02*
X71461098Y-51278870D01*
X71461098Y-51278870D02*
X71175384Y-51278870D01*
X71175384Y-51278870D02*
X71080146Y-51231251D01*
X71080146Y-51231251D02*
X71032527Y-51183631D01*
X52306718Y-42931251D02*
X52449575Y-42978870D01*
X52449575Y-42978870D02*
X52687670Y-42978870D01*
X52687670Y-42978870D02*
X52782908Y-42931251D01*
X52782908Y-42931251D02*
X52830527Y-42883631D01*
X52830527Y-42883631D02*
X52878146Y-42788393D01*
X52878146Y-42788393D02*
X52878146Y-42693155D01*
X52878146Y-42693155D02*
X52830527Y-42597917D01*
X52830527Y-42597917D02*
X52782908Y-42550298D01*
X52782908Y-42550298D02*
X52687670Y-42502679D01*
X52687670Y-42502679D02*
X52497194Y-42455060D01*
X52497194Y-42455060D02*
X52401956Y-42407441D01*
X52401956Y-42407441D02*
X52354337Y-42359822D01*
X52354337Y-42359822D02*
X52306718Y-42264584D01*
X52306718Y-42264584D02*
X52306718Y-42169346D01*
X52306718Y-42169346D02*
X52354337Y-42074108D01*
X52354337Y-42074108D02*
X52401956Y-42026489D01*
X52401956Y-42026489D02*
X52497194Y-41978870D01*
X52497194Y-41978870D02*
X52735289Y-41978870D01*
X52735289Y-41978870D02*
X52878146Y-42026489D01*
X53211480Y-41978870D02*
X53449575Y-42978870D01*
X53449575Y-42978870D02*
X53640051Y-42264584D01*
X53640051Y-42264584D02*
X53830527Y-42978870D01*
X53830527Y-42978870D02*
X54068623Y-41978870D01*
X54973384Y-42978870D02*
X54401956Y-42978870D01*
X54687670Y-42978870D02*
X54687670Y-41978870D01*
X54687670Y-41978870D02*
X54592432Y-42121727D01*
X54592432Y-42121727D02*
X54497194Y-42216965D01*
X54497194Y-42216965D02*
X54401956Y-42264584D01*
X155742666Y-36389819D02*
X155742666Y-37104104D01*
X155742666Y-37104104D02*
X155695047Y-37246961D01*
X155695047Y-37246961D02*
X155599809Y-37342200D01*
X155599809Y-37342200D02*
X155456952Y-37389819D01*
X155456952Y-37389819D02*
X155361714Y-37389819D01*
X156218857Y-37389819D02*
X156218857Y-36389819D01*
X156218857Y-36389819D02*
X156599809Y-36389819D01*
X156599809Y-36389819D02*
X156695047Y-36437438D01*
X156695047Y-36437438D02*
X156742666Y-36485057D01*
X156742666Y-36485057D02*
X156790285Y-36580295D01*
X156790285Y-36580295D02*
X156790285Y-36723152D01*
X156790285Y-36723152D02*
X156742666Y-36818390D01*
X156742666Y-36818390D02*
X156695047Y-36866009D01*
X156695047Y-36866009D02*
X156599809Y-36913628D01*
X156599809Y-36913628D02*
X156218857Y-36913628D01*
X157123619Y-36389819D02*
X157742666Y-36389819D01*
X157742666Y-36389819D02*
X157409333Y-36770771D01*
X157409333Y-36770771D02*
X157552190Y-36770771D01*
X157552190Y-36770771D02*
X157647428Y-36818390D01*
X157647428Y-36818390D02*
X157695047Y-36866009D01*
X157695047Y-36866009D02*
X157742666Y-36961247D01*
X157742666Y-36961247D02*
X157742666Y-37199342D01*
X157742666Y-37199342D02*
X157695047Y-37294580D01*
X157695047Y-37294580D02*
X157647428Y-37342200D01*
X157647428Y-37342200D02*
X157552190Y-37389819D01*
X157552190Y-37389819D02*
X157266476Y-37389819D01*
X157266476Y-37389819D02*
X157171238Y-37342200D01*
X157171238Y-37342200D02*
X157123619Y-37294580D01*
X117276718Y-42331251D02*
X117419575Y-42378870D01*
X117419575Y-42378870D02*
X117657670Y-42378870D01*
X117657670Y-42378870D02*
X117752908Y-42331251D01*
X117752908Y-42331251D02*
X117800527Y-42283631D01*
X117800527Y-42283631D02*
X117848146Y-42188393D01*
X117848146Y-42188393D02*
X117848146Y-42093155D01*
X117848146Y-42093155D02*
X117800527Y-41997917D01*
X117800527Y-41997917D02*
X117752908Y-41950298D01*
X117752908Y-41950298D02*
X117657670Y-41902679D01*
X117657670Y-41902679D02*
X117467194Y-41855060D01*
X117467194Y-41855060D02*
X117371956Y-41807441D01*
X117371956Y-41807441D02*
X117324337Y-41759822D01*
X117324337Y-41759822D02*
X117276718Y-41664584D01*
X117276718Y-41664584D02*
X117276718Y-41569346D01*
X117276718Y-41569346D02*
X117324337Y-41474108D01*
X117324337Y-41474108D02*
X117371956Y-41426489D01*
X117371956Y-41426489D02*
X117467194Y-41378870D01*
X117467194Y-41378870D02*
X117705289Y-41378870D01*
X117705289Y-41378870D02*
X117848146Y-41426489D01*
X118181480Y-41378870D02*
X118419575Y-42378870D01*
X118419575Y-42378870D02*
X118610051Y-41664584D01*
X118610051Y-41664584D02*
X118800527Y-42378870D01*
X118800527Y-42378870D02*
X119038623Y-41378870D01*
X119895765Y-41378870D02*
X119419575Y-41378870D01*
X119419575Y-41378870D02*
X119371956Y-41855060D01*
X119371956Y-41855060D02*
X119419575Y-41807441D01*
X119419575Y-41807441D02*
X119514813Y-41759822D01*
X119514813Y-41759822D02*
X119752908Y-41759822D01*
X119752908Y-41759822D02*
X119848146Y-41807441D01*
X119848146Y-41807441D02*
X119895765Y-41855060D01*
X119895765Y-41855060D02*
X119943384Y-41950298D01*
X119943384Y-41950298D02*
X119943384Y-42188393D01*
X119943384Y-42188393D02*
X119895765Y-42283631D01*
X119895765Y-42283631D02*
X119848146Y-42331251D01*
X119848146Y-42331251D02*
X119752908Y-42378870D01*
X119752908Y-42378870D02*
X119514813Y-42378870D01*
X119514813Y-42378870D02*
X119419575Y-42331251D01*
X119419575Y-42331251D02*
X119371956Y-42283631D01*
X101020718Y-35279251D02*
X101163575Y-35326870D01*
X101163575Y-35326870D02*
X101401670Y-35326870D01*
X101401670Y-35326870D02*
X101496908Y-35279251D01*
X101496908Y-35279251D02*
X101544527Y-35231631D01*
X101544527Y-35231631D02*
X101592146Y-35136393D01*
X101592146Y-35136393D02*
X101592146Y-35041155D01*
X101592146Y-35041155D02*
X101544527Y-34945917D01*
X101544527Y-34945917D02*
X101496908Y-34898298D01*
X101496908Y-34898298D02*
X101401670Y-34850679D01*
X101401670Y-34850679D02*
X101211194Y-34803060D01*
X101211194Y-34803060D02*
X101115956Y-34755441D01*
X101115956Y-34755441D02*
X101068337Y-34707822D01*
X101068337Y-34707822D02*
X101020718Y-34612584D01*
X101020718Y-34612584D02*
X101020718Y-34517346D01*
X101020718Y-34517346D02*
X101068337Y-34422108D01*
X101068337Y-34422108D02*
X101115956Y-34374489D01*
X101115956Y-34374489D02*
X101211194Y-34326870D01*
X101211194Y-34326870D02*
X101449289Y-34326870D01*
X101449289Y-34326870D02*
X101592146Y-34374489D01*
X101925480Y-34326870D02*
X102163575Y-35326870D01*
X102163575Y-35326870D02*
X102354051Y-34612584D01*
X102354051Y-34612584D02*
X102544527Y-35326870D01*
X102544527Y-35326870D02*
X102782623Y-34326870D01*
X103211194Y-35326870D02*
X103401670Y-35326870D01*
X103401670Y-35326870D02*
X103496908Y-35279251D01*
X103496908Y-35279251D02*
X103544527Y-35231631D01*
X103544527Y-35231631D02*
X103639765Y-35088774D01*
X103639765Y-35088774D02*
X103687384Y-34898298D01*
X103687384Y-34898298D02*
X103687384Y-34517346D01*
X103687384Y-34517346D02*
X103639765Y-34422108D01*
X103639765Y-34422108D02*
X103592146Y-34374489D01*
X103592146Y-34374489D02*
X103496908Y-34326870D01*
X103496908Y-34326870D02*
X103306432Y-34326870D01*
X103306432Y-34326870D02*
X103211194Y-34374489D01*
X103211194Y-34374489D02*
X103163575Y-34422108D01*
X103163575Y-34422108D02*
X103115956Y-34517346D01*
X103115956Y-34517346D02*
X103115956Y-34755441D01*
X103115956Y-34755441D02*
X103163575Y-34850679D01*
X103163575Y-34850679D02*
X103211194Y-34898298D01*
X103211194Y-34898298D02*
X103306432Y-34945917D01*
X103306432Y-34945917D02*
X103496908Y-34945917D01*
X103496908Y-34945917D02*
X103592146Y-34898298D01*
X103592146Y-34898298D02*
X103639765Y-34850679D01*
X103639765Y-34850679D02*
X103687384Y-34755441D01*
X130372666Y-38338819D02*
X130372666Y-39053104D01*
X130372666Y-39053104D02*
X130325047Y-39195961D01*
X130325047Y-39195961D02*
X130229809Y-39291200D01*
X130229809Y-39291200D02*
X130086952Y-39338819D01*
X130086952Y-39338819D02*
X129991714Y-39338819D01*
X130848857Y-39338819D02*
X130848857Y-38338819D01*
X130848857Y-38338819D02*
X131229809Y-38338819D01*
X131229809Y-38338819D02*
X131325047Y-38386438D01*
X131325047Y-38386438D02*
X131372666Y-38434057D01*
X131372666Y-38434057D02*
X131420285Y-38529295D01*
X131420285Y-38529295D02*
X131420285Y-38672152D01*
X131420285Y-38672152D02*
X131372666Y-38767390D01*
X131372666Y-38767390D02*
X131325047Y-38815009D01*
X131325047Y-38815009D02*
X131229809Y-38862628D01*
X131229809Y-38862628D02*
X130848857Y-38862628D01*
X131801238Y-38434057D02*
X131848857Y-38386438D01*
X131848857Y-38386438D02*
X131944095Y-38338819D01*
X131944095Y-38338819D02*
X132182190Y-38338819D01*
X132182190Y-38338819D02*
X132277428Y-38386438D01*
X132277428Y-38386438D02*
X132325047Y-38434057D01*
X132325047Y-38434057D02*
X132372666Y-38529295D01*
X132372666Y-38529295D02*
X132372666Y-38624533D01*
X132372666Y-38624533D02*
X132325047Y-38767390D01*
X132325047Y-38767390D02*
X131753619Y-39338819D01*
X131753619Y-39338819D02*
X132372666Y-39338819D01*
X84764718Y-35279251D02*
X84907575Y-35326870D01*
X84907575Y-35326870D02*
X85145670Y-35326870D01*
X85145670Y-35326870D02*
X85240908Y-35279251D01*
X85240908Y-35279251D02*
X85288527Y-35231631D01*
X85288527Y-35231631D02*
X85336146Y-35136393D01*
X85336146Y-35136393D02*
X85336146Y-35041155D01*
X85336146Y-35041155D02*
X85288527Y-34945917D01*
X85288527Y-34945917D02*
X85240908Y-34898298D01*
X85240908Y-34898298D02*
X85145670Y-34850679D01*
X85145670Y-34850679D02*
X84955194Y-34803060D01*
X84955194Y-34803060D02*
X84859956Y-34755441D01*
X84859956Y-34755441D02*
X84812337Y-34707822D01*
X84812337Y-34707822D02*
X84764718Y-34612584D01*
X84764718Y-34612584D02*
X84764718Y-34517346D01*
X84764718Y-34517346D02*
X84812337Y-34422108D01*
X84812337Y-34422108D02*
X84859956Y-34374489D01*
X84859956Y-34374489D02*
X84955194Y-34326870D01*
X84955194Y-34326870D02*
X85193289Y-34326870D01*
X85193289Y-34326870D02*
X85336146Y-34374489D01*
X85669480Y-34326870D02*
X85907575Y-35326870D01*
X85907575Y-35326870D02*
X86098051Y-34612584D01*
X86098051Y-34612584D02*
X86288527Y-35326870D01*
X86288527Y-35326870D02*
X86526623Y-34326870D01*
X87050432Y-34755441D02*
X86955194Y-34707822D01*
X86955194Y-34707822D02*
X86907575Y-34660203D01*
X86907575Y-34660203D02*
X86859956Y-34564965D01*
X86859956Y-34564965D02*
X86859956Y-34517346D01*
X86859956Y-34517346D02*
X86907575Y-34422108D01*
X86907575Y-34422108D02*
X86955194Y-34374489D01*
X86955194Y-34374489D02*
X87050432Y-34326870D01*
X87050432Y-34326870D02*
X87240908Y-34326870D01*
X87240908Y-34326870D02*
X87336146Y-34374489D01*
X87336146Y-34374489D02*
X87383765Y-34422108D01*
X87383765Y-34422108D02*
X87431384Y-34517346D01*
X87431384Y-34517346D02*
X87431384Y-34564965D01*
X87431384Y-34564965D02*
X87383765Y-34660203D01*
X87383765Y-34660203D02*
X87336146Y-34707822D01*
X87336146Y-34707822D02*
X87240908Y-34755441D01*
X87240908Y-34755441D02*
X87050432Y-34755441D01*
X87050432Y-34755441D02*
X86955194Y-34803060D01*
X86955194Y-34803060D02*
X86907575Y-34850679D01*
X86907575Y-34850679D02*
X86859956Y-34945917D01*
X86859956Y-34945917D02*
X86859956Y-35136393D01*
X86859956Y-35136393D02*
X86907575Y-35231631D01*
X86907575Y-35231631D02*
X86955194Y-35279251D01*
X86955194Y-35279251D02*
X87050432Y-35326870D01*
X87050432Y-35326870D02*
X87240908Y-35326870D01*
X87240908Y-35326870D02*
X87336146Y-35279251D01*
X87336146Y-35279251D02*
X87383765Y-35231631D01*
X87383765Y-35231631D02*
X87431384Y-35136393D01*
X87431384Y-35136393D02*
X87431384Y-34945917D01*
X87431384Y-34945917D02*
X87383765Y-34850679D01*
X87383765Y-34850679D02*
X87336146Y-34803060D01*
X87336146Y-34803060D02*
X87240908Y-34755441D01*
X100544527Y-51231251D02*
X100687384Y-51278870D01*
X100687384Y-51278870D02*
X100925479Y-51278870D01*
X100925479Y-51278870D02*
X101020717Y-51231251D01*
X101020717Y-51231251D02*
X101068336Y-51183631D01*
X101068336Y-51183631D02*
X101115955Y-51088393D01*
X101115955Y-51088393D02*
X101115955Y-50993155D01*
X101115955Y-50993155D02*
X101068336Y-50897917D01*
X101068336Y-50897917D02*
X101020717Y-50850298D01*
X101020717Y-50850298D02*
X100925479Y-50802679D01*
X100925479Y-50802679D02*
X100735003Y-50755060D01*
X100735003Y-50755060D02*
X100639765Y-50707441D01*
X100639765Y-50707441D02*
X100592146Y-50659822D01*
X100592146Y-50659822D02*
X100544527Y-50564584D01*
X100544527Y-50564584D02*
X100544527Y-50469346D01*
X100544527Y-50469346D02*
X100592146Y-50374108D01*
X100592146Y-50374108D02*
X100639765Y-50326489D01*
X100639765Y-50326489D02*
X100735003Y-50278870D01*
X100735003Y-50278870D02*
X100973098Y-50278870D01*
X100973098Y-50278870D02*
X101115955Y-50326489D01*
X101449289Y-50278870D02*
X101687384Y-51278870D01*
X101687384Y-51278870D02*
X101877860Y-50564584D01*
X101877860Y-50564584D02*
X102068336Y-51278870D01*
X102068336Y-51278870D02*
X102306432Y-50278870D01*
X103211193Y-51278870D02*
X102639765Y-51278870D01*
X102925479Y-51278870D02*
X102925479Y-50278870D01*
X102925479Y-50278870D02*
X102830241Y-50421727D01*
X102830241Y-50421727D02*
X102735003Y-50516965D01*
X102735003Y-50516965D02*
X102639765Y-50564584D01*
X104115955Y-50278870D02*
X103639765Y-50278870D01*
X103639765Y-50278870D02*
X103592146Y-50755060D01*
X103592146Y-50755060D02*
X103639765Y-50707441D01*
X103639765Y-50707441D02*
X103735003Y-50659822D01*
X103735003Y-50659822D02*
X103973098Y-50659822D01*
X103973098Y-50659822D02*
X104068336Y-50707441D01*
X104068336Y-50707441D02*
X104115955Y-50755060D01*
X104115955Y-50755060D02*
X104163574Y-50850298D01*
X104163574Y-50850298D02*
X104163574Y-51088393D01*
X104163574Y-51088393D02*
X104115955Y-51183631D01*
X104115955Y-51183631D02*
X104068336Y-51231251D01*
X104068336Y-51231251D02*
X103973098Y-51278870D01*
X103973098Y-51278870D02*
X103735003Y-51278870D01*
X103735003Y-51278870D02*
X103639765Y-51231251D01*
X103639765Y-51231251D02*
X103592146Y-51183631D01*
X139383047Y-38427819D02*
X139049714Y-37951628D01*
X138811619Y-38427819D02*
X138811619Y-37427819D01*
X138811619Y-37427819D02*
X139192571Y-37427819D01*
X139192571Y-37427819D02*
X139287809Y-37475438D01*
X139287809Y-37475438D02*
X139335428Y-37523057D01*
X139335428Y-37523057D02*
X139383047Y-37618295D01*
X139383047Y-37618295D02*
X139383047Y-37761152D01*
X139383047Y-37761152D02*
X139335428Y-37856390D01*
X139335428Y-37856390D02*
X139287809Y-37904009D01*
X139287809Y-37904009D02*
X139192571Y-37951628D01*
X139192571Y-37951628D02*
X138811619Y-37951628D01*
X139811619Y-38427819D02*
X139811619Y-37427819D01*
X139811619Y-37427819D02*
X140192571Y-37427819D01*
X140192571Y-37427819D02*
X140287809Y-37475438D01*
X140287809Y-37475438D02*
X140335428Y-37523057D01*
X140335428Y-37523057D02*
X140383047Y-37618295D01*
X140383047Y-37618295D02*
X140383047Y-37761152D01*
X140383047Y-37761152D02*
X140335428Y-37856390D01*
X140335428Y-37856390D02*
X140287809Y-37904009D01*
X140287809Y-37904009D02*
X140192571Y-37951628D01*
X140192571Y-37951628D02*
X139811619Y-37951628D01*
X140764000Y-37523057D02*
X140811619Y-37475438D01*
X140811619Y-37475438D02*
X140906857Y-37427819D01*
X140906857Y-37427819D02*
X141144952Y-37427819D01*
X141144952Y-37427819D02*
X141240190Y-37475438D01*
X141240190Y-37475438D02*
X141287809Y-37523057D01*
X141287809Y-37523057D02*
X141335428Y-37618295D01*
X141335428Y-37618295D02*
X141335428Y-37713533D01*
X141335428Y-37713533D02*
X141287809Y-37856390D01*
X141287809Y-37856390D02*
X140716381Y-38427819D01*
X140716381Y-38427819D02*
X141335428Y-38427819D01*
X141954476Y-37427819D02*
X142049714Y-37427819D01*
X142049714Y-37427819D02*
X142144952Y-37475438D01*
X142144952Y-37475438D02*
X142192571Y-37523057D01*
X142192571Y-37523057D02*
X142240190Y-37618295D01*
X142240190Y-37618295D02*
X142287809Y-37808771D01*
X142287809Y-37808771D02*
X142287809Y-38046866D01*
X142287809Y-38046866D02*
X142240190Y-38237342D01*
X142240190Y-38237342D02*
X142192571Y-38332580D01*
X142192571Y-38332580D02*
X142144952Y-38380200D01*
X142144952Y-38380200D02*
X142049714Y-38427819D01*
X142049714Y-38427819D02*
X141954476Y-38427819D01*
X141954476Y-38427819D02*
X141859238Y-38380200D01*
X141859238Y-38380200D02*
X141811619Y-38332580D01*
X141811619Y-38332580D02*
X141764000Y-38237342D01*
X141764000Y-38237342D02*
X141716381Y-38046866D01*
X141716381Y-38046866D02*
X141716381Y-37808771D01*
X141716381Y-37808771D02*
X141764000Y-37618295D01*
X141764000Y-37618295D02*
X141811619Y-37523057D01*
X141811619Y-37523057D02*
X141859238Y-37475438D01*
X141859238Y-37475438D02*
X141954476Y-37427819D01*
X143144952Y-37761152D02*
X143144952Y-38427819D01*
X142906857Y-37380200D02*
X142668762Y-38094485D01*
X142668762Y-38094485D02*
X143287809Y-38094485D01*
X143859238Y-37427819D02*
X143954476Y-37427819D01*
X143954476Y-37427819D02*
X144049714Y-37475438D01*
X144049714Y-37475438D02*
X144097333Y-37523057D01*
X144097333Y-37523057D02*
X144144952Y-37618295D01*
X144144952Y-37618295D02*
X144192571Y-37808771D01*
X144192571Y-37808771D02*
X144192571Y-38046866D01*
X144192571Y-38046866D02*
X144144952Y-38237342D01*
X144144952Y-38237342D02*
X144097333Y-38332580D01*
X144097333Y-38332580D02*
X144049714Y-38380200D01*
X144049714Y-38380200D02*
X143954476Y-38427819D01*
X143954476Y-38427819D02*
X143859238Y-38427819D01*
X143859238Y-38427819D02*
X143764000Y-38380200D01*
X143764000Y-38380200D02*
X143716381Y-38332580D01*
X143716381Y-38332580D02*
X143668762Y-38237342D01*
X143668762Y-38237342D02*
X143621143Y-38046866D01*
X143621143Y-38046866D02*
X143621143Y-37808771D01*
X143621143Y-37808771D02*
X143668762Y-37618295D01*
X143668762Y-37618295D02*
X143716381Y-37523057D01*
X143716381Y-37523057D02*
X143764000Y-37475438D01*
X143764000Y-37475438D02*
X143859238Y-37427819D01*
X144621143Y-38046866D02*
X145383048Y-38046866D01*
X145764000Y-37427819D02*
X146430666Y-37427819D01*
X146430666Y-37427819D02*
X145764000Y-38427819D01*
X145764000Y-38427819D02*
X146430666Y-38427819D01*
X147192571Y-38380200D02*
X147097333Y-38427819D01*
X147097333Y-38427819D02*
X146906857Y-38427819D01*
X146906857Y-38427819D02*
X146811619Y-38380200D01*
X146811619Y-38380200D02*
X146764000Y-38284961D01*
X146764000Y-38284961D02*
X146764000Y-37904009D01*
X146764000Y-37904009D02*
X146811619Y-37808771D01*
X146811619Y-37808771D02*
X146906857Y-37761152D01*
X146906857Y-37761152D02*
X147097333Y-37761152D01*
X147097333Y-37761152D02*
X147192571Y-37808771D01*
X147192571Y-37808771D02*
X147240190Y-37904009D01*
X147240190Y-37904009D02*
X147240190Y-37999247D01*
X147240190Y-37999247D02*
X146764000Y-38094485D01*
X147668762Y-38427819D02*
X147668762Y-37761152D01*
X147668762Y-37951628D02*
X147716381Y-37856390D01*
X147716381Y-37856390D02*
X147764000Y-37808771D01*
X147764000Y-37808771D02*
X147859238Y-37761152D01*
X147859238Y-37761152D02*
X147954476Y-37761152D01*
X148430667Y-38427819D02*
X148335429Y-38380200D01*
X148335429Y-38380200D02*
X148287810Y-38332580D01*
X148287810Y-38332580D02*
X148240191Y-38237342D01*
X148240191Y-38237342D02*
X148240191Y-37951628D01*
X148240191Y-37951628D02*
X148287810Y-37856390D01*
X148287810Y-37856390D02*
X148335429Y-37808771D01*
X148335429Y-37808771D02*
X148430667Y-37761152D01*
X148430667Y-37761152D02*
X148573524Y-37761152D01*
X148573524Y-37761152D02*
X148668762Y-37808771D01*
X148668762Y-37808771D02*
X148716381Y-37856390D01*
X148716381Y-37856390D02*
X148764000Y-37951628D01*
X148764000Y-37951628D02*
X148764000Y-38237342D01*
X148764000Y-38237342D02*
X148716381Y-38332580D01*
X148716381Y-38332580D02*
X148668762Y-38380200D01*
X148668762Y-38380200D02*
X148573524Y-38427819D01*
X148573524Y-38427819D02*
X148430667Y-38427819D01*
X134961762Y-53286819D02*
X134961762Y-52286819D01*
X134961762Y-52286819D02*
X135533190Y-53286819D01*
X135533190Y-53286819D02*
X135533190Y-52286819D01*
X136580809Y-53286819D02*
X136247476Y-52810628D01*
X136009381Y-53286819D02*
X136009381Y-52286819D01*
X136009381Y-52286819D02*
X136390333Y-52286819D01*
X136390333Y-52286819D02*
X136485571Y-52334438D01*
X136485571Y-52334438D02*
X136533190Y-52382057D01*
X136533190Y-52382057D02*
X136580809Y-52477295D01*
X136580809Y-52477295D02*
X136580809Y-52620152D01*
X136580809Y-52620152D02*
X136533190Y-52715390D01*
X136533190Y-52715390D02*
X136485571Y-52763009D01*
X136485571Y-52763009D02*
X136390333Y-52810628D01*
X136390333Y-52810628D02*
X136009381Y-52810628D01*
X137342714Y-52763009D02*
X137009381Y-52763009D01*
X137009381Y-53286819D02*
X137009381Y-52286819D01*
X137009381Y-52286819D02*
X137485571Y-52286819D01*
X138342714Y-52286819D02*
X137866524Y-52286819D01*
X137866524Y-52286819D02*
X137818905Y-52763009D01*
X137818905Y-52763009D02*
X137866524Y-52715390D01*
X137866524Y-52715390D02*
X137961762Y-52667771D01*
X137961762Y-52667771D02*
X138199857Y-52667771D01*
X138199857Y-52667771D02*
X138295095Y-52715390D01*
X138295095Y-52715390D02*
X138342714Y-52763009D01*
X138342714Y-52763009D02*
X138390333Y-52858247D01*
X138390333Y-52858247D02*
X138390333Y-53096342D01*
X138390333Y-53096342D02*
X138342714Y-53191580D01*
X138342714Y-53191580D02*
X138295095Y-53239200D01*
X138295095Y-53239200D02*
X138199857Y-53286819D01*
X138199857Y-53286819D02*
X137961762Y-53286819D01*
X137961762Y-53286819D02*
X137866524Y-53239200D01*
X137866524Y-53239200D02*
X137818905Y-53191580D01*
X138771286Y-52382057D02*
X138818905Y-52334438D01*
X138818905Y-52334438D02*
X138914143Y-52286819D01*
X138914143Y-52286819D02*
X139152238Y-52286819D01*
X139152238Y-52286819D02*
X139247476Y-52334438D01*
X139247476Y-52334438D02*
X139295095Y-52382057D01*
X139295095Y-52382057D02*
X139342714Y-52477295D01*
X139342714Y-52477295D02*
X139342714Y-52572533D01*
X139342714Y-52572533D02*
X139295095Y-52715390D01*
X139295095Y-52715390D02*
X138723667Y-53286819D01*
X138723667Y-53286819D02*
X139342714Y-53286819D01*
X139914143Y-52715390D02*
X139818905Y-52667771D01*
X139818905Y-52667771D02*
X139771286Y-52620152D01*
X139771286Y-52620152D02*
X139723667Y-52524914D01*
X139723667Y-52524914D02*
X139723667Y-52477295D01*
X139723667Y-52477295D02*
X139771286Y-52382057D01*
X139771286Y-52382057D02*
X139818905Y-52334438D01*
X139818905Y-52334438D02*
X139914143Y-52286819D01*
X139914143Y-52286819D02*
X140104619Y-52286819D01*
X140104619Y-52286819D02*
X140199857Y-52334438D01*
X140199857Y-52334438D02*
X140247476Y-52382057D01*
X140247476Y-52382057D02*
X140295095Y-52477295D01*
X140295095Y-52477295D02*
X140295095Y-52524914D01*
X140295095Y-52524914D02*
X140247476Y-52620152D01*
X140247476Y-52620152D02*
X140199857Y-52667771D01*
X140199857Y-52667771D02*
X140104619Y-52715390D01*
X140104619Y-52715390D02*
X139914143Y-52715390D01*
X139914143Y-52715390D02*
X139818905Y-52763009D01*
X139818905Y-52763009D02*
X139771286Y-52810628D01*
X139771286Y-52810628D02*
X139723667Y-52905866D01*
X139723667Y-52905866D02*
X139723667Y-53096342D01*
X139723667Y-53096342D02*
X139771286Y-53191580D01*
X139771286Y-53191580D02*
X139818905Y-53239200D01*
X139818905Y-53239200D02*
X139914143Y-53286819D01*
X139914143Y-53286819D02*
X140104619Y-53286819D01*
X140104619Y-53286819D02*
X140199857Y-53239200D01*
X140199857Y-53239200D02*
X140247476Y-53191580D01*
X140247476Y-53191580D02*
X140295095Y-53096342D01*
X140295095Y-53096342D02*
X140295095Y-52905866D01*
X140295095Y-52905866D02*
X140247476Y-52810628D01*
X140247476Y-52810628D02*
X140199857Y-52763009D01*
X140199857Y-52763009D02*
X140104619Y-52715390D01*
X141152238Y-52620152D02*
X141152238Y-53286819D01*
X140914143Y-52239200D02*
X140676048Y-52953485D01*
X140676048Y-52953485D02*
X141295095Y-52953485D01*
X141866524Y-52286819D02*
X141961762Y-52286819D01*
X141961762Y-52286819D02*
X142057000Y-52334438D01*
X142057000Y-52334438D02*
X142104619Y-52382057D01*
X142104619Y-52382057D02*
X142152238Y-52477295D01*
X142152238Y-52477295D02*
X142199857Y-52667771D01*
X142199857Y-52667771D02*
X142199857Y-52905866D01*
X142199857Y-52905866D02*
X142152238Y-53096342D01*
X142152238Y-53096342D02*
X142104619Y-53191580D01*
X142104619Y-53191580D02*
X142057000Y-53239200D01*
X142057000Y-53239200D02*
X141961762Y-53286819D01*
X141961762Y-53286819D02*
X141866524Y-53286819D01*
X141866524Y-53286819D02*
X141771286Y-53239200D01*
X141771286Y-53239200D02*
X141723667Y-53191580D01*
X141723667Y-53191580D02*
X141676048Y-53096342D01*
X141676048Y-53096342D02*
X141628429Y-52905866D01*
X141628429Y-52905866D02*
X141628429Y-52667771D01*
X141628429Y-52667771D02*
X141676048Y-52477295D01*
X141676048Y-52477295D02*
X141723667Y-52382057D01*
X141723667Y-52382057D02*
X141771286Y-52334438D01*
X141771286Y-52334438D02*
X141866524Y-52286819D01*
D10*
X157395575Y-55818434D02*
X157395575Y-55247006D01*
X157395575Y-55532720D02*
X158395575Y-55532720D01*
X158395575Y-55532720D02*
X158252718Y-55437482D01*
X158252718Y-55437482D02*
X158157480Y-55342244D01*
X158157480Y-55342244D02*
X158109861Y-55247006D01*
D15*
%TO.C,U14*%
X116547067Y-24637997D02*
G75*
G02*
X116293065Y-24637997I-127001J0D01*
G01*
X116293065Y-24637997D02*
G75*
G02*
X116547067Y-24637997I127001J0D01*
G01*
D16*
X116859030Y-24762025D02*
G75*
G02*
X116799034Y-24762025I-29998J0D01*
G01*
X116799034Y-24762025D02*
G75*
G02*
X116859030Y-24762025I29998J0D01*
G01*
D15*
X119340945Y-26162000D02*
G75*
G02*
X117816941Y-26162000I-762002J0D01*
G01*
X117816941Y-26162000D02*
G75*
G02*
X119340945Y-26162000I762002J0D01*
G01*
X116801066Y-24762076D02*
X116801066Y-24762076D01*
X116979019Y-24762076D02*
X116801066Y-24762076D01*
X116979019Y-24762076D02*
X120179070Y-24762076D01*
X118198044Y-25908050D02*
X118452044Y-25908050D01*
X118198044Y-26416051D02*
X118452044Y-26416051D01*
X118706045Y-26416051D02*
X118960045Y-26416051D01*
X120179070Y-27562025D02*
X116979019Y-27562025D01*
%TO.C,U13*%
X103936570Y-27562025D02*
X100736519Y-27562025D01*
X102463545Y-26416051D02*
X102717545Y-26416051D01*
X101955544Y-26416051D02*
X102209544Y-26416051D01*
X101955544Y-25908050D02*
X102209544Y-25908050D01*
X100736519Y-24762076D02*
X103936570Y-24762076D01*
X100736519Y-24762076D02*
X100558566Y-24762076D01*
X100558566Y-24762076D02*
X100558566Y-24762076D01*
X103098445Y-26162000D02*
G75*
G02*
X101574441Y-26162000I-762002J0D01*
G01*
X101574441Y-26162000D02*
G75*
G02*
X103098445Y-26162000I762002J0D01*
G01*
D16*
X100616530Y-24762025D02*
G75*
G02*
X100556534Y-24762025I-29998J0D01*
G01*
X100556534Y-24762025D02*
G75*
G02*
X100616530Y-24762025I29998J0D01*
G01*
D15*
X100304567Y-24637997D02*
G75*
G02*
X100050565Y-24637997I-127001J0D01*
G01*
X100050565Y-24637997D02*
G75*
G02*
X100304567Y-24637997I127001J0D01*
G01*
%TO.C,U12*%
X87694070Y-27562025D02*
X84494019Y-27562025D01*
X86221045Y-26416051D02*
X86475045Y-26416051D01*
X85713044Y-26416051D02*
X85967044Y-26416051D01*
X85713044Y-25908050D02*
X85967044Y-25908050D01*
X84494019Y-24762076D02*
X87694070Y-24762076D01*
X84494019Y-24762076D02*
X84316066Y-24762076D01*
X84316066Y-24762076D02*
X84316066Y-24762076D01*
X86855945Y-26162000D02*
G75*
G02*
X85331941Y-26162000I-762002J0D01*
G01*
X85331941Y-26162000D02*
G75*
G02*
X86855945Y-26162000I762002J0D01*
G01*
D16*
X84374030Y-24762025D02*
G75*
G02*
X84314034Y-24762025I-29998J0D01*
G01*
X84314034Y-24762025D02*
G75*
G02*
X84374030Y-24762025I29998J0D01*
G01*
D15*
X84062067Y-24637997D02*
G75*
G02*
X83808065Y-24637997I-127001J0D01*
G01*
X83808065Y-24637997D02*
G75*
G02*
X84062067Y-24637997I127001J0D01*
G01*
%TO.C,U11*%
X71451570Y-27562025D02*
X68251519Y-27562025D01*
X69978545Y-26416051D02*
X70232545Y-26416051D01*
X69470544Y-26416051D02*
X69724544Y-26416051D01*
X69470544Y-25908050D02*
X69724544Y-25908050D01*
X68251519Y-24762076D02*
X71451570Y-24762076D01*
X68251519Y-24762076D02*
X68073566Y-24762076D01*
X68073566Y-24762076D02*
X68073566Y-24762076D01*
X70613445Y-26162000D02*
G75*
G02*
X69089441Y-26162000I-762002J0D01*
G01*
X69089441Y-26162000D02*
G75*
G02*
X70613445Y-26162000I762002J0D01*
G01*
D16*
X68131530Y-24762025D02*
G75*
G02*
X68071534Y-24762025I-29998J0D01*
G01*
X68071534Y-24762025D02*
G75*
G02*
X68131530Y-24762025I29998J0D01*
G01*
D15*
X67819567Y-24637997D02*
G75*
G02*
X67565565Y-24637997I-127001J0D01*
G01*
X67565565Y-24637997D02*
G75*
G02*
X67819567Y-24637997I127001J0D01*
G01*
%TO.C,U10*%
X55209070Y-27562025D02*
X52009019Y-27562025D01*
X53736045Y-26416051D02*
X53990045Y-26416051D01*
X53228044Y-26416051D02*
X53482044Y-26416051D01*
X53228044Y-25908050D02*
X53482044Y-25908050D01*
X52009019Y-24762076D02*
X55209070Y-24762076D01*
X52009019Y-24762076D02*
X51831066Y-24762076D01*
X51831066Y-24762076D02*
X51831066Y-24762076D01*
X54370945Y-26162000D02*
G75*
G02*
X52846941Y-26162000I-762002J0D01*
G01*
X52846941Y-26162000D02*
G75*
G02*
X54370945Y-26162000I762002J0D01*
G01*
D16*
X51889030Y-24762025D02*
G75*
G02*
X51829034Y-24762025I-29998J0D01*
G01*
X51829034Y-24762025D02*
G75*
G02*
X51889030Y-24762025I29998J0D01*
G01*
D15*
X51577067Y-24637997D02*
G75*
G02*
X51323065Y-24637997I-127001J0D01*
G01*
X51323065Y-24637997D02*
G75*
G02*
X51577067Y-24637997I127001J0D01*
G01*
%TO.C,U9*%
X45596025Y-31019949D02*
X45596025Y-34220000D01*
X44450051Y-32492974D02*
X44450051Y-32238974D01*
X44450051Y-33000975D02*
X44450051Y-32746975D01*
X43942050Y-33000975D02*
X43942050Y-32746975D01*
X42796076Y-34220000D02*
X42796076Y-31019949D01*
X42796076Y-34220000D02*
X42796076Y-34397953D01*
X42796076Y-34397953D02*
X42796076Y-34397953D01*
X44958002Y-32620076D02*
G75*
G02*
X43433998Y-32620076I-762002J0D01*
G01*
X43433998Y-32620076D02*
G75*
G02*
X44958002Y-32620076I762002J0D01*
G01*
D16*
X42826023Y-34369987D02*
G75*
G02*
X42766027Y-34369987I-29998J0D01*
G01*
X42766027Y-34369987D02*
G75*
G02*
X42826023Y-34369987I29998J0D01*
G01*
D15*
X42798998Y-34778953D02*
G75*
G02*
X42544996Y-34778953I-127001J0D01*
G01*
X42544996Y-34778953D02*
G75*
G02*
X42798998Y-34778953I127001J0D01*
G01*
%TO.C,U8*%
X45596025Y-40925949D02*
X45596025Y-44126000D01*
X44450051Y-42398974D02*
X44450051Y-42144974D01*
X44450051Y-42906975D02*
X44450051Y-42652975D01*
X43942050Y-42906975D02*
X43942050Y-42652975D01*
X42796076Y-44126000D02*
X42796076Y-40925949D01*
X42796076Y-44126000D02*
X42796076Y-44303953D01*
X42796076Y-44303953D02*
X42796076Y-44303953D01*
X44958002Y-42526076D02*
G75*
G02*
X43433998Y-42526076I-762002J0D01*
G01*
X43433998Y-42526076D02*
G75*
G02*
X44958002Y-42526076I762002J0D01*
G01*
D16*
X42826023Y-44275987D02*
G75*
G02*
X42766027Y-44275987I-29998J0D01*
G01*
X42766027Y-44275987D02*
G75*
G02*
X42826023Y-44275987I29998J0D01*
G01*
D15*
X42798998Y-44684953D02*
G75*
G02*
X42544996Y-44684953I-127001J0D01*
G01*
X42544996Y-44684953D02*
G75*
G02*
X42798998Y-44684953I127001J0D01*
G01*
%TO.C,U7*%
X45596025Y-50831949D02*
X45596025Y-54032000D01*
X44450051Y-52304974D02*
X44450051Y-52050974D01*
X44450051Y-52812975D02*
X44450051Y-52558975D01*
X43942050Y-52812975D02*
X43942050Y-52558975D01*
X42796076Y-54032000D02*
X42796076Y-50831949D01*
X42796076Y-54032000D02*
X42796076Y-54209953D01*
X42796076Y-54209953D02*
X42796076Y-54209953D01*
X44958002Y-52432076D02*
G75*
G02*
X43433998Y-52432076I-762002J0D01*
G01*
X43433998Y-52432076D02*
G75*
G02*
X44958002Y-52432076I762002J0D01*
G01*
D16*
X42826023Y-54181987D02*
G75*
G02*
X42766027Y-54181987I-29998J0D01*
G01*
X42766027Y-54181987D02*
G75*
G02*
X42826023Y-54181987I29998J0D01*
G01*
D15*
X42798998Y-54590953D02*
G75*
G02*
X42544996Y-54590953I-127001J0D01*
G01*
X42544996Y-54590953D02*
G75*
G02*
X42798998Y-54590953I127001J0D01*
G01*
%TO.C,U6*%
X52071033Y-57508924D02*
X55271084Y-57508924D01*
X53544058Y-58654898D02*
X53290058Y-58654898D01*
X54052059Y-58654898D02*
X53798059Y-58654898D01*
X54052059Y-59162899D02*
X53798059Y-59162899D01*
X55271084Y-60308873D02*
X52071033Y-60308873D01*
X55271084Y-60308873D02*
X55449037Y-60308873D01*
X55449037Y-60308873D02*
X55449037Y-60308873D01*
X54433162Y-58908949D02*
G75*
G02*
X52909158Y-58908949I-762002J0D01*
G01*
X52909158Y-58908949D02*
G75*
G02*
X54433162Y-58908949I762002J0D01*
G01*
D16*
X55451069Y-60308924D02*
G75*
G02*
X55391073Y-60308924I-29998J0D01*
G01*
X55391073Y-60308924D02*
G75*
G02*
X55451069Y-60308924I29998J0D01*
G01*
D15*
X55957038Y-60432952D02*
G75*
G02*
X55703036Y-60432952I-127001J0D01*
G01*
X55703036Y-60432952D02*
G75*
G02*
X55957038Y-60432952I127001J0D01*
G01*
%TO.C,U5*%
X68313533Y-57508924D02*
X71513584Y-57508924D01*
X69786558Y-58654898D02*
X69532558Y-58654898D01*
X70294559Y-58654898D02*
X70040559Y-58654898D01*
X70294559Y-59162899D02*
X70040559Y-59162899D01*
X71513584Y-60308873D02*
X68313533Y-60308873D01*
X71513584Y-60308873D02*
X71691537Y-60308873D01*
X71691537Y-60308873D02*
X71691537Y-60308873D01*
X70675662Y-58908949D02*
G75*
G02*
X69151658Y-58908949I-762002J0D01*
G01*
X69151658Y-58908949D02*
G75*
G02*
X70675662Y-58908949I762002J0D01*
G01*
D16*
X71693569Y-60308924D02*
G75*
G02*
X71633573Y-60308924I-29998J0D01*
G01*
X71633573Y-60308924D02*
G75*
G02*
X71693569Y-60308924I29998J0D01*
G01*
D15*
X72199538Y-60432952D02*
G75*
G02*
X71945536Y-60432952I-127001J0D01*
G01*
X71945536Y-60432952D02*
G75*
G02*
X72199538Y-60432952I127001J0D01*
G01*
%TO.C,U4*%
X84556033Y-57508924D02*
X87756084Y-57508924D01*
X86029058Y-58654898D02*
X85775058Y-58654898D01*
X86537059Y-58654898D02*
X86283059Y-58654898D01*
X86537059Y-59162899D02*
X86283059Y-59162899D01*
X87756084Y-60308873D02*
X84556033Y-60308873D01*
X87756084Y-60308873D02*
X87934037Y-60308873D01*
X87934037Y-60308873D02*
X87934037Y-60308873D01*
X86918162Y-58908949D02*
G75*
G02*
X85394158Y-58908949I-762002J0D01*
G01*
X85394158Y-58908949D02*
G75*
G02*
X86918162Y-58908949I762002J0D01*
G01*
D16*
X87936069Y-60308924D02*
G75*
G02*
X87876073Y-60308924I-29998J0D01*
G01*
X87876073Y-60308924D02*
G75*
G02*
X87936069Y-60308924I29998J0D01*
G01*
D15*
X88442038Y-60432952D02*
G75*
G02*
X88188036Y-60432952I-127001J0D01*
G01*
X88188036Y-60432952D02*
G75*
G02*
X88442038Y-60432952I127001J0D01*
G01*
%TO.C,U3*%
X100798533Y-57508924D02*
X103998584Y-57508924D01*
X102271558Y-58654898D02*
X102017558Y-58654898D01*
X102779559Y-58654898D02*
X102525559Y-58654898D01*
X102779559Y-59162899D02*
X102525559Y-59162899D01*
X103998584Y-60308873D02*
X100798533Y-60308873D01*
X103998584Y-60308873D02*
X104176537Y-60308873D01*
X104176537Y-60308873D02*
X104176537Y-60308873D01*
X103160662Y-58908949D02*
G75*
G02*
X101636658Y-58908949I-762002J0D01*
G01*
X101636658Y-58908949D02*
G75*
G02*
X103160662Y-58908949I762002J0D01*
G01*
D16*
X104178569Y-60308924D02*
G75*
G02*
X104118573Y-60308924I-29998J0D01*
G01*
X104118573Y-60308924D02*
G75*
G02*
X104178569Y-60308924I29998J0D01*
G01*
D15*
X104684538Y-60432952D02*
G75*
G02*
X104430536Y-60432952I-127001J0D01*
G01*
X104430536Y-60432952D02*
G75*
G02*
X104684538Y-60432952I127001J0D01*
G01*
%TO.C,U2*%
X117041033Y-57508924D02*
X120241084Y-57508924D01*
X118514058Y-58654898D02*
X118260058Y-58654898D01*
X119022059Y-58654898D02*
X118768059Y-58654898D01*
X119022059Y-59162899D02*
X118768059Y-59162899D01*
X120241084Y-60308873D02*
X117041033Y-60308873D01*
X120241084Y-60308873D02*
X120419037Y-60308873D01*
X120419037Y-60308873D02*
X120419037Y-60308873D01*
X119403162Y-58908949D02*
G75*
G02*
X117879158Y-58908949I-762002J0D01*
G01*
X117879158Y-58908949D02*
G75*
G02*
X119403162Y-58908949I762002J0D01*
G01*
D16*
X120421069Y-60308924D02*
G75*
G02*
X120361073Y-60308924I-29998J0D01*
G01*
X120361073Y-60308924D02*
G75*
G02*
X120421069Y-60308924I29998J0D01*
G01*
D15*
X120927038Y-60432952D02*
G75*
G02*
X120673036Y-60432952I-127001J0D01*
G01*
X120673036Y-60432952D02*
G75*
G02*
X120927038Y-60432952I127001J0D01*
G01*
D17*
%TO.C,SW10*%
X112500051Y-28762051D02*
X112500051Y-30272051D01*
X112500051Y-28762051D02*
X124720051Y-28762051D01*
X112500051Y-39472051D02*
X112500051Y-40982051D01*
X124720051Y-28762051D02*
X124720051Y-30272051D01*
X124720051Y-39472051D02*
X124720051Y-40982051D01*
X124720051Y-40982051D02*
X112500051Y-40982051D01*
%TO.C,SW4*%
X96244051Y-44114051D02*
X96244051Y-45624051D01*
X96244051Y-44114051D02*
X108464051Y-44114051D01*
X96244051Y-54824051D02*
X96244051Y-56334051D01*
X108464051Y-44114051D02*
X108464051Y-45624051D01*
X108464051Y-54824051D02*
X108464051Y-56334051D01*
X108464051Y-56334051D02*
X96244051Y-56334051D01*
%TO.C,SW16*%
X112500051Y-36414051D02*
X124720051Y-36414051D01*
X112500051Y-37924051D02*
X112500051Y-36414051D01*
X112500051Y-48634051D02*
X112500051Y-47124051D01*
X124720051Y-37924051D02*
X124720051Y-36414051D01*
X124720051Y-48634051D02*
X112500051Y-48634051D01*
X124720051Y-48634051D02*
X124720051Y-47124051D01*
D15*
%TO.C,SW11*%
X158497495Y-28568064D02*
X158497495Y-29784142D01*
X158497495Y-28568064D02*
X161997495Y-28568064D01*
X158497495Y-31371950D02*
X158497495Y-32324147D01*
X158497495Y-33911955D02*
X158497495Y-34864152D01*
X158497495Y-36451960D02*
X158497495Y-37668038D01*
X161997495Y-28568064D02*
X161997495Y-37668038D01*
X161997495Y-31368064D02*
X161997495Y-31378910D01*
X161997495Y-32868064D02*
X161997495Y-32888562D01*
X161997495Y-37668038D02*
X158497495Y-37668038D01*
X165022971Y-31368064D02*
X161997495Y-31368064D01*
X165022971Y-31368064D02*
X165022971Y-32868064D01*
X165022971Y-32868064D02*
X161997495Y-32868064D01*
D16*
X156353578Y-28570604D02*
G75*
G02*
X156293584Y-28570604I-29997J0D01*
G01*
X156293584Y-28570604D02*
G75*
G02*
X156353578Y-28570604I29997J0D01*
G01*
D17*
%TO.C,JP1*%
X156842000Y-27605000D02*
X156842000Y-27005000D01*
X157542000Y-26305000D02*
X158942000Y-26305000D01*
X158942000Y-28305000D02*
X157542000Y-28305000D01*
X159642000Y-27005000D02*
X159642000Y-27605000D01*
X156842000Y-27005000D02*
G75*
G02*
X157542000Y-26305000I700000J0D01*
G01*
X157542000Y-28305000D02*
G75*
G02*
X156842000Y-27605000I0J700000D01*
G01*
X158942000Y-26305000D02*
G75*
G02*
X159642000Y-27005000I1J-699999D01*
G01*
X159642000Y-27605000D02*
G75*
G02*
X158942000Y-28305000I-699999J-1D01*
G01*
%TO.C,SW3*%
X79988051Y-44114051D02*
X79988051Y-45624051D01*
X79988051Y-44114051D02*
X92208051Y-44114051D01*
X79988051Y-54824051D02*
X79988051Y-56334051D01*
X92208051Y-44114051D02*
X92208051Y-45624051D01*
X92208051Y-54824051D02*
X92208051Y-56334051D01*
X92208051Y-56334051D02*
X79988051Y-56334051D01*
%TO.C,SW7*%
X63732051Y-28762051D02*
X63732051Y-30272051D01*
X63732051Y-28762051D02*
X75952051Y-28762051D01*
X63732051Y-39472051D02*
X63732051Y-40982051D01*
X75952051Y-28762051D02*
X75952051Y-30272051D01*
X75952051Y-39472051D02*
X75952051Y-40982051D01*
X75952051Y-40982051D02*
X63732051Y-40982051D01*
%TO.C,SW6*%
X47530051Y-28762051D02*
X47530051Y-30272051D01*
X47530051Y-28762051D02*
X59750051Y-28762051D01*
X47530051Y-39472051D02*
X47530051Y-40982051D01*
X59750051Y-28762051D02*
X59750051Y-30272051D01*
X59750051Y-39472051D02*
X59750051Y-40982051D01*
X59750051Y-40982051D02*
X47530051Y-40982051D01*
%TO.C,SW2*%
X63732051Y-44114051D02*
X63732051Y-45624051D01*
X63732051Y-44114051D02*
X75952051Y-44114051D01*
X63732051Y-54824051D02*
X63732051Y-56334051D01*
X75952051Y-44114051D02*
X75952051Y-45624051D01*
X75952051Y-54824051D02*
X75952051Y-56334051D01*
X75952051Y-56334051D02*
X63732051Y-56334051D01*
%TO.C,SW14*%
X79988051Y-36414051D02*
X92208051Y-36414051D01*
X79988051Y-37924051D02*
X79988051Y-36414051D01*
X79988051Y-48634051D02*
X79988051Y-47124051D01*
X92208051Y-37924051D02*
X92208051Y-36414051D01*
X92208051Y-48634051D02*
X79988051Y-48634051D01*
X92208051Y-48634051D02*
X92208051Y-47124051D01*
%TO.C,SW12*%
X47530051Y-36414051D02*
X59750051Y-36414051D01*
X47530051Y-37924051D02*
X47530051Y-36414051D01*
X47530051Y-48634051D02*
X47530051Y-47124051D01*
X59750051Y-37924051D02*
X59750051Y-36414051D01*
X59750051Y-48634051D02*
X47530051Y-48634051D01*
X59750051Y-48634051D02*
X59750051Y-47124051D01*
%TO.C,SW13*%
X63732051Y-36414051D02*
X75952051Y-36414051D01*
X63732051Y-37924051D02*
X63732051Y-36414051D01*
X63732051Y-48634051D02*
X63732051Y-47124051D01*
X75952051Y-37924051D02*
X75952051Y-36414051D01*
X75952051Y-48634051D02*
X63732051Y-48634051D01*
X75952051Y-48634051D02*
X75952051Y-47124051D01*
%TO.C,SW1*%
X47530051Y-44114051D02*
X47530051Y-45624051D01*
X47530051Y-44114051D02*
X59750051Y-44114051D01*
X47530051Y-54824051D02*
X47530051Y-56334051D01*
X59750051Y-44114051D02*
X59750051Y-45624051D01*
X59750051Y-54824051D02*
X59750051Y-56334051D01*
X59750051Y-56334051D02*
X47530051Y-56334051D01*
%TO.C,JP3*%
X155176000Y-39035000D02*
X155176000Y-38435000D01*
X155876000Y-37735000D02*
X157276000Y-37735000D01*
X157276000Y-39735000D02*
X155876000Y-39735000D01*
X157976000Y-38435000D02*
X157976000Y-39035000D01*
X155176000Y-38435000D02*
G75*
G02*
X155876000Y-37735000I699999J1D01*
G01*
X155876000Y-39735000D02*
G75*
G02*
X155176000Y-39035000I-1J699999D01*
G01*
X157276000Y-37735000D02*
G75*
G02*
X157976000Y-38435000I0J-700000D01*
G01*
X157976000Y-39035000D02*
G75*
G02*
X157276000Y-39735000I-700000J0D01*
G01*
%TO.C,SW5*%
X112500051Y-44114051D02*
X112500051Y-45624051D01*
X112500051Y-44114051D02*
X124720051Y-44114051D01*
X112500051Y-54824051D02*
X112500051Y-56334051D01*
X124720051Y-44114051D02*
X124720051Y-45624051D01*
X124720051Y-54824051D02*
X124720051Y-56334051D01*
X124720051Y-56334051D02*
X112500051Y-56334051D01*
%TO.C,SW9*%
X96244051Y-28762051D02*
X96244051Y-30272051D01*
X96244051Y-28762051D02*
X108464051Y-28762051D01*
X96244051Y-39472051D02*
X96244051Y-40982051D01*
X108464051Y-28762051D02*
X108464051Y-30272051D01*
X108464051Y-39472051D02*
X108464051Y-40982051D01*
X108464051Y-40982051D02*
X96244051Y-40982051D01*
%TO.C,JP2*%
X129806000Y-37384000D02*
X129806000Y-36784000D01*
X130506000Y-36084000D02*
X131906000Y-36084000D01*
X131906000Y-38084000D02*
X130506000Y-38084000D01*
X132606000Y-36784000D02*
X132606000Y-37384000D01*
X129806000Y-36784000D02*
G75*
G02*
X130506000Y-36084000I700000J0D01*
G01*
X130506000Y-38084000D02*
G75*
G02*
X129806000Y-37384000I0J700000D01*
G01*
X131906000Y-36084000D02*
G75*
G02*
X132606000Y-36784000I1J-699999D01*
G01*
X132606000Y-37384000D02*
G75*
G02*
X131906000Y-38084000I-699999J-1D01*
G01*
%TO.C,SW8*%
X79988051Y-28762051D02*
X79988051Y-30272051D01*
X79988051Y-28762051D02*
X92208051Y-28762051D01*
X79988051Y-39472051D02*
X79988051Y-40982051D01*
X92208051Y-28762051D02*
X92208051Y-30272051D01*
X92208051Y-39472051D02*
X92208051Y-40982051D01*
X92208051Y-40982051D02*
X79988051Y-40982051D01*
%TO.C,SW15*%
X96244051Y-36414051D02*
X108464051Y-36414051D01*
X96244051Y-37924051D02*
X96244051Y-36414051D01*
X96244051Y-48634051D02*
X96244051Y-47124051D01*
X108464051Y-37924051D02*
X108464051Y-36414051D01*
X108464051Y-48634051D02*
X96244051Y-48634051D01*
X108464051Y-48634051D02*
X108464051Y-47124051D01*
%TD*%
%LPC*%
D18*
%TO.C,U14*%
X120079070Y-25411936D03*
X120079070Y-26912064D03*
X117079070Y-26912064D03*
X117079070Y-25411936D03*
%TD*%
%TO.C,U13*%
X100836570Y-25411936D03*
X100836570Y-26912064D03*
X103836570Y-26912064D03*
X103836570Y-25411936D03*
%TD*%
%TO.C,U12*%
X84594070Y-25411936D03*
X84594070Y-26912064D03*
X87594070Y-26912064D03*
X87594070Y-25411936D03*
%TD*%
%TO.C,U11*%
X68351570Y-25411936D03*
X68351570Y-26912064D03*
X71351570Y-26912064D03*
X71351570Y-25411936D03*
%TD*%
%TO.C,U10*%
X52109070Y-25411936D03*
X52109070Y-26912064D03*
X55109070Y-26912064D03*
X55109070Y-25411936D03*
%TD*%
D19*
%TO.C,U9*%
X43445936Y-34119949D03*
X44946064Y-34119949D03*
X44946064Y-31119949D03*
X43445936Y-31119949D03*
%TD*%
%TO.C,U8*%
X43445936Y-44025949D03*
X44946064Y-44025949D03*
X44946064Y-41025949D03*
X43445936Y-41025949D03*
%TD*%
%TO.C,U7*%
X43445936Y-53931949D03*
X44946064Y-53931949D03*
X44946064Y-50931949D03*
X43445936Y-50931949D03*
%TD*%
D18*
%TO.C,U6*%
X55171033Y-59659013D03*
X55171033Y-58158885D03*
X52171033Y-58158885D03*
X52171033Y-59659013D03*
%TD*%
%TO.C,U5*%
X71413533Y-59659013D03*
X71413533Y-58158885D03*
X68413533Y-58158885D03*
X68413533Y-59659013D03*
%TD*%
%TO.C,U4*%
X87656033Y-59659013D03*
X87656033Y-58158885D03*
X84656033Y-58158885D03*
X84656033Y-59659013D03*
%TD*%
%TO.C,U3*%
X103898533Y-59659013D03*
X103898533Y-58158885D03*
X100898533Y-58158885D03*
X100898533Y-59659013D03*
%TD*%
%TO.C,U2*%
X120141033Y-59659013D03*
X120141033Y-58158885D03*
X117141033Y-58158885D03*
X117141033Y-59659013D03*
%TD*%
D20*
%TO.C,SW10*%
X112360051Y-32372051D03*
X124860051Y-32372051D03*
X112360051Y-37372051D03*
X124860051Y-37372051D03*
%TD*%
%TO.C,SW4*%
X96104051Y-47724051D03*
X108604051Y-47724051D03*
X96104051Y-52724051D03*
X108604051Y-52724051D03*
%TD*%
%TO.C,SW16*%
X124860051Y-45024051D03*
X112360051Y-45024051D03*
X124860051Y-40024051D03*
X112360051Y-40024051D03*
%TD*%
D21*
%TO.C,SW11*%
X160274000Y-29718000D03*
X160274000Y-36518102D03*
D22*
X156867980Y-30618178D03*
X156867980Y-33118051D03*
X156867980Y-35617924D03*
%TD*%
D23*
%TO.C,JP1*%
X158892000Y-27305000D03*
D24*
X157592000Y-27305000D03*
%TD*%
D20*
%TO.C,SW3*%
X79848051Y-47724051D03*
X92348051Y-47724051D03*
X79848051Y-52724051D03*
X92348051Y-52724051D03*
%TD*%
%TO.C,SW7*%
X63592051Y-32372051D03*
X76092051Y-32372051D03*
X63592051Y-37372051D03*
X76092051Y-37372051D03*
%TD*%
%TO.C,SW6*%
X47390051Y-32372051D03*
X59890051Y-32372051D03*
X47390051Y-37372051D03*
X59890051Y-37372051D03*
%TD*%
%TO.C,SW2*%
X63592051Y-47724051D03*
X76092051Y-47724051D03*
X63592051Y-52724051D03*
X76092051Y-52724051D03*
%TD*%
%TO.C,SW14*%
X92348051Y-45024051D03*
X79848051Y-45024051D03*
X92348051Y-40024051D03*
X79848051Y-40024051D03*
%TD*%
%TO.C,SW12*%
X59890051Y-45024051D03*
X47390051Y-45024051D03*
X59890051Y-40024051D03*
X47390051Y-40024051D03*
%TD*%
%TO.C,SW13*%
X76092051Y-45024051D03*
X63592051Y-45024051D03*
X76092051Y-40024051D03*
X63592051Y-40024051D03*
%TD*%
%TO.C,SW1*%
X47390051Y-47724051D03*
X59890051Y-47724051D03*
X47390051Y-52724051D03*
X59890051Y-52724051D03*
%TD*%
D25*
%TO.C,JP3*%
X155926000Y-38735000D03*
D26*
X157226000Y-38735000D03*
%TD*%
D20*
%TO.C,SW5*%
X112360051Y-47724051D03*
X124860051Y-47724051D03*
X112360051Y-52724051D03*
X124860051Y-52724051D03*
%TD*%
%TO.C,SW9*%
X96104051Y-32372051D03*
X108604051Y-32372051D03*
X96104051Y-37372051D03*
X108604051Y-37372051D03*
%TD*%
D23*
%TO.C,JP2*%
X131856000Y-37084000D03*
D24*
X130556000Y-37084000D03*
%TD*%
D20*
%TO.C,SW8*%
X79848051Y-32372051D03*
X92348051Y-32372051D03*
X79848051Y-37372051D03*
X92348051Y-37372051D03*
%TD*%
%TO.C,SW15*%
X108604051Y-45024051D03*
X96104051Y-45024051D03*
X108604051Y-40024051D03*
X96104051Y-40024051D03*
%TD*%
D27*
%TO.C,J1*%
X147701000Y-32639000D03*
D28*
X147701000Y-30639000D03*
%TD*%
D29*
%TO.C,RZ1*%
X136814000Y-26162000D03*
X136814000Y-28702000D03*
X136814000Y-31242000D03*
X136814000Y-33782000D03*
X136814000Y-36322000D03*
D30*
X136814000Y-38862000D03*
D31*
X137404000Y-41462050D03*
D30*
X136814000Y-43942000D03*
X136814000Y-46482000D03*
D32*
X139954000Y-47292000D03*
D33*
X142494000Y-47292000D03*
X145034000Y-47292000D03*
X147574000Y-47292000D03*
X150114000Y-47292000D03*
D30*
X153254000Y-46482000D03*
X153254000Y-43942000D03*
D31*
X152699000Y-41402000D03*
D30*
X153254000Y-38862000D03*
X153254000Y-36322000D03*
X153254000Y-33782000D03*
X153254000Y-31242000D03*
X153254000Y-26162000D03*
X153254000Y-28702000D03*
%TD*%
D34*
%TO.C,U1*%
X157733990Y-56642010D03*
X155193990Y-56642010D03*
X152653990Y-56642010D03*
X150113990Y-56642010D03*
X147573990Y-56642010D03*
X145033990Y-56642010D03*
X142493990Y-56642010D03*
X139953990Y-56642010D03*
X137413990Y-56642010D03*
X134873990Y-56642010D03*
X132333990Y-56642010D03*
X129793990Y-56642010D03*
X157734000Y-41402000D03*
X155194000Y-41402000D03*
X152654000Y-41402000D03*
X150114000Y-41402000D03*
X147574000Y-41402000D03*
X145034000Y-41402000D03*
X142494000Y-41402000D03*
X139954000Y-41402000D03*
X137414000Y-41402000D03*
X134874000Y-41402000D03*
X132334000Y-41402000D03*
X129794000Y-41402000D03*
D35*
X132888790Y-53562010D03*
X132888790Y-51022010D03*
X132888790Y-48482010D03*
D34*
X160273990Y-56642010D03*
X160274000Y-41402000D03*
%TD*%
%LPD*%
M02*
