%TF.GenerationSoftware,KiCad,Pcbnew,8.0.6*%
%TF.CreationDate,2024-12-17T19:04:38+01:00*%
%TF.ProjectId,MultiMacro,4d756c74-694d-4616-9372-6f2e6b696361,rev?*%
%TF.SameCoordinates,Original*%
%TF.FileFunction,Soldermask,Bot*%
%TF.FilePolarity,Negative*%
%FSLAX46Y46*%
G04 Gerber Fmt 4.6, Leading zero omitted, Abs format (unit mm)*
G04 Created by KiCad (PCBNEW 8.0.6) date 2024-12-17 19:04:38*
%MOMM*%
%LPD*%
G01*
G04 APERTURE LIST*
G04 Aperture macros list*
%AMRoundRect*
0 Rectangle with rounded corners*
0 $1 Rounding radius*
0 $2 $3 $4 $5 $6 $7 $8 $9 X,Y pos of 4 corners*
0 Add a 4 corners polygon primitive as box body*
4,1,4,$2,$3,$4,$5,$6,$7,$8,$9,$2,$3,0*
0 Add four circle primitives for the rounded corners*
1,1,$1+$1,$2,$3*
1,1,$1+$1,$4,$5*
1,1,$1+$1,$6,$7*
1,1,$1+$1,$8,$9*
0 Add four rect primitives between the rounded corners*
20,1,$1+$1,$2,$3,$4,$5,0*
20,1,$1+$1,$4,$5,$6,$7,0*
20,1,$1+$1,$6,$7,$8,$9,0*
20,1,$1+$1,$8,$9,$2,$3,0*%
G04 Aperture macros list end*
%ADD10O,2.900000X1.700000*%
%ADD11C,1.100025*%
%ADD12RoundRect,0.250000X0.625000X-0.350000X0.625000X0.350000X-0.625000X0.350000X-0.625000X-0.350000X0*%
%ADD13O,1.750000X1.200000*%
%ADD14RoundRect,0.400000X0.900000X0.400000X-0.900000X0.400000X-0.900000X-0.400000X0.900000X-0.400000X0*%
%ADD15RoundRect,0.400050X0.899950X0.400050X-0.899950X0.400050X-0.899950X-0.400050X0.899950X-0.400050X0*%
%ADD16RoundRect,0.400050X0.400050X0.400050X-0.400050X0.400050X-0.400050X-0.400050X0.400050X-0.400050X0*%
%ADD17RoundRect,0.400000X0.400000X0.900000X-0.400000X0.900000X-0.400000X-0.900000X0.400000X-0.900000X0*%
%ADD18RoundRect,0.393700X0.393700X0.906300X-0.393700X0.906300X-0.393700X-0.906300X0.393700X-0.906300X0*%
%ADD19C,1.600000*%
%ADD20C,1.574800*%
G04 APERTURE END LIST*
D10*
%TO.C,SW10*%
X112360051Y-32372051D03*
X124860051Y-32372051D03*
X112360051Y-37372051D03*
X124860051Y-37372051D03*
%TD*%
%TO.C,SW4*%
X96104051Y-47724051D03*
X108604051Y-47724051D03*
X96104051Y-52724051D03*
X108604051Y-52724051D03*
%TD*%
%TO.C,SW16*%
X124860051Y-45024051D03*
X112360051Y-45024051D03*
X124860051Y-40024051D03*
X112360051Y-40024051D03*
%TD*%
D11*
%TO.C,SW11*%
X160274000Y-29718000D03*
X160274000Y-36518102D03*
%TD*%
D10*
%TO.C,SW3*%
X79848051Y-47724051D03*
X92348051Y-47724051D03*
X79848051Y-52724051D03*
X92348051Y-52724051D03*
%TD*%
%TO.C,SW7*%
X63592051Y-32372051D03*
X76092051Y-32372051D03*
X63592051Y-37372051D03*
X76092051Y-37372051D03*
%TD*%
%TO.C,SW6*%
X47390051Y-32372051D03*
X59890051Y-32372051D03*
X47390051Y-37372051D03*
X59890051Y-37372051D03*
%TD*%
%TO.C,SW2*%
X63592051Y-47724051D03*
X76092051Y-47724051D03*
X63592051Y-52724051D03*
X76092051Y-52724051D03*
%TD*%
%TO.C,SW14*%
X92348051Y-45024051D03*
X79848051Y-45024051D03*
X92348051Y-40024051D03*
X79848051Y-40024051D03*
%TD*%
%TO.C,SW12*%
X59890051Y-45024051D03*
X47390051Y-45024051D03*
X59890051Y-40024051D03*
X47390051Y-40024051D03*
%TD*%
%TO.C,SW13*%
X76092051Y-45024051D03*
X63592051Y-45024051D03*
X76092051Y-40024051D03*
X63592051Y-40024051D03*
%TD*%
%TO.C,SW1*%
X47390051Y-47724051D03*
X59890051Y-47724051D03*
X47390051Y-52724051D03*
X59890051Y-52724051D03*
%TD*%
%TO.C,SW5*%
X112360051Y-47724051D03*
X124860051Y-47724051D03*
X112360051Y-52724051D03*
X124860051Y-52724051D03*
%TD*%
%TO.C,SW9*%
X96104051Y-32372051D03*
X108604051Y-32372051D03*
X96104051Y-37372051D03*
X108604051Y-37372051D03*
%TD*%
%TO.C,SW8*%
X79848051Y-32372051D03*
X92348051Y-32372051D03*
X79848051Y-37372051D03*
X92348051Y-37372051D03*
%TD*%
%TO.C,SW15*%
X108604051Y-45024051D03*
X96104051Y-45024051D03*
X108604051Y-40024051D03*
X96104051Y-40024051D03*
%TD*%
D12*
%TO.C,J1*%
X147701000Y-32639000D03*
D13*
X147701000Y-30639000D03*
%TD*%
D14*
%TO.C,RZ1*%
X136814000Y-26162000D03*
X136814000Y-28702000D03*
X136814000Y-31242000D03*
X136814000Y-33782000D03*
X136814000Y-36322000D03*
D15*
X136814000Y-38862000D03*
D16*
X137404000Y-41462050D03*
D15*
X136814000Y-43942000D03*
X136814000Y-46482000D03*
D17*
X139954000Y-47292000D03*
D18*
X142494000Y-47292000D03*
X145034000Y-47292000D03*
X147574000Y-47292000D03*
X150114000Y-47292000D03*
D15*
X153254000Y-46482000D03*
X153254000Y-43942000D03*
D16*
X152699000Y-41402000D03*
D15*
X153254000Y-38862000D03*
X153254000Y-36322000D03*
X153254000Y-33782000D03*
X153254000Y-31242000D03*
X153254000Y-26162000D03*
X153254000Y-28702000D03*
%TD*%
D19*
%TO.C,U1*%
X157733990Y-56642010D03*
X155193990Y-56642010D03*
X152653990Y-56642010D03*
X150113990Y-56642010D03*
X147573990Y-56642010D03*
X145033990Y-56642010D03*
X142493990Y-56642010D03*
X139953990Y-56642010D03*
X137413990Y-56642010D03*
X134873990Y-56642010D03*
X132333990Y-56642010D03*
X129793990Y-56642010D03*
X157734000Y-41402000D03*
X155194000Y-41402000D03*
X152654000Y-41402000D03*
X150114000Y-41402000D03*
X147574000Y-41402000D03*
X145034000Y-41402000D03*
X142494000Y-41402000D03*
X139954000Y-41402000D03*
X137414000Y-41402000D03*
X134874000Y-41402000D03*
X132334000Y-41402000D03*
X129794000Y-41402000D03*
D20*
X132888790Y-53562010D03*
X132888790Y-51022010D03*
X132888790Y-48482010D03*
D19*
X160273990Y-56642010D03*
X160274000Y-41402000D03*
%TD*%
M02*
