%TF.GenerationSoftware,KiCad,Pcbnew,8.0.6*%
%TF.CreationDate,2024-12-17T19:04:38+01:00*%
%TF.ProjectId,MultiMacro,4d756c74-694d-4616-9372-6f2e6b696361,rev?*%
%TF.SameCoordinates,Original*%
%TF.FileFunction,Legend,Bot*%
%TF.FilePolarity,Positive*%
%FSLAX46Y46*%
G04 Gerber Fmt 4.6, Leading zero omitted, Abs format (unit mm)*
G04 Created by KiCad (PCBNEW 8.0.6) date 2024-12-17 19:04:38*
%MOMM*%
%LPD*%
G01*
G04 APERTURE LIST*
G04 Aperture macros list*
%AMRoundRect*
0 Rectangle with rounded corners*
0 $1 Rounding radius*
0 $2 $3 $4 $5 $6 $7 $8 $9 X,Y pos of 4 corners*
0 Add a 4 corners polygon primitive as box body*
4,1,4,$2,$3,$4,$5,$6,$7,$8,$9,$2,$3,0*
0 Add four circle primitives for the rounded corners*
1,1,$1+$1,$2,$3*
1,1,$1+$1,$4,$5*
1,1,$1+$1,$6,$7*
1,1,$1+$1,$8,$9*
0 Add four rect primitives between the rounded corners*
20,1,$1+$1,$2,$3,$4,$5,0*
20,1,$1+$1,$4,$5,$6,$7,0*
20,1,$1+$1,$6,$7,$8,$9,0*
20,1,$1+$1,$8,$9,$2,$3,0*%
G04 Aperture macros list end*
%ADD10C,0.300000*%
%ADD11C,0.150000*%
%ADD12C,0.100000*%
%ADD13C,0.000000*%
%ADD14C,0.015526*%
%ADD15C,0.015782*%
%ADD16C,0.120000*%
%ADD17O,2.900000X1.700000*%
%ADD18C,1.100025*%
%ADD19RoundRect,0.250000X0.625000X-0.350000X0.625000X0.350000X-0.625000X0.350000X-0.625000X-0.350000X0*%
%ADD20O,1.750000X1.200000*%
%ADD21RoundRect,0.400000X0.900000X0.400000X-0.900000X0.400000X-0.900000X-0.400000X0.900000X-0.400000X0*%
%ADD22RoundRect,0.400050X0.899950X0.400050X-0.899950X0.400050X-0.899950X-0.400050X0.899950X-0.400050X0*%
%ADD23RoundRect,0.400050X0.400050X0.400050X-0.400050X0.400050X-0.400050X-0.400050X0.400050X-0.400050X0*%
%ADD24RoundRect,0.400000X0.400000X0.900000X-0.400000X0.900000X-0.400000X-0.900000X0.400000X-0.900000X0*%
%ADD25RoundRect,0.393700X0.393700X0.906300X-0.393700X0.906300X-0.393700X-0.906300X0.393700X-0.906300X0*%
%ADD26C,1.600000*%
%ADD27C,1.574800*%
G04 APERTURE END LIST*
D10*
X83646489Y-27740828D02*
X83646489Y-26740828D01*
X83646489Y-26883685D02*
X83575060Y-26812257D01*
X83575060Y-26812257D02*
X83432203Y-26740828D01*
X83432203Y-26740828D02*
X83217917Y-26740828D01*
X83217917Y-26740828D02*
X83075060Y-26812257D01*
X83075060Y-26812257D02*
X83003632Y-26955114D01*
X83003632Y-26955114D02*
X83003632Y-27740828D01*
X83003632Y-26955114D02*
X82932203Y-26812257D01*
X82932203Y-26812257D02*
X82789346Y-26740828D01*
X82789346Y-26740828D02*
X82575060Y-26740828D01*
X82575060Y-26740828D02*
X82432203Y-26812257D01*
X82432203Y-26812257D02*
X82360774Y-26955114D01*
X82360774Y-26955114D02*
X82360774Y-27740828D01*
X81003632Y-26740828D02*
X81003632Y-27740828D01*
X81360774Y-26169400D02*
X81717917Y-27240828D01*
X81717917Y-27240828D02*
X80789346Y-27240828D01*
X80289346Y-26383685D02*
X80217918Y-26312257D01*
X80217918Y-26312257D02*
X80075061Y-26240828D01*
X80075061Y-26240828D02*
X79717918Y-26240828D01*
X79717918Y-26240828D02*
X79575061Y-26312257D01*
X79575061Y-26312257D02*
X79503632Y-26383685D01*
X79503632Y-26383685D02*
X79432203Y-26526542D01*
X79432203Y-26526542D02*
X79432203Y-26669400D01*
X79432203Y-26669400D02*
X79503632Y-26883685D01*
X79503632Y-26883685D02*
X80360775Y-27740828D01*
X80360775Y-27740828D02*
X79432203Y-27740828D01*
X78217918Y-27669400D02*
X78360775Y-27740828D01*
X78360775Y-27740828D02*
X78646490Y-27740828D01*
X78646490Y-27740828D02*
X78789347Y-27669400D01*
X78789347Y-27669400D02*
X78860775Y-27526542D01*
X78860775Y-27526542D02*
X78860775Y-26955114D01*
X78860775Y-26955114D02*
X78789347Y-26812257D01*
X78789347Y-26812257D02*
X78646490Y-26740828D01*
X78646490Y-26740828D02*
X78360775Y-26740828D01*
X78360775Y-26740828D02*
X78217918Y-26812257D01*
X78217918Y-26812257D02*
X78146490Y-26955114D01*
X78146490Y-26955114D02*
X78146490Y-27097971D01*
X78146490Y-27097971D02*
X78860775Y-27240828D01*
X77503633Y-27597971D02*
X77432204Y-27669400D01*
X77432204Y-27669400D02*
X77503633Y-27740828D01*
X77503633Y-27740828D02*
X77575061Y-27669400D01*
X77575061Y-27669400D02*
X77503633Y-27597971D01*
X77503633Y-27597971D02*
X77503633Y-27740828D01*
X76146490Y-27740828D02*
X76146490Y-26240828D01*
X76146490Y-27669400D02*
X76289347Y-27740828D01*
X76289347Y-27740828D02*
X76575061Y-27740828D01*
X76575061Y-27740828D02*
X76717918Y-27669400D01*
X76717918Y-27669400D02*
X76789347Y-27597971D01*
X76789347Y-27597971D02*
X76860775Y-27455114D01*
X76860775Y-27455114D02*
X76860775Y-27026542D01*
X76860775Y-27026542D02*
X76789347Y-26883685D01*
X76789347Y-26883685D02*
X76717918Y-26812257D01*
X76717918Y-26812257D02*
X76575061Y-26740828D01*
X76575061Y-26740828D02*
X76289347Y-26740828D01*
X76289347Y-26740828D02*
X76146490Y-26812257D01*
X74860775Y-27669400D02*
X75003632Y-27740828D01*
X75003632Y-27740828D02*
X75289347Y-27740828D01*
X75289347Y-27740828D02*
X75432204Y-27669400D01*
X75432204Y-27669400D02*
X75503632Y-27526542D01*
X75503632Y-27526542D02*
X75503632Y-26955114D01*
X75503632Y-26955114D02*
X75432204Y-26812257D01*
X75432204Y-26812257D02*
X75289347Y-26740828D01*
X75289347Y-26740828D02*
X75003632Y-26740828D01*
X75003632Y-26740828D02*
X74860775Y-26812257D01*
X74860775Y-26812257D02*
X74789347Y-26955114D01*
X74789347Y-26955114D02*
X74789347Y-27097971D01*
X74789347Y-27097971D02*
X75503632Y-27240828D01*
X73075061Y-26169400D02*
X74360775Y-28097971D01*
X72575061Y-27740828D02*
X72575061Y-26740828D01*
X72575061Y-26883685D02*
X72503632Y-26812257D01*
X72503632Y-26812257D02*
X72360775Y-26740828D01*
X72360775Y-26740828D02*
X72146489Y-26740828D01*
X72146489Y-26740828D02*
X72003632Y-26812257D01*
X72003632Y-26812257D02*
X71932204Y-26955114D01*
X71932204Y-26955114D02*
X71932204Y-27740828D01*
X71932204Y-26955114D02*
X71860775Y-26812257D01*
X71860775Y-26812257D02*
X71717918Y-26740828D01*
X71717918Y-26740828D02*
X71503632Y-26740828D01*
X71503632Y-26740828D02*
X71360775Y-26812257D01*
X71360775Y-26812257D02*
X71289346Y-26955114D01*
X71289346Y-26955114D02*
X71289346Y-27740828D01*
X69932204Y-26740828D02*
X69932204Y-27740828D01*
X70575061Y-26740828D02*
X70575061Y-27526542D01*
X70575061Y-27526542D02*
X70503632Y-27669400D01*
X70503632Y-27669400D02*
X70360775Y-27740828D01*
X70360775Y-27740828D02*
X70146489Y-27740828D01*
X70146489Y-27740828D02*
X70003632Y-27669400D01*
X70003632Y-27669400D02*
X69932204Y-27597971D01*
X69432203Y-26740828D02*
X68860775Y-26740828D01*
X69217918Y-26240828D02*
X69217918Y-27526542D01*
X69217918Y-27526542D02*
X69146489Y-27669400D01*
X69146489Y-27669400D02*
X69003632Y-27740828D01*
X69003632Y-27740828D02*
X68860775Y-27740828D01*
X67789346Y-27669400D02*
X67932203Y-27740828D01*
X67932203Y-27740828D02*
X68217918Y-27740828D01*
X68217918Y-27740828D02*
X68360775Y-27669400D01*
X68360775Y-27669400D02*
X68432203Y-27526542D01*
X68432203Y-27526542D02*
X68432203Y-26955114D01*
X68432203Y-26955114D02*
X68360775Y-26812257D01*
X68360775Y-26812257D02*
X68217918Y-26740828D01*
X68217918Y-26740828D02*
X67932203Y-26740828D01*
X67932203Y-26740828D02*
X67789346Y-26812257D01*
X67789346Y-26812257D02*
X67717918Y-26955114D01*
X67717918Y-26955114D02*
X67717918Y-27097971D01*
X67717918Y-27097971D02*
X68432203Y-27240828D01*
X67075061Y-26740828D02*
X67075061Y-27740828D01*
X67075061Y-26883685D02*
X67003632Y-26812257D01*
X67003632Y-26812257D02*
X66860775Y-26740828D01*
X66860775Y-26740828D02*
X66646489Y-26740828D01*
X66646489Y-26740828D02*
X66503632Y-26812257D01*
X66503632Y-26812257D02*
X66432204Y-26955114D01*
X66432204Y-26955114D02*
X66432204Y-27740828D01*
X65717918Y-27740828D02*
X65717918Y-26740828D01*
X65717918Y-26240828D02*
X65789346Y-26312257D01*
X65789346Y-26312257D02*
X65717918Y-26383685D01*
X65717918Y-26383685D02*
X65646489Y-26312257D01*
X65646489Y-26312257D02*
X65717918Y-26240828D01*
X65717918Y-26240828D02*
X65717918Y-26383685D01*
X65146489Y-27740828D02*
X64360775Y-26740828D01*
X65146489Y-26740828D02*
X64360775Y-27740828D01*
X63789346Y-27169400D02*
X62646489Y-27169400D01*
X62075060Y-26740828D02*
X61789346Y-27740828D01*
X61789346Y-27740828D02*
X61503631Y-27026542D01*
X61503631Y-27026542D02*
X61217917Y-27740828D01*
X61217917Y-27740828D02*
X60932203Y-26740828D01*
X60360774Y-27740828D02*
X60360774Y-26740828D01*
X60360774Y-26240828D02*
X60432202Y-26312257D01*
X60432202Y-26312257D02*
X60360774Y-26383685D01*
X60360774Y-26383685D02*
X60289345Y-26312257D01*
X60289345Y-26312257D02*
X60360774Y-26240828D01*
X60360774Y-26240828D02*
X60360774Y-26383685D01*
X59646488Y-27740828D02*
X59646488Y-26740828D01*
X59646488Y-27026542D02*
X59575059Y-26883685D01*
X59575059Y-26883685D02*
X59503631Y-26812257D01*
X59503631Y-26812257D02*
X59360773Y-26740828D01*
X59360773Y-26740828D02*
X59217916Y-26740828D01*
X58146488Y-27669400D02*
X58289345Y-27740828D01*
X58289345Y-27740828D02*
X58575060Y-27740828D01*
X58575060Y-27740828D02*
X58717917Y-27669400D01*
X58717917Y-27669400D02*
X58789345Y-27526542D01*
X58789345Y-27526542D02*
X58789345Y-26955114D01*
X58789345Y-26955114D02*
X58717917Y-26812257D01*
X58717917Y-26812257D02*
X58575060Y-26740828D01*
X58575060Y-26740828D02*
X58289345Y-26740828D01*
X58289345Y-26740828D02*
X58146488Y-26812257D01*
X58146488Y-26812257D02*
X58075060Y-26955114D01*
X58075060Y-26955114D02*
X58075060Y-27097971D01*
X58075060Y-27097971D02*
X58789345Y-27240828D01*
X57217917Y-27740828D02*
X57360774Y-27669400D01*
X57360774Y-27669400D02*
X57432203Y-27526542D01*
X57432203Y-27526542D02*
X57432203Y-26240828D01*
X56075060Y-27669400D02*
X56217917Y-27740828D01*
X56217917Y-27740828D02*
X56503632Y-27740828D01*
X56503632Y-27740828D02*
X56646489Y-27669400D01*
X56646489Y-27669400D02*
X56717917Y-27526542D01*
X56717917Y-27526542D02*
X56717917Y-26955114D01*
X56717917Y-26955114D02*
X56646489Y-26812257D01*
X56646489Y-26812257D02*
X56503632Y-26740828D01*
X56503632Y-26740828D02*
X56217917Y-26740828D01*
X56217917Y-26740828D02*
X56075060Y-26812257D01*
X56075060Y-26812257D02*
X56003632Y-26955114D01*
X56003632Y-26955114D02*
X56003632Y-27097971D01*
X56003632Y-27097971D02*
X56717917Y-27240828D01*
X55432203Y-27669400D02*
X55289346Y-27740828D01*
X55289346Y-27740828D02*
X55003632Y-27740828D01*
X55003632Y-27740828D02*
X54860775Y-27669400D01*
X54860775Y-27669400D02*
X54789346Y-27526542D01*
X54789346Y-27526542D02*
X54789346Y-27455114D01*
X54789346Y-27455114D02*
X54860775Y-27312257D01*
X54860775Y-27312257D02*
X55003632Y-27240828D01*
X55003632Y-27240828D02*
X55217918Y-27240828D01*
X55217918Y-27240828D02*
X55360775Y-27169400D01*
X55360775Y-27169400D02*
X55432203Y-27026542D01*
X55432203Y-27026542D02*
X55432203Y-26955114D01*
X55432203Y-26955114D02*
X55360775Y-26812257D01*
X55360775Y-26812257D02*
X55217918Y-26740828D01*
X55217918Y-26740828D02*
X55003632Y-26740828D01*
X55003632Y-26740828D02*
X54860775Y-26812257D01*
X54217917Y-27669400D02*
X54075060Y-27740828D01*
X54075060Y-27740828D02*
X53789346Y-27740828D01*
X53789346Y-27740828D02*
X53646489Y-27669400D01*
X53646489Y-27669400D02*
X53575060Y-27526542D01*
X53575060Y-27526542D02*
X53575060Y-27455114D01*
X53575060Y-27455114D02*
X53646489Y-27312257D01*
X53646489Y-27312257D02*
X53789346Y-27240828D01*
X53789346Y-27240828D02*
X54003632Y-27240828D01*
X54003632Y-27240828D02*
X54146489Y-27169400D01*
X54146489Y-27169400D02*
X54217917Y-27026542D01*
X54217917Y-27026542D02*
X54217917Y-26955114D01*
X54217917Y-26955114D02*
X54146489Y-26812257D01*
X54146489Y-26812257D02*
X54003632Y-26740828D01*
X54003632Y-26740828D02*
X53789346Y-26740828D01*
X53789346Y-26740828D02*
X53646489Y-26812257D01*
D11*
X149705819Y-31305666D02*
X150420104Y-31305666D01*
X150420104Y-31305666D02*
X150562961Y-31258047D01*
X150562961Y-31258047D02*
X150658200Y-31162809D01*
X150658200Y-31162809D02*
X150705819Y-31019952D01*
X150705819Y-31019952D02*
X150705819Y-30924714D01*
X150705819Y-32305666D02*
X150705819Y-31734238D01*
X150705819Y-32019952D02*
X149705819Y-32019952D01*
X149705819Y-32019952D02*
X149848676Y-31924714D01*
X149848676Y-31924714D02*
X149943914Y-31829476D01*
X149943914Y-31829476D02*
X149991533Y-31734238D01*
D12*
X157394552Y-54950848D02*
X157394552Y-55522276D01*
X157394552Y-55236562D02*
X158394552Y-55236562D01*
X158394552Y-55236562D02*
X158251695Y-55331800D01*
X158251695Y-55331800D02*
X158156457Y-55427038D01*
X158156457Y-55427038D02*
X158108838Y-55522276D01*
D11*
X142152237Y-54556819D02*
X142152237Y-53556819D01*
X142152237Y-53556819D02*
X141580809Y-54556819D01*
X141580809Y-54556819D02*
X141580809Y-53556819D01*
X140533190Y-54556819D02*
X140866523Y-54080628D01*
X141104618Y-54556819D02*
X141104618Y-53556819D01*
X141104618Y-53556819D02*
X140723666Y-53556819D01*
X140723666Y-53556819D02*
X140628428Y-53604438D01*
X140628428Y-53604438D02*
X140580809Y-53652057D01*
X140580809Y-53652057D02*
X140533190Y-53747295D01*
X140533190Y-53747295D02*
X140533190Y-53890152D01*
X140533190Y-53890152D02*
X140580809Y-53985390D01*
X140580809Y-53985390D02*
X140628428Y-54033009D01*
X140628428Y-54033009D02*
X140723666Y-54080628D01*
X140723666Y-54080628D02*
X141104618Y-54080628D01*
X139771285Y-54033009D02*
X140104618Y-54033009D01*
X140104618Y-54556819D02*
X140104618Y-53556819D01*
X140104618Y-53556819D02*
X139628428Y-53556819D01*
X138771285Y-53556819D02*
X139247475Y-53556819D01*
X139247475Y-53556819D02*
X139295094Y-54033009D01*
X139295094Y-54033009D02*
X139247475Y-53985390D01*
X139247475Y-53985390D02*
X139152237Y-53937771D01*
X139152237Y-53937771D02*
X138914142Y-53937771D01*
X138914142Y-53937771D02*
X138818904Y-53985390D01*
X138818904Y-53985390D02*
X138771285Y-54033009D01*
X138771285Y-54033009D02*
X138723666Y-54128247D01*
X138723666Y-54128247D02*
X138723666Y-54366342D01*
X138723666Y-54366342D02*
X138771285Y-54461580D01*
X138771285Y-54461580D02*
X138818904Y-54509200D01*
X138818904Y-54509200D02*
X138914142Y-54556819D01*
X138914142Y-54556819D02*
X139152237Y-54556819D01*
X139152237Y-54556819D02*
X139247475Y-54509200D01*
X139247475Y-54509200D02*
X139295094Y-54461580D01*
X138342713Y-53652057D02*
X138295094Y-53604438D01*
X138295094Y-53604438D02*
X138199856Y-53556819D01*
X138199856Y-53556819D02*
X137961761Y-53556819D01*
X137961761Y-53556819D02*
X137866523Y-53604438D01*
X137866523Y-53604438D02*
X137818904Y-53652057D01*
X137818904Y-53652057D02*
X137771285Y-53747295D01*
X137771285Y-53747295D02*
X137771285Y-53842533D01*
X137771285Y-53842533D02*
X137818904Y-53985390D01*
X137818904Y-53985390D02*
X138390332Y-54556819D01*
X138390332Y-54556819D02*
X137771285Y-54556819D01*
X137199856Y-53985390D02*
X137295094Y-53937771D01*
X137295094Y-53937771D02*
X137342713Y-53890152D01*
X137342713Y-53890152D02*
X137390332Y-53794914D01*
X137390332Y-53794914D02*
X137390332Y-53747295D01*
X137390332Y-53747295D02*
X137342713Y-53652057D01*
X137342713Y-53652057D02*
X137295094Y-53604438D01*
X137295094Y-53604438D02*
X137199856Y-53556819D01*
X137199856Y-53556819D02*
X137009380Y-53556819D01*
X137009380Y-53556819D02*
X136914142Y-53604438D01*
X136914142Y-53604438D02*
X136866523Y-53652057D01*
X136866523Y-53652057D02*
X136818904Y-53747295D01*
X136818904Y-53747295D02*
X136818904Y-53794914D01*
X136818904Y-53794914D02*
X136866523Y-53890152D01*
X136866523Y-53890152D02*
X136914142Y-53937771D01*
X136914142Y-53937771D02*
X137009380Y-53985390D01*
X137009380Y-53985390D02*
X137199856Y-53985390D01*
X137199856Y-53985390D02*
X137295094Y-54033009D01*
X137295094Y-54033009D02*
X137342713Y-54080628D01*
X137342713Y-54080628D02*
X137390332Y-54175866D01*
X137390332Y-54175866D02*
X137390332Y-54366342D01*
X137390332Y-54366342D02*
X137342713Y-54461580D01*
X137342713Y-54461580D02*
X137295094Y-54509200D01*
X137295094Y-54509200D02*
X137199856Y-54556819D01*
X137199856Y-54556819D02*
X137009380Y-54556819D01*
X137009380Y-54556819D02*
X136914142Y-54509200D01*
X136914142Y-54509200D02*
X136866523Y-54461580D01*
X136866523Y-54461580D02*
X136818904Y-54366342D01*
X136818904Y-54366342D02*
X136818904Y-54175866D01*
X136818904Y-54175866D02*
X136866523Y-54080628D01*
X136866523Y-54080628D02*
X136914142Y-54033009D01*
X136914142Y-54033009D02*
X137009380Y-53985390D01*
X135961761Y-53890152D02*
X135961761Y-54556819D01*
X136199856Y-53509200D02*
X136437951Y-54223485D01*
X136437951Y-54223485D02*
X135818904Y-54223485D01*
X135247475Y-53556819D02*
X135152237Y-53556819D01*
X135152237Y-53556819D02*
X135056999Y-53604438D01*
X135056999Y-53604438D02*
X135009380Y-53652057D01*
X135009380Y-53652057D02*
X134961761Y-53747295D01*
X134961761Y-53747295D02*
X134914142Y-53937771D01*
X134914142Y-53937771D02*
X134914142Y-54175866D01*
X134914142Y-54175866D02*
X134961761Y-54366342D01*
X134961761Y-54366342D02*
X135009380Y-54461580D01*
X135009380Y-54461580D02*
X135056999Y-54509200D01*
X135056999Y-54509200D02*
X135152237Y-54556819D01*
X135152237Y-54556819D02*
X135247475Y-54556819D01*
X135247475Y-54556819D02*
X135342713Y-54509200D01*
X135342713Y-54509200D02*
X135390332Y-54461580D01*
X135390332Y-54461580D02*
X135437951Y-54366342D01*
X135437951Y-54366342D02*
X135485570Y-54175866D01*
X135485570Y-54175866D02*
X135485570Y-53937771D01*
X135485570Y-53937771D02*
X135437951Y-53747295D01*
X135437951Y-53747295D02*
X135390332Y-53652057D01*
X135390332Y-53652057D02*
X135342713Y-53604438D01*
X135342713Y-53604438D02*
X135247475Y-53556819D01*
D13*
%TO.C,REF\u002A\u002A*%
G36*
X91273225Y-26406387D02*
G01*
X90646447Y-26406387D01*
X90646447Y-26274768D01*
X91273225Y-26274768D01*
X91273225Y-26406387D01*
G37*
G36*
X91273225Y-26406387D02*
G01*
X90646447Y-26406387D01*
X90646447Y-26274768D01*
X91273225Y-26274768D01*
X91273225Y-26406387D01*
G37*
D14*
X91273225Y-26406387D02*
X90646447Y-26406387D01*
X90646447Y-26274768D01*
X91273225Y-26274768D01*
X91273225Y-26406387D01*
X91273225Y-26406387D02*
X90646447Y-26406387D01*
X90646447Y-26274768D01*
X91273225Y-26274768D01*
X91273225Y-26406387D01*
D13*
G36*
X91273232Y-26610120D02*
G01*
X90646454Y-26610120D01*
X90646454Y-26478502D01*
X91273232Y-26478502D01*
X91273232Y-26610120D01*
G37*
G36*
X91273232Y-26610120D02*
G01*
X90646454Y-26610120D01*
X90646454Y-26478502D01*
X91273232Y-26478502D01*
X91273232Y-26610120D01*
G37*
D14*
X91273232Y-26610120D02*
X90646454Y-26610120D01*
X90646454Y-26478502D01*
X91273232Y-26478502D01*
X91273232Y-26610120D01*
X91273232Y-26610120D02*
X90646454Y-26610120D01*
X90646454Y-26478502D01*
X91273232Y-26478502D01*
X91273232Y-26610120D01*
D13*
G36*
X91273238Y-26817053D02*
G01*
X90646460Y-26817053D01*
X90646460Y-26685434D01*
X91273238Y-26685434D01*
X91273238Y-26817053D01*
G37*
G36*
X91273238Y-26817053D02*
G01*
X90646460Y-26817053D01*
X90646460Y-26685434D01*
X91273238Y-26685434D01*
X91273238Y-26817053D01*
G37*
D14*
X91273238Y-26817053D02*
X90646460Y-26817053D01*
X90646460Y-26685434D01*
X91273238Y-26685434D01*
X91273238Y-26817053D01*
X91273238Y-26817053D02*
X90646460Y-26817053D01*
X90646460Y-26685434D01*
X91273238Y-26685434D01*
X91273238Y-26817053D01*
D13*
G36*
X95450582Y-27040441D02*
G01*
X94765717Y-27040441D01*
X94765717Y-27412947D01*
X94438338Y-27412947D01*
X94438338Y-27040441D01*
X94248612Y-27040441D01*
X94248612Y-26747763D01*
X94438338Y-26747763D01*
X94438338Y-26065221D01*
X94765717Y-26065221D01*
X94765717Y-26747763D01*
X95201861Y-26747763D01*
X94765717Y-26065221D01*
X94438338Y-26065221D01*
X94438338Y-25685766D01*
X94795807Y-25685766D01*
X95450582Y-26709587D01*
X95450582Y-26747763D01*
X95450582Y-27040441D01*
G37*
G36*
X97096488Y-25403202D02*
G01*
X97099829Y-25403456D01*
X97103123Y-25403874D01*
X97106363Y-25404453D01*
X97109547Y-25405188D01*
X97112670Y-25406075D01*
X97115727Y-25407110D01*
X97118716Y-25408288D01*
X97121631Y-25409606D01*
X97124469Y-25411060D01*
X97127224Y-25412644D01*
X97129895Y-25414356D01*
X97132475Y-25416191D01*
X97134961Y-25418145D01*
X97137349Y-25420213D01*
X97139635Y-25422392D01*
X97141814Y-25424678D01*
X97143882Y-25427066D01*
X97145836Y-25429552D01*
X97147671Y-25432132D01*
X97149383Y-25434802D01*
X97150968Y-25437558D01*
X97152421Y-25440395D01*
X97153739Y-25443310D01*
X97154917Y-25446299D01*
X97155952Y-25449356D01*
X97156839Y-25452479D01*
X97157574Y-25455662D01*
X97158153Y-25458903D01*
X97158571Y-25462196D01*
X97158825Y-25465538D01*
X97158911Y-25468924D01*
X97158911Y-26188546D01*
X97027292Y-26188546D01*
X97027292Y-25534744D01*
X91275408Y-25534744D01*
X91275408Y-26188546D01*
X91143669Y-26188546D01*
X91143669Y-25468924D01*
X91143754Y-25465538D01*
X91144009Y-25462196D01*
X91144428Y-25458903D01*
X91145008Y-25455662D01*
X91145745Y-25452479D01*
X91146633Y-25449356D01*
X91147670Y-25446299D01*
X91148850Y-25443310D01*
X91150170Y-25440395D01*
X91151626Y-25437558D01*
X91153213Y-25434802D01*
X91154928Y-25432132D01*
X91156765Y-25429552D01*
X91158722Y-25427066D01*
X91160793Y-25424678D01*
X91162975Y-25422392D01*
X91165263Y-25420213D01*
X91167654Y-25418145D01*
X91170143Y-25416191D01*
X91172726Y-25414356D01*
X91175399Y-25412644D01*
X91178157Y-25411060D01*
X91180997Y-25409606D01*
X91183914Y-25408288D01*
X91186904Y-25407110D01*
X91189964Y-25406075D01*
X91193088Y-25405188D01*
X91196273Y-25404453D01*
X91199515Y-25403874D01*
X91202809Y-25403456D01*
X91206152Y-25403202D01*
X91209538Y-25403116D01*
X97093101Y-25403116D01*
X97096488Y-25403202D01*
G37*
G36*
X91275408Y-28462586D02*
G01*
X97027292Y-28462586D01*
X97027292Y-26912479D01*
X97158911Y-26912479D01*
X97158911Y-28528393D01*
X97158825Y-28531780D01*
X97158571Y-28535123D01*
X97158153Y-28538417D01*
X97157574Y-28541659D01*
X97156839Y-28544843D01*
X97155952Y-28547967D01*
X97154917Y-28551025D01*
X97153739Y-28554014D01*
X97152421Y-28556930D01*
X97150968Y-28559768D01*
X97149383Y-28562525D01*
X97147671Y-28565195D01*
X97145836Y-28567776D01*
X97143882Y-28570262D01*
X97141814Y-28572650D01*
X97139635Y-28574936D01*
X97137349Y-28577116D01*
X97134961Y-28579184D01*
X97132475Y-28581138D01*
X97129895Y-28582973D01*
X97127224Y-28584685D01*
X97124469Y-28586270D01*
X97121631Y-28587724D01*
X97118716Y-28589042D01*
X97115727Y-28590220D01*
X97112670Y-28591255D01*
X97109547Y-28592142D01*
X97106363Y-28592877D01*
X97103123Y-28593456D01*
X97099829Y-28593874D01*
X97096488Y-28594128D01*
X97093101Y-28594214D01*
X91209538Y-28594214D01*
X91206152Y-28594128D01*
X91202809Y-28593874D01*
X91199515Y-28593456D01*
X91196273Y-28592877D01*
X91193088Y-28592142D01*
X91189964Y-28591255D01*
X91186904Y-28590220D01*
X91183914Y-28589042D01*
X91180997Y-28587724D01*
X91178157Y-28586270D01*
X91175399Y-28584685D01*
X91172726Y-28582973D01*
X91170143Y-28581138D01*
X91167654Y-28579184D01*
X91165263Y-28577116D01*
X91162975Y-28574936D01*
X91160793Y-28572650D01*
X91158722Y-28570262D01*
X91156765Y-28567776D01*
X91154928Y-28565195D01*
X91153213Y-28562525D01*
X91151626Y-28559768D01*
X91150170Y-28556930D01*
X91148850Y-28554014D01*
X91147670Y-28551025D01*
X91146633Y-28547967D01*
X91145745Y-28544843D01*
X91145008Y-28541659D01*
X91144428Y-28538417D01*
X91144009Y-28535123D01*
X91143754Y-28531780D01*
X91143669Y-28528393D01*
X91143669Y-26912479D01*
X91275408Y-26912479D01*
X91275408Y-28462586D01*
G37*
G36*
X92545118Y-28205560D02*
G01*
X92548302Y-28205773D01*
X92551422Y-28206128D01*
X92554479Y-28206624D01*
X92557472Y-28207261D01*
X92560403Y-28208041D01*
X92563269Y-28208962D01*
X92566073Y-28210025D01*
X92568813Y-28211229D01*
X92571490Y-28212575D01*
X92574104Y-28214063D01*
X92576654Y-28215692D01*
X92579142Y-28217462D01*
X92581565Y-28219374D01*
X92583926Y-28221428D01*
X92586223Y-28223623D01*
X92588418Y-28225930D01*
X92590471Y-28228322D01*
X92592382Y-28230798D01*
X92594152Y-28233358D01*
X92595779Y-28236002D01*
X92597265Y-28238731D01*
X92598610Y-28241543D01*
X92599813Y-28244441D01*
X92600874Y-28247422D01*
X92601793Y-28250488D01*
X92602572Y-28253639D01*
X92603208Y-28256874D01*
X92603703Y-28260193D01*
X92604057Y-28263598D01*
X92604269Y-28267087D01*
X92604340Y-28270660D01*
X92604269Y-28274234D01*
X92604057Y-28277723D01*
X92603703Y-28281128D01*
X92603208Y-28284449D01*
X92602572Y-28287685D01*
X92601793Y-28290837D01*
X92600874Y-28293904D01*
X92599813Y-28296887D01*
X92598610Y-28299786D01*
X92597265Y-28302600D01*
X92595779Y-28305330D01*
X92594152Y-28307975D01*
X92592382Y-28310536D01*
X92590471Y-28313013D01*
X92588418Y-28315405D01*
X92586223Y-28317713D01*
X92583926Y-28319908D01*
X92581565Y-28321961D01*
X92579142Y-28323872D01*
X92576654Y-28325641D01*
X92574104Y-28327269D01*
X92571490Y-28328755D01*
X92568813Y-28330099D01*
X92566073Y-28331302D01*
X92563269Y-28332363D01*
X92560403Y-28333283D01*
X92557472Y-28334061D01*
X92554479Y-28334698D01*
X92551422Y-28335193D01*
X92548302Y-28335546D01*
X92545118Y-28335759D01*
X92541872Y-28335829D01*
X92538625Y-28335759D01*
X92535442Y-28335546D01*
X92532322Y-28335193D01*
X92529267Y-28334698D01*
X92526274Y-28334061D01*
X92523345Y-28333283D01*
X92520480Y-28332363D01*
X92517678Y-28331302D01*
X92514939Y-28330099D01*
X92512263Y-28328755D01*
X92509651Y-28327269D01*
X92507102Y-28325641D01*
X92504616Y-28323872D01*
X92502193Y-28321961D01*
X92499833Y-28319908D01*
X92497536Y-28317713D01*
X92495341Y-28315405D01*
X92493287Y-28313013D01*
X92491375Y-28310536D01*
X92489605Y-28307975D01*
X92487976Y-28305330D01*
X92486488Y-28302600D01*
X92485142Y-28299786D01*
X92483938Y-28296887D01*
X92482875Y-28293904D01*
X92481954Y-28290837D01*
X92481174Y-28287685D01*
X92480537Y-28284449D01*
X92480040Y-28281128D01*
X92479686Y-28277723D01*
X92479473Y-28274234D01*
X92479403Y-28270660D01*
X92479473Y-28267087D01*
X92479686Y-28263598D01*
X92480040Y-28260193D01*
X92480537Y-28256874D01*
X92481174Y-28253639D01*
X92481954Y-28250488D01*
X92482875Y-28247422D01*
X92483938Y-28244441D01*
X92485142Y-28241543D01*
X92486488Y-28238731D01*
X92487976Y-28236002D01*
X92489605Y-28233358D01*
X92491375Y-28230798D01*
X92493287Y-28228322D01*
X92495341Y-28225930D01*
X92497536Y-28223623D01*
X92499833Y-28221428D01*
X92502193Y-28219374D01*
X92504616Y-28217462D01*
X92507102Y-28215692D01*
X92509651Y-28214063D01*
X92512263Y-28212575D01*
X92514939Y-28211229D01*
X92517678Y-28210025D01*
X92520480Y-28208962D01*
X92523345Y-28208041D01*
X92526274Y-28207261D01*
X92529267Y-28206624D01*
X92532322Y-28206128D01*
X92535442Y-28205773D01*
X92538625Y-28205560D01*
X92541872Y-28205490D01*
X92545118Y-28205560D01*
G37*
G36*
X97590744Y-26135334D02*
G01*
X97593896Y-26135559D01*
X97597036Y-26135935D01*
X97600158Y-26136462D01*
X97603257Y-26137139D01*
X97606327Y-26137967D01*
X97609361Y-26138945D01*
X97612355Y-26140074D01*
X97615301Y-26141353D01*
X97618195Y-26142782D01*
X97621030Y-26144362D01*
X97623801Y-26146093D01*
X97626501Y-26147974D01*
X97629125Y-26150005D01*
X97631667Y-26152187D01*
X97634121Y-26154520D01*
X97922384Y-26442775D01*
X97924716Y-26445229D01*
X97926897Y-26447770D01*
X97928927Y-26450394D01*
X97930808Y-26453094D01*
X97932538Y-26455865D01*
X97934117Y-26458699D01*
X97935546Y-26461593D01*
X97936825Y-26464539D01*
X97937953Y-26467533D01*
X97938931Y-26470567D01*
X97939758Y-26473636D01*
X97940435Y-26476735D01*
X97940962Y-26479858D01*
X97941338Y-26482998D01*
X97941563Y-26486149D01*
X97941638Y-26489307D01*
X97941563Y-26492464D01*
X97941338Y-26495616D01*
X97940962Y-26498756D01*
X97940435Y-26501878D01*
X97939758Y-26504977D01*
X97938931Y-26508047D01*
X97937953Y-26511081D01*
X97936825Y-26514075D01*
X97935546Y-26517021D01*
X97934117Y-26519915D01*
X97932538Y-26522750D01*
X97930808Y-26525520D01*
X97928927Y-26528220D01*
X97926897Y-26530844D01*
X97924716Y-26533385D01*
X97922384Y-26535839D01*
X97919930Y-26538173D01*
X97917388Y-26540356D01*
X97914764Y-26542389D01*
X97912063Y-26544271D01*
X97909292Y-26546003D01*
X97906457Y-26547583D01*
X97903563Y-26549014D01*
X97900616Y-26550294D01*
X97897622Y-26551423D01*
X97894587Y-26552402D01*
X97891517Y-26553230D01*
X97888417Y-26553907D01*
X97885294Y-26554434D01*
X97882154Y-26554811D01*
X97879002Y-26555037D01*
X97875843Y-26555112D01*
X97872685Y-26555037D01*
X97869533Y-26554811D01*
X97866392Y-26554434D01*
X97863269Y-26553907D01*
X97860170Y-26553230D01*
X97857100Y-26552402D01*
X97854065Y-26551423D01*
X97851071Y-26550294D01*
X97848124Y-26549014D01*
X97845230Y-26547583D01*
X97842394Y-26546003D01*
X97839623Y-26544271D01*
X97836923Y-26542389D01*
X97834299Y-26540356D01*
X97831757Y-26538173D01*
X97829303Y-26535839D01*
X97704450Y-26410996D01*
X97025001Y-26410996D01*
X97025001Y-26279362D01*
X97572825Y-26279362D01*
X97541053Y-26247584D01*
X97538720Y-26245130D01*
X97536538Y-26242588D01*
X97534506Y-26239964D01*
X97532625Y-26237264D01*
X97530894Y-26234494D01*
X97529314Y-26231659D01*
X97527884Y-26228765D01*
X97526605Y-26225819D01*
X97525476Y-26222825D01*
X97524498Y-26219791D01*
X97523670Y-26216721D01*
X97522993Y-26213622D01*
X97522466Y-26210500D01*
X97522090Y-26207360D01*
X97521864Y-26204208D01*
X97521789Y-26201051D01*
X97521864Y-26197893D01*
X97522090Y-26194742D01*
X97522466Y-26191602D01*
X97522993Y-26188480D01*
X97523670Y-26185381D01*
X97524498Y-26182311D01*
X97525476Y-26179277D01*
X97526605Y-26176284D01*
X97527884Y-26173337D01*
X97529314Y-26170444D01*
X97530894Y-26167609D01*
X97532625Y-26164839D01*
X97534506Y-26162139D01*
X97536538Y-26159515D01*
X97538720Y-26156973D01*
X97541053Y-26154520D01*
X97543507Y-26152187D01*
X97546049Y-26150005D01*
X97548673Y-26147974D01*
X97551373Y-26146093D01*
X97554144Y-26144362D01*
X97556979Y-26142782D01*
X97559873Y-26141353D01*
X97562819Y-26140074D01*
X97565812Y-26138945D01*
X97568847Y-26137967D01*
X97571916Y-26137139D01*
X97575015Y-26136462D01*
X97578138Y-26135935D01*
X97581278Y-26135559D01*
X97584429Y-26135334D01*
X97587587Y-26135258D01*
X97590744Y-26135334D01*
G37*
D15*
X97590744Y-26135334D02*
X97593896Y-26135559D01*
X97597036Y-26135935D01*
X97600158Y-26136462D01*
X97603257Y-26137139D01*
X97606327Y-26137967D01*
X97609361Y-26138945D01*
X97612355Y-26140074D01*
X97615301Y-26141353D01*
X97618195Y-26142782D01*
X97621030Y-26144362D01*
X97623801Y-26146093D01*
X97626501Y-26147974D01*
X97629125Y-26150005D01*
X97631667Y-26152187D01*
X97634121Y-26154520D01*
X97922384Y-26442775D01*
X97924716Y-26445229D01*
X97926897Y-26447770D01*
X97928927Y-26450394D01*
X97930808Y-26453094D01*
X97932538Y-26455865D01*
X97934117Y-26458699D01*
X97935546Y-26461593D01*
X97936825Y-26464539D01*
X97937953Y-26467533D01*
X97938931Y-26470567D01*
X97939758Y-26473636D01*
X97940435Y-26476735D01*
X97940962Y-26479858D01*
X97941338Y-26482998D01*
X97941563Y-26486149D01*
X97941638Y-26489307D01*
X97941563Y-26492464D01*
X97941338Y-26495616D01*
X97940962Y-26498756D01*
X97940435Y-26501878D01*
X97939758Y-26504977D01*
X97938931Y-26508047D01*
X97937953Y-26511081D01*
X97936825Y-26514075D01*
X97935546Y-26517021D01*
X97934117Y-26519915D01*
X97932538Y-26522750D01*
X97930808Y-26525520D01*
X97928927Y-26528220D01*
X97926897Y-26530844D01*
X97924716Y-26533385D01*
X97922384Y-26535839D01*
X97919930Y-26538173D01*
X97917388Y-26540356D01*
X97914764Y-26542389D01*
X97912063Y-26544271D01*
X97909292Y-26546003D01*
X97906457Y-26547583D01*
X97903563Y-26549014D01*
X97900616Y-26550294D01*
X97897622Y-26551423D01*
X97894587Y-26552402D01*
X97891517Y-26553230D01*
X97888417Y-26553907D01*
X97885294Y-26554434D01*
X97882154Y-26554811D01*
X97879002Y-26555037D01*
X97875843Y-26555112D01*
X97872685Y-26555037D01*
X97869533Y-26554811D01*
X97866392Y-26554434D01*
X97863269Y-26553907D01*
X97860170Y-26553230D01*
X97857100Y-26552402D01*
X97854065Y-26551423D01*
X97851071Y-26550294D01*
X97848124Y-26549014D01*
X97845230Y-26547583D01*
X97842394Y-26546003D01*
X97839623Y-26544271D01*
X97836923Y-26542389D01*
X97834299Y-26540356D01*
X97831757Y-26538173D01*
X97829303Y-26535839D01*
X97704450Y-26410996D01*
X97025001Y-26410996D01*
X97025001Y-26279362D01*
X97572825Y-26279362D01*
X97541053Y-26247584D01*
X97538720Y-26245130D01*
X97536538Y-26242588D01*
X97534506Y-26239964D01*
X97532625Y-26237264D01*
X97530894Y-26234494D01*
X97529314Y-26231659D01*
X97527884Y-26228765D01*
X97526605Y-26225819D01*
X97525476Y-26222825D01*
X97524498Y-26219791D01*
X97523670Y-26216721D01*
X97522993Y-26213622D01*
X97522466Y-26210500D01*
X97522090Y-26207360D01*
X97521864Y-26204208D01*
X97521789Y-26201051D01*
X97521864Y-26197893D01*
X97522090Y-26194742D01*
X97522466Y-26191602D01*
X97522993Y-26188480D01*
X97523670Y-26185381D01*
X97524498Y-26182311D01*
X97525476Y-26179277D01*
X97526605Y-26176284D01*
X97527884Y-26173337D01*
X97529314Y-26170444D01*
X97530894Y-26167609D01*
X97532625Y-26164839D01*
X97534506Y-26162139D01*
X97536538Y-26159515D01*
X97538720Y-26156973D01*
X97541053Y-26154520D01*
X97543507Y-26152187D01*
X97546049Y-26150005D01*
X97548673Y-26147974D01*
X97551373Y-26146093D01*
X97554144Y-26144362D01*
X97556979Y-26142782D01*
X97559873Y-26141353D01*
X97562819Y-26140074D01*
X97565812Y-26138945D01*
X97568847Y-26137967D01*
X97571916Y-26137139D01*
X97575015Y-26136462D01*
X97578138Y-26135935D01*
X97581278Y-26135559D01*
X97584429Y-26135334D01*
X97587587Y-26135258D01*
X97590744Y-26135334D01*
D13*
G36*
X97598278Y-26339068D02*
G01*
X97601430Y-26339294D01*
X97604570Y-26339670D01*
X97607692Y-26340196D01*
X97610791Y-26340874D01*
X97613860Y-26341701D01*
X97616895Y-26342679D01*
X97619888Y-26343808D01*
X97622835Y-26345087D01*
X97625729Y-26346517D01*
X97628564Y-26348097D01*
X97631334Y-26349827D01*
X97634035Y-26351708D01*
X97636659Y-26353740D01*
X97639201Y-26355922D01*
X97641655Y-26358254D01*
X97929917Y-26646509D01*
X97932249Y-26648963D01*
X97934430Y-26651505D01*
X97936461Y-26654128D01*
X97938341Y-26656828D01*
X97940071Y-26659599D01*
X97941651Y-26662434D01*
X97943080Y-26665327D01*
X97944358Y-26668274D01*
X97945486Y-26671267D01*
X97946464Y-26674301D01*
X97947292Y-26677371D01*
X97947968Y-26680470D01*
X97948495Y-26683592D01*
X97948871Y-26686732D01*
X97949097Y-26689884D01*
X97949172Y-26693041D01*
X97949097Y-26696199D01*
X97948871Y-26699350D01*
X97948495Y-26702490D01*
X97947968Y-26705613D01*
X97947292Y-26708712D01*
X97946464Y-26711781D01*
X97945486Y-26714816D01*
X97944358Y-26717809D01*
X97943080Y-26720755D01*
X97941651Y-26723649D01*
X97940071Y-26726484D01*
X97938341Y-26729254D01*
X97936461Y-26731954D01*
X97934430Y-26734578D01*
X97932249Y-26737120D01*
X97929917Y-26739574D01*
X97927463Y-26741907D01*
X97924921Y-26744091D01*
X97922297Y-26746123D01*
X97919597Y-26748005D01*
X97916826Y-26749737D01*
X97913990Y-26751318D01*
X97911096Y-26752748D01*
X97908149Y-26754028D01*
X97905155Y-26755157D01*
X97902120Y-26756136D01*
X97899050Y-26756964D01*
X97895951Y-26757642D01*
X97892828Y-26758169D01*
X97889687Y-26758545D01*
X97886535Y-26758771D01*
X97883377Y-26758846D01*
X97880219Y-26758771D01*
X97877066Y-26758545D01*
X97873926Y-26758169D01*
X97870803Y-26757642D01*
X97867703Y-26756964D01*
X97864633Y-26756136D01*
X97861598Y-26755157D01*
X97858604Y-26754028D01*
X97855657Y-26752748D01*
X97852763Y-26751318D01*
X97849928Y-26749737D01*
X97847157Y-26748005D01*
X97844456Y-26746123D01*
X97841832Y-26744091D01*
X97839290Y-26741907D01*
X97836836Y-26739574D01*
X97711983Y-26614731D01*
X97025009Y-26614731D01*
X97025009Y-26483096D01*
X97580359Y-26483096D01*
X97548587Y-26451318D01*
X97546254Y-26448864D01*
X97544072Y-26446322D01*
X97542040Y-26443699D01*
X97540159Y-26440998D01*
X97538428Y-26438228D01*
X97536847Y-26435393D01*
X97535418Y-26432499D01*
X97534138Y-26429553D01*
X97533010Y-26426560D01*
X97532031Y-26423525D01*
X97531204Y-26420456D01*
X97530526Y-26417357D01*
X97530000Y-26414234D01*
X97529623Y-26411094D01*
X97529398Y-26407943D01*
X97529322Y-26404785D01*
X97529398Y-26401628D01*
X97529623Y-26398476D01*
X97530000Y-26395336D01*
X97530526Y-26392214D01*
X97531204Y-26389115D01*
X97532031Y-26386046D01*
X97533010Y-26383011D01*
X97534138Y-26380018D01*
X97535418Y-26377072D01*
X97536847Y-26374178D01*
X97538428Y-26371343D01*
X97540159Y-26368573D01*
X97542040Y-26365873D01*
X97544072Y-26363249D01*
X97546254Y-26360708D01*
X97548587Y-26358254D01*
X97551041Y-26355922D01*
X97553583Y-26353740D01*
X97556207Y-26351708D01*
X97558907Y-26349827D01*
X97561677Y-26348097D01*
X97564512Y-26346517D01*
X97567406Y-26345087D01*
X97570353Y-26343808D01*
X97573346Y-26342679D01*
X97576380Y-26341701D01*
X97579450Y-26340874D01*
X97582549Y-26340196D01*
X97585671Y-26339670D01*
X97588811Y-26339294D01*
X97591963Y-26339068D01*
X97595120Y-26338993D01*
X97598278Y-26339068D01*
G37*
D15*
X97598278Y-26339068D02*
X97601430Y-26339294D01*
X97604570Y-26339670D01*
X97607692Y-26340196D01*
X97610791Y-26340874D01*
X97613860Y-26341701D01*
X97616895Y-26342679D01*
X97619888Y-26343808D01*
X97622835Y-26345087D01*
X97625729Y-26346517D01*
X97628564Y-26348097D01*
X97631334Y-26349827D01*
X97634035Y-26351708D01*
X97636659Y-26353740D01*
X97639201Y-26355922D01*
X97641655Y-26358254D01*
X97929917Y-26646509D01*
X97932249Y-26648963D01*
X97934430Y-26651505D01*
X97936461Y-26654128D01*
X97938341Y-26656828D01*
X97940071Y-26659599D01*
X97941651Y-26662434D01*
X97943080Y-26665327D01*
X97944358Y-26668274D01*
X97945486Y-26671267D01*
X97946464Y-26674301D01*
X97947292Y-26677371D01*
X97947968Y-26680470D01*
X97948495Y-26683592D01*
X97948871Y-26686732D01*
X97949097Y-26689884D01*
X97949172Y-26693041D01*
X97949097Y-26696199D01*
X97948871Y-26699350D01*
X97948495Y-26702490D01*
X97947968Y-26705613D01*
X97947292Y-26708712D01*
X97946464Y-26711781D01*
X97945486Y-26714816D01*
X97944358Y-26717809D01*
X97943080Y-26720755D01*
X97941651Y-26723649D01*
X97940071Y-26726484D01*
X97938341Y-26729254D01*
X97936461Y-26731954D01*
X97934430Y-26734578D01*
X97932249Y-26737120D01*
X97929917Y-26739574D01*
X97927463Y-26741907D01*
X97924921Y-26744091D01*
X97922297Y-26746123D01*
X97919597Y-26748005D01*
X97916826Y-26749737D01*
X97913990Y-26751318D01*
X97911096Y-26752748D01*
X97908149Y-26754028D01*
X97905155Y-26755157D01*
X97902120Y-26756136D01*
X97899050Y-26756964D01*
X97895951Y-26757642D01*
X97892828Y-26758169D01*
X97889687Y-26758545D01*
X97886535Y-26758771D01*
X97883377Y-26758846D01*
X97880219Y-26758771D01*
X97877066Y-26758545D01*
X97873926Y-26758169D01*
X97870803Y-26757642D01*
X97867703Y-26756964D01*
X97864633Y-26756136D01*
X97861598Y-26755157D01*
X97858604Y-26754028D01*
X97855657Y-26752748D01*
X97852763Y-26751318D01*
X97849928Y-26749737D01*
X97847157Y-26748005D01*
X97844456Y-26746123D01*
X97841832Y-26744091D01*
X97839290Y-26741907D01*
X97836836Y-26739574D01*
X97711983Y-26614731D01*
X97025009Y-26614731D01*
X97025009Y-26483096D01*
X97580359Y-26483096D01*
X97548587Y-26451318D01*
X97546254Y-26448864D01*
X97544072Y-26446322D01*
X97542040Y-26443699D01*
X97540159Y-26440998D01*
X97538428Y-26438228D01*
X97536847Y-26435393D01*
X97535418Y-26432499D01*
X97534138Y-26429553D01*
X97533010Y-26426560D01*
X97532031Y-26423525D01*
X97531204Y-26420456D01*
X97530526Y-26417357D01*
X97530000Y-26414234D01*
X97529623Y-26411094D01*
X97529398Y-26407943D01*
X97529322Y-26404785D01*
X97529398Y-26401628D01*
X97529623Y-26398476D01*
X97530000Y-26395336D01*
X97530526Y-26392214D01*
X97531204Y-26389115D01*
X97532031Y-26386046D01*
X97533010Y-26383011D01*
X97534138Y-26380018D01*
X97535418Y-26377072D01*
X97536847Y-26374178D01*
X97538428Y-26371343D01*
X97540159Y-26368573D01*
X97542040Y-26365873D01*
X97544072Y-26363249D01*
X97546254Y-26360708D01*
X97548587Y-26358254D01*
X97551041Y-26355922D01*
X97553583Y-26353740D01*
X97556207Y-26351708D01*
X97558907Y-26349827D01*
X97561677Y-26348097D01*
X97564512Y-26346517D01*
X97567406Y-26345087D01*
X97570353Y-26343808D01*
X97573346Y-26342679D01*
X97576380Y-26341701D01*
X97579450Y-26340874D01*
X97582549Y-26340196D01*
X97585671Y-26339670D01*
X97588811Y-26339294D01*
X97591963Y-26339068D01*
X97595120Y-26338993D01*
X97598278Y-26339068D01*
D13*
G36*
X97606539Y-26546000D02*
G01*
X97609691Y-26546225D01*
X97612831Y-26546602D01*
X97615953Y-26547128D01*
X97619052Y-26547805D01*
X97622122Y-26548633D01*
X97625156Y-26549611D01*
X97628149Y-26550740D01*
X97631096Y-26552019D01*
X97633990Y-26553448D01*
X97636825Y-26555028D01*
X97639595Y-26556759D01*
X97642296Y-26558640D01*
X97644920Y-26560671D01*
X97647462Y-26562853D01*
X97649916Y-26565186D01*
X97938179Y-26853441D01*
X97940510Y-26855895D01*
X97942691Y-26858437D01*
X97944722Y-26861060D01*
X97946602Y-26863760D01*
X97948332Y-26866531D01*
X97949912Y-26869366D01*
X97951341Y-26872259D01*
X97952619Y-26875205D01*
X97953748Y-26878199D01*
X97954725Y-26881233D01*
X97955553Y-26884303D01*
X97956230Y-26887401D01*
X97956756Y-26890524D01*
X97957132Y-26893664D01*
X97957358Y-26896815D01*
X97957433Y-26899973D01*
X97957358Y-26903131D01*
X97957132Y-26906282D01*
X97956756Y-26909422D01*
X97956230Y-26912545D01*
X97955553Y-26915643D01*
X97954725Y-26918713D01*
X97953748Y-26921747D01*
X97952619Y-26924741D01*
X97951341Y-26927687D01*
X97949912Y-26930581D01*
X97948332Y-26933416D01*
X97946602Y-26936186D01*
X97944722Y-26938886D01*
X97942691Y-26941510D01*
X97940510Y-26944052D01*
X97938179Y-26946505D01*
X97935725Y-26948839D01*
X97933182Y-26951022D01*
X97930558Y-26953055D01*
X97927858Y-26954937D01*
X97925087Y-26956669D01*
X97922252Y-26958250D01*
X97919357Y-26959680D01*
X97916410Y-26960960D01*
X97913417Y-26962089D01*
X97910382Y-26963068D01*
X97907311Y-26963896D01*
X97904212Y-26964574D01*
X97901089Y-26965100D01*
X97897948Y-26965477D01*
X97894796Y-26965703D01*
X97891638Y-26965778D01*
X97888480Y-26965703D01*
X97885327Y-26965477D01*
X97882187Y-26965100D01*
X97879064Y-26964574D01*
X97875964Y-26963896D01*
X97872894Y-26963068D01*
X97869859Y-26962089D01*
X97866865Y-26960960D01*
X97863919Y-26959680D01*
X97861024Y-26958250D01*
X97858189Y-26956669D01*
X97855418Y-26954937D01*
X97852718Y-26953055D01*
X97850093Y-26951022D01*
X97847551Y-26948839D01*
X97845097Y-26946505D01*
X97720244Y-26821662D01*
X97025006Y-26821662D01*
X97025006Y-26690028D01*
X97588620Y-26690028D01*
X97556848Y-26658250D01*
X97554515Y-26655796D01*
X97552333Y-26653254D01*
X97550301Y-26650630D01*
X97548420Y-26647930D01*
X97546689Y-26645160D01*
X97545109Y-26642325D01*
X97543679Y-26639431D01*
X97542400Y-26636485D01*
X97541271Y-26633491D01*
X97540293Y-26630457D01*
X97539465Y-26627387D01*
X97538788Y-26624288D01*
X97538261Y-26621166D01*
X97537885Y-26618026D01*
X97537659Y-26614875D01*
X97537584Y-26611717D01*
X97537659Y-26608560D01*
X97537885Y-26605408D01*
X97538261Y-26602268D01*
X97538788Y-26599146D01*
X97539465Y-26596047D01*
X97540293Y-26592977D01*
X97541271Y-26589943D01*
X97542400Y-26586950D01*
X97543679Y-26584003D01*
X97545109Y-26581110D01*
X97546689Y-26578275D01*
X97548420Y-26575505D01*
X97550301Y-26572805D01*
X97552333Y-26570181D01*
X97554515Y-26567639D01*
X97556848Y-26565186D01*
X97559302Y-26562853D01*
X97561844Y-26560671D01*
X97564468Y-26558640D01*
X97567168Y-26556759D01*
X97569939Y-26555028D01*
X97572774Y-26553448D01*
X97575667Y-26552019D01*
X97578614Y-26550740D01*
X97581607Y-26549611D01*
X97584642Y-26548633D01*
X97587711Y-26547805D01*
X97590810Y-26547128D01*
X97593932Y-26546602D01*
X97597072Y-26546225D01*
X97600224Y-26546000D01*
X97603382Y-26545924D01*
X97606539Y-26546000D01*
G37*
D15*
X97606539Y-26546000D02*
X97609691Y-26546225D01*
X97612831Y-26546602D01*
X97615953Y-26547128D01*
X97619052Y-26547805D01*
X97622122Y-26548633D01*
X97625156Y-26549611D01*
X97628149Y-26550740D01*
X97631096Y-26552019D01*
X97633990Y-26553448D01*
X97636825Y-26555028D01*
X97639595Y-26556759D01*
X97642296Y-26558640D01*
X97644920Y-26560671D01*
X97647462Y-26562853D01*
X97649916Y-26565186D01*
X97938179Y-26853441D01*
X97940510Y-26855895D01*
X97942691Y-26858437D01*
X97944722Y-26861060D01*
X97946602Y-26863760D01*
X97948332Y-26866531D01*
X97949912Y-26869366D01*
X97951341Y-26872259D01*
X97952619Y-26875205D01*
X97953748Y-26878199D01*
X97954725Y-26881233D01*
X97955553Y-26884303D01*
X97956230Y-26887401D01*
X97956756Y-26890524D01*
X97957132Y-26893664D01*
X97957358Y-26896815D01*
X97957433Y-26899973D01*
X97957358Y-26903131D01*
X97957132Y-26906282D01*
X97956756Y-26909422D01*
X97956230Y-26912545D01*
X97955553Y-26915643D01*
X97954725Y-26918713D01*
X97953748Y-26921747D01*
X97952619Y-26924741D01*
X97951341Y-26927687D01*
X97949912Y-26930581D01*
X97948332Y-26933416D01*
X97946602Y-26936186D01*
X97944722Y-26938886D01*
X97942691Y-26941510D01*
X97940510Y-26944052D01*
X97938179Y-26946505D01*
X97935725Y-26948839D01*
X97933182Y-26951022D01*
X97930558Y-26953055D01*
X97927858Y-26954937D01*
X97925087Y-26956669D01*
X97922252Y-26958250D01*
X97919357Y-26959680D01*
X97916410Y-26960960D01*
X97913417Y-26962089D01*
X97910382Y-26963068D01*
X97907311Y-26963896D01*
X97904212Y-26964574D01*
X97901089Y-26965100D01*
X97897948Y-26965477D01*
X97894796Y-26965703D01*
X97891638Y-26965778D01*
X97888480Y-26965703D01*
X97885327Y-26965477D01*
X97882187Y-26965100D01*
X97879064Y-26964574D01*
X97875964Y-26963896D01*
X97872894Y-26963068D01*
X97869859Y-26962089D01*
X97866865Y-26960960D01*
X97863919Y-26959680D01*
X97861024Y-26958250D01*
X97858189Y-26956669D01*
X97855418Y-26954937D01*
X97852718Y-26953055D01*
X97850093Y-26951022D01*
X97847551Y-26948839D01*
X97845097Y-26946505D01*
X97720244Y-26821662D01*
X97025006Y-26821662D01*
X97025006Y-26690028D01*
X97588620Y-26690028D01*
X97556848Y-26658250D01*
X97554515Y-26655796D01*
X97552333Y-26653254D01*
X97550301Y-26650630D01*
X97548420Y-26647930D01*
X97546689Y-26645160D01*
X97545109Y-26642325D01*
X97543679Y-26639431D01*
X97542400Y-26636485D01*
X97541271Y-26633491D01*
X97540293Y-26630457D01*
X97539465Y-26627387D01*
X97538788Y-26624288D01*
X97538261Y-26621166D01*
X97537885Y-26618026D01*
X97537659Y-26614875D01*
X97537584Y-26611717D01*
X97537659Y-26608560D01*
X97537885Y-26605408D01*
X97538261Y-26602268D01*
X97538788Y-26599146D01*
X97539465Y-26596047D01*
X97540293Y-26592977D01*
X97541271Y-26589943D01*
X97542400Y-26586950D01*
X97543679Y-26584003D01*
X97545109Y-26581110D01*
X97546689Y-26578275D01*
X97548420Y-26575505D01*
X97550301Y-26572805D01*
X97552333Y-26570181D01*
X97554515Y-26567639D01*
X97556848Y-26565186D01*
X97559302Y-26562853D01*
X97561844Y-26560671D01*
X97564468Y-26558640D01*
X97567168Y-26556759D01*
X97569939Y-26555028D01*
X97572774Y-26553448D01*
X97575667Y-26552019D01*
X97578614Y-26550740D01*
X97581607Y-26549611D01*
X97584642Y-26548633D01*
X97587711Y-26547805D01*
X97590810Y-26547128D01*
X97593932Y-26546602D01*
X97597072Y-26546225D01*
X97600224Y-26546000D01*
X97603382Y-26545924D01*
X97606539Y-26546000D01*
D13*
G36*
X96546080Y-27719285D02*
G01*
X96549232Y-27719510D01*
X96552372Y-27719887D01*
X96555494Y-27720413D01*
X96558593Y-27721090D01*
X96561663Y-27721918D01*
X96564697Y-27722896D01*
X96567691Y-27724025D01*
X96570637Y-27725304D01*
X96573531Y-27726733D01*
X96576366Y-27728313D01*
X96579137Y-27730044D01*
X96581837Y-27731925D01*
X96584461Y-27733956D01*
X96587003Y-27736138D01*
X96589457Y-27738471D01*
X96877720Y-28026726D01*
X96880051Y-28029180D01*
X96882232Y-28031722D01*
X96884263Y-28034345D01*
X96886144Y-28037045D01*
X96887873Y-28039816D01*
X96889453Y-28042651D01*
X96890882Y-28045544D01*
X96892161Y-28048491D01*
X96893289Y-28051484D01*
X96894267Y-28054518D01*
X96895094Y-28057588D01*
X96895771Y-28060687D01*
X96896297Y-28063809D01*
X96896673Y-28066949D01*
X96896899Y-28070100D01*
X96896974Y-28073258D01*
X96896899Y-28076416D01*
X96896673Y-28079567D01*
X96896297Y-28082707D01*
X96895771Y-28085830D01*
X96895094Y-28088928D01*
X96894267Y-28091998D01*
X96893289Y-28095032D01*
X96892161Y-28098026D01*
X96890882Y-28100972D01*
X96889453Y-28103866D01*
X96887873Y-28106701D01*
X96886144Y-28109471D01*
X96884263Y-28112171D01*
X96882232Y-28114795D01*
X96880051Y-28117337D01*
X96877720Y-28119791D01*
X96875266Y-28122124D01*
X96872724Y-28124308D01*
X96870099Y-28126340D01*
X96867399Y-28128222D01*
X96864628Y-28129954D01*
X96861793Y-28131535D01*
X96858899Y-28132965D01*
X96855952Y-28134245D01*
X96852958Y-28135374D01*
X96849923Y-28136353D01*
X96846853Y-28137181D01*
X96843753Y-28137859D01*
X96840630Y-28138386D01*
X96837490Y-28138762D01*
X96834337Y-28138988D01*
X96831179Y-28139063D01*
X96828021Y-28138988D01*
X96824869Y-28138762D01*
X96821728Y-28138386D01*
X96818605Y-28137859D01*
X96815506Y-28137181D01*
X96812435Y-28136353D01*
X96809400Y-28135374D01*
X96806407Y-28134245D01*
X96803460Y-28132965D01*
X96800565Y-28131535D01*
X96797730Y-28129954D01*
X96794959Y-28128222D01*
X96792259Y-28126340D01*
X96789635Y-28124308D01*
X96787092Y-28122124D01*
X96784638Y-28119791D01*
X96659785Y-27994947D01*
X92959201Y-27994947D01*
X92955816Y-27994862D01*
X92952476Y-27994607D01*
X92949184Y-27994189D01*
X92945945Y-27993609D01*
X92942763Y-27992874D01*
X92939641Y-27991986D01*
X92936585Y-27990951D01*
X92933597Y-27989772D01*
X92930683Y-27988453D01*
X92927846Y-27986999D01*
X92925091Y-27985414D01*
X92922422Y-27983701D01*
X92919842Y-27981865D01*
X92917357Y-27979911D01*
X92914969Y-27977841D01*
X92912684Y-27975662D01*
X92910505Y-27973375D01*
X92908437Y-27970987D01*
X92906484Y-27968500D01*
X92904649Y-27965919D01*
X92902937Y-27963249D01*
X92901353Y-27960492D01*
X92899899Y-27957655D01*
X92898581Y-27954740D01*
X92897403Y-27951751D01*
X92896368Y-27948694D01*
X92895481Y-27945571D01*
X92894746Y-27942388D01*
X92894168Y-27939148D01*
X92893749Y-27935855D01*
X92893495Y-27932515D01*
X92893409Y-27929130D01*
X92893495Y-27925746D01*
X92893749Y-27922406D01*
X92894168Y-27919115D01*
X92894746Y-27915876D01*
X92895481Y-27912694D01*
X92896368Y-27909572D01*
X92897403Y-27906515D01*
X92898581Y-27903527D01*
X92899899Y-27900612D01*
X92901353Y-27897774D01*
X92902937Y-27895018D01*
X92904649Y-27892348D01*
X92906484Y-27889767D01*
X92908437Y-27887280D01*
X92910505Y-27884891D01*
X92912684Y-27882604D01*
X92914969Y-27880424D01*
X92917357Y-27878354D01*
X92919842Y-27876400D01*
X92922422Y-27874563D01*
X92925091Y-27872850D01*
X92927846Y-27871264D01*
X92930683Y-27869810D01*
X92933597Y-27868490D01*
X92936585Y-27867311D01*
X92939641Y-27866275D01*
X92942763Y-27865387D01*
X92945945Y-27864652D01*
X92949184Y-27864072D01*
X92952476Y-27863653D01*
X92955816Y-27863399D01*
X92959201Y-27863313D01*
X96528161Y-27863313D01*
X96496389Y-27831535D01*
X96494056Y-27829081D01*
X96491874Y-27826539D01*
X96489842Y-27823915D01*
X96487961Y-27821215D01*
X96486230Y-27818445D01*
X96484650Y-27815610D01*
X96483220Y-27812716D01*
X96481941Y-27809770D01*
X96480812Y-27806776D01*
X96479834Y-27803742D01*
X96479006Y-27800672D01*
X96478329Y-27797574D01*
X96477802Y-27794451D01*
X96477426Y-27791311D01*
X96477200Y-27788160D01*
X96477125Y-27785002D01*
X96477200Y-27781845D01*
X96477426Y-27778693D01*
X96477802Y-27775553D01*
X96478329Y-27772431D01*
X96479006Y-27769332D01*
X96479834Y-27766262D01*
X96480812Y-27763228D01*
X96481941Y-27760235D01*
X96483220Y-27757288D01*
X96484650Y-27754395D01*
X96486230Y-27751560D01*
X96487961Y-27748790D01*
X96489842Y-27746090D01*
X96491874Y-27743466D01*
X96494056Y-27740924D01*
X96496389Y-27738471D01*
X96498843Y-27736138D01*
X96501385Y-27733956D01*
X96504009Y-27731925D01*
X96506709Y-27730044D01*
X96509480Y-27728313D01*
X96512315Y-27726733D01*
X96515208Y-27725304D01*
X96518155Y-27724025D01*
X96521148Y-27722896D01*
X96524183Y-27721918D01*
X96527252Y-27721090D01*
X96530351Y-27720413D01*
X96533473Y-27719887D01*
X96536613Y-27719510D01*
X96539765Y-27719285D01*
X96542923Y-27719209D01*
X96546080Y-27719285D01*
G37*
D15*
X96546080Y-27719285D02*
X96549232Y-27719510D01*
X96552372Y-27719887D01*
X96555494Y-27720413D01*
X96558593Y-27721090D01*
X96561663Y-27721918D01*
X96564697Y-27722896D01*
X96567691Y-27724025D01*
X96570637Y-27725304D01*
X96573531Y-27726733D01*
X96576366Y-27728313D01*
X96579137Y-27730044D01*
X96581837Y-27731925D01*
X96584461Y-27733956D01*
X96587003Y-27736138D01*
X96589457Y-27738471D01*
X96877720Y-28026726D01*
X96880051Y-28029180D01*
X96882232Y-28031722D01*
X96884263Y-28034345D01*
X96886144Y-28037045D01*
X96887873Y-28039816D01*
X96889453Y-28042651D01*
X96890882Y-28045544D01*
X96892161Y-28048491D01*
X96893289Y-28051484D01*
X96894267Y-28054518D01*
X96895094Y-28057588D01*
X96895771Y-28060687D01*
X96896297Y-28063809D01*
X96896673Y-28066949D01*
X96896899Y-28070100D01*
X96896974Y-28073258D01*
X96896899Y-28076416D01*
X96896673Y-28079567D01*
X96896297Y-28082707D01*
X96895771Y-28085830D01*
X96895094Y-28088928D01*
X96894267Y-28091998D01*
X96893289Y-28095032D01*
X96892161Y-28098026D01*
X96890882Y-28100972D01*
X96889453Y-28103866D01*
X96887873Y-28106701D01*
X96886144Y-28109471D01*
X96884263Y-28112171D01*
X96882232Y-28114795D01*
X96880051Y-28117337D01*
X96877720Y-28119791D01*
X96875266Y-28122124D01*
X96872724Y-28124308D01*
X96870099Y-28126340D01*
X96867399Y-28128222D01*
X96864628Y-28129954D01*
X96861793Y-28131535D01*
X96858899Y-28132965D01*
X96855952Y-28134245D01*
X96852958Y-28135374D01*
X96849923Y-28136353D01*
X96846853Y-28137181D01*
X96843753Y-28137859D01*
X96840630Y-28138386D01*
X96837490Y-28138762D01*
X96834337Y-28138988D01*
X96831179Y-28139063D01*
X96828021Y-28138988D01*
X96824869Y-28138762D01*
X96821728Y-28138386D01*
X96818605Y-28137859D01*
X96815506Y-28137181D01*
X96812435Y-28136353D01*
X96809400Y-28135374D01*
X96806407Y-28134245D01*
X96803460Y-28132965D01*
X96800565Y-28131535D01*
X96797730Y-28129954D01*
X96794959Y-28128222D01*
X96792259Y-28126340D01*
X96789635Y-28124308D01*
X96787092Y-28122124D01*
X96784638Y-28119791D01*
X96659785Y-27994947D01*
X92959201Y-27994947D01*
X92955816Y-27994862D01*
X92952476Y-27994607D01*
X92949184Y-27994189D01*
X92945945Y-27993609D01*
X92942763Y-27992874D01*
X92939641Y-27991986D01*
X92936585Y-27990951D01*
X92933597Y-27989772D01*
X92930683Y-27988453D01*
X92927846Y-27986999D01*
X92925091Y-27985414D01*
X92922422Y-27983701D01*
X92919842Y-27981865D01*
X92917357Y-27979911D01*
X92914969Y-27977841D01*
X92912684Y-27975662D01*
X92910505Y-27973375D01*
X92908437Y-27970987D01*
X92906484Y-27968500D01*
X92904649Y-27965919D01*
X92902937Y-27963249D01*
X92901353Y-27960492D01*
X92899899Y-27957655D01*
X92898581Y-27954740D01*
X92897403Y-27951751D01*
X92896368Y-27948694D01*
X92895481Y-27945571D01*
X92894746Y-27942388D01*
X92894168Y-27939148D01*
X92893749Y-27935855D01*
X92893495Y-27932515D01*
X92893409Y-27929130D01*
X92893495Y-27925746D01*
X92893749Y-27922406D01*
X92894168Y-27919115D01*
X92894746Y-27915876D01*
X92895481Y-27912694D01*
X92896368Y-27909572D01*
X92897403Y-27906515D01*
X92898581Y-27903527D01*
X92899899Y-27900612D01*
X92901353Y-27897774D01*
X92902937Y-27895018D01*
X92904649Y-27892348D01*
X92906484Y-27889767D01*
X92908437Y-27887280D01*
X92910505Y-27884891D01*
X92912684Y-27882604D01*
X92914969Y-27880424D01*
X92917357Y-27878354D01*
X92919842Y-27876400D01*
X92922422Y-27874563D01*
X92925091Y-27872850D01*
X92927846Y-27871264D01*
X92930683Y-27869810D01*
X92933597Y-27868490D01*
X92936585Y-27867311D01*
X92939641Y-27866275D01*
X92942763Y-27865387D01*
X92945945Y-27864652D01*
X92949184Y-27864072D01*
X92952476Y-27863653D01*
X92955816Y-27863399D01*
X92959201Y-27863313D01*
X96528161Y-27863313D01*
X96496389Y-27831535D01*
X96494056Y-27829081D01*
X96491874Y-27826539D01*
X96489842Y-27823915D01*
X96487961Y-27821215D01*
X96486230Y-27818445D01*
X96484650Y-27815610D01*
X96483220Y-27812716D01*
X96481941Y-27809770D01*
X96480812Y-27806776D01*
X96479834Y-27803742D01*
X96479006Y-27800672D01*
X96478329Y-27797574D01*
X96477802Y-27794451D01*
X96477426Y-27791311D01*
X96477200Y-27788160D01*
X96477125Y-27785002D01*
X96477200Y-27781845D01*
X96477426Y-27778693D01*
X96477802Y-27775553D01*
X96478329Y-27772431D01*
X96479006Y-27769332D01*
X96479834Y-27766262D01*
X96480812Y-27763228D01*
X96481941Y-27760235D01*
X96483220Y-27757288D01*
X96484650Y-27754395D01*
X96486230Y-27751560D01*
X96487961Y-27748790D01*
X96489842Y-27746090D01*
X96491874Y-27743466D01*
X96494056Y-27740924D01*
X96496389Y-27738471D01*
X96498843Y-27736138D01*
X96501385Y-27733956D01*
X96504009Y-27731925D01*
X96506709Y-27730044D01*
X96509480Y-27728313D01*
X96512315Y-27726733D01*
X96515208Y-27725304D01*
X96518155Y-27724025D01*
X96521148Y-27722896D01*
X96524183Y-27721918D01*
X96527252Y-27721090D01*
X96530351Y-27720413D01*
X96533473Y-27719887D01*
X96536613Y-27719510D01*
X96539765Y-27719285D01*
X96542923Y-27719209D01*
X96546080Y-27719285D01*
D13*
G36*
X96553615Y-27923019D02*
G01*
X96556766Y-27923245D01*
X96559906Y-27923621D01*
X96563029Y-27924148D01*
X96566128Y-27924825D01*
X96569197Y-27925652D01*
X96572232Y-27926631D01*
X96575225Y-27927759D01*
X96578172Y-27929038D01*
X96581065Y-27930468D01*
X96583900Y-27932048D01*
X96586671Y-27933778D01*
X96589371Y-27935659D01*
X96591995Y-27937691D01*
X96594537Y-27939873D01*
X96596992Y-27942205D01*
X96885254Y-28230461D01*
X96887586Y-28232914D01*
X96889767Y-28235456D01*
X96891798Y-28238080D01*
X96893678Y-28240780D01*
X96895408Y-28243550D01*
X96896987Y-28246385D01*
X96898416Y-28249279D01*
X96899695Y-28252225D01*
X96900823Y-28255218D01*
X96901801Y-28258253D01*
X96902628Y-28261322D01*
X96903305Y-28264421D01*
X96903832Y-28267543D01*
X96904208Y-28270683D01*
X96904433Y-28273835D01*
X96904509Y-28276992D01*
X96904433Y-28280150D01*
X96904208Y-28283302D01*
X96903832Y-28286442D01*
X96903305Y-28289564D01*
X96902628Y-28292663D01*
X96901801Y-28295732D01*
X96900823Y-28298767D01*
X96899695Y-28301760D01*
X96898416Y-28304706D01*
X96896987Y-28307600D01*
X96895408Y-28310435D01*
X96893678Y-28313205D01*
X96891798Y-28315906D01*
X96889767Y-28318529D01*
X96887586Y-28321071D01*
X96885254Y-28323525D01*
X96882800Y-28325858D01*
X96880258Y-28328042D01*
X96877634Y-28330074D01*
X96874933Y-28331957D01*
X96872163Y-28333688D01*
X96869327Y-28335269D01*
X96866433Y-28336699D01*
X96863486Y-28337979D01*
X96860492Y-28339109D01*
X96857457Y-28340087D01*
X96854387Y-28340915D01*
X96851288Y-28341593D01*
X96848165Y-28342120D01*
X96845024Y-28342496D01*
X96841872Y-28342722D01*
X96838714Y-28342797D01*
X96835555Y-28342722D01*
X96832403Y-28342496D01*
X96829262Y-28342120D01*
X96826140Y-28341593D01*
X96823040Y-28340915D01*
X96819970Y-28340087D01*
X96816935Y-28339109D01*
X96813941Y-28337979D01*
X96810994Y-28336699D01*
X96808100Y-28335269D01*
X96805265Y-28333688D01*
X96802494Y-28331957D01*
X96799793Y-28330074D01*
X96797169Y-28328042D01*
X96794627Y-28325858D01*
X96792173Y-28323525D01*
X96667320Y-28198682D01*
X92966735Y-28198682D01*
X92963351Y-28198596D01*
X92960011Y-28198342D01*
X92956719Y-28197923D01*
X92953480Y-28197344D01*
X92950297Y-28196608D01*
X92947176Y-28195721D01*
X92944119Y-28194685D01*
X92941132Y-28193506D01*
X92938218Y-28192188D01*
X92935381Y-28190733D01*
X92932626Y-28189148D01*
X92929956Y-28187435D01*
X92927377Y-28185600D01*
X92924891Y-28183645D01*
X92922504Y-28181576D01*
X92920219Y-28179396D01*
X92918040Y-28177110D01*
X92915972Y-28174721D01*
X92914018Y-28172234D01*
X92912183Y-28169654D01*
X92910472Y-28166983D01*
X92908887Y-28164227D01*
X92907434Y-28161389D01*
X92906116Y-28158474D01*
X92904937Y-28155485D01*
X92903903Y-28152428D01*
X92903016Y-28149305D01*
X92902281Y-28146122D01*
X92901702Y-28142882D01*
X92901284Y-28139590D01*
X92901029Y-28136249D01*
X92900944Y-28132864D01*
X92901029Y-28129480D01*
X92901284Y-28126141D01*
X92901702Y-28122849D01*
X92902281Y-28119610D01*
X92903016Y-28116428D01*
X92903903Y-28113306D01*
X92904937Y-28110249D01*
X92906116Y-28107261D01*
X92907434Y-28104346D01*
X92908887Y-28101508D01*
X92910472Y-28098752D01*
X92912183Y-28096082D01*
X92914018Y-28093501D01*
X92915972Y-28091014D01*
X92918040Y-28088625D01*
X92920219Y-28086339D01*
X92922504Y-28084158D01*
X92924891Y-28082089D01*
X92927377Y-28080134D01*
X92929956Y-28078298D01*
X92932626Y-28076584D01*
X92935381Y-28074998D01*
X92938218Y-28073544D01*
X92941132Y-28072225D01*
X92944119Y-28071045D01*
X92947176Y-28070009D01*
X92950297Y-28069122D01*
X92953480Y-28068386D01*
X92956719Y-28067806D01*
X92960011Y-28067387D01*
X92963351Y-28067133D01*
X92966735Y-28067047D01*
X96535695Y-28067047D01*
X96503923Y-28035269D01*
X96501591Y-28032815D01*
X96499408Y-28030274D01*
X96497377Y-28027650D01*
X96495495Y-28024950D01*
X96493765Y-28022179D01*
X96492184Y-28019344D01*
X96490755Y-28016451D01*
X96489475Y-28013504D01*
X96488346Y-28010511D01*
X96487368Y-28007476D01*
X96486540Y-28004407D01*
X96485863Y-28001308D01*
X96485336Y-27998186D01*
X96484960Y-27995046D01*
X96484734Y-27991894D01*
X96484659Y-27988736D01*
X96484734Y-27985579D01*
X96484960Y-27982427D01*
X96485336Y-27979287D01*
X96485863Y-27976165D01*
X96486540Y-27973066D01*
X96487368Y-27969997D01*
X96488346Y-27966962D01*
X96489475Y-27963969D01*
X96490755Y-27961023D01*
X96492184Y-27958129D01*
X96493765Y-27955294D01*
X96495495Y-27952524D01*
X96497377Y-27949824D01*
X96499408Y-27947200D01*
X96501591Y-27944659D01*
X96503923Y-27942205D01*
X96506377Y-27939873D01*
X96508919Y-27937691D01*
X96511543Y-27935659D01*
X96514244Y-27933778D01*
X96517014Y-27932048D01*
X96519849Y-27930468D01*
X96522743Y-27929038D01*
X96525689Y-27927759D01*
X96528683Y-27926631D01*
X96531717Y-27925652D01*
X96534787Y-27924825D01*
X96537886Y-27924148D01*
X96541008Y-27923621D01*
X96544148Y-27923245D01*
X96547300Y-27923019D01*
X96550457Y-27922944D01*
X96553615Y-27923019D01*
G37*
D15*
X96553615Y-27923019D02*
X96556766Y-27923245D01*
X96559906Y-27923621D01*
X96563029Y-27924148D01*
X96566128Y-27924825D01*
X96569197Y-27925652D01*
X96572232Y-27926631D01*
X96575225Y-27927759D01*
X96578172Y-27929038D01*
X96581065Y-27930468D01*
X96583900Y-27932048D01*
X96586671Y-27933778D01*
X96589371Y-27935659D01*
X96591995Y-27937691D01*
X96594537Y-27939873D01*
X96596992Y-27942205D01*
X96885254Y-28230461D01*
X96887586Y-28232914D01*
X96889767Y-28235456D01*
X96891798Y-28238080D01*
X96893678Y-28240780D01*
X96895408Y-28243550D01*
X96896987Y-28246385D01*
X96898416Y-28249279D01*
X96899695Y-28252225D01*
X96900823Y-28255218D01*
X96901801Y-28258253D01*
X96902628Y-28261322D01*
X96903305Y-28264421D01*
X96903832Y-28267543D01*
X96904208Y-28270683D01*
X96904433Y-28273835D01*
X96904509Y-28276992D01*
X96904433Y-28280150D01*
X96904208Y-28283302D01*
X96903832Y-28286442D01*
X96903305Y-28289564D01*
X96902628Y-28292663D01*
X96901801Y-28295732D01*
X96900823Y-28298767D01*
X96899695Y-28301760D01*
X96898416Y-28304706D01*
X96896987Y-28307600D01*
X96895408Y-28310435D01*
X96893678Y-28313205D01*
X96891798Y-28315906D01*
X96889767Y-28318529D01*
X96887586Y-28321071D01*
X96885254Y-28323525D01*
X96882800Y-28325858D01*
X96880258Y-28328042D01*
X96877634Y-28330074D01*
X96874933Y-28331957D01*
X96872163Y-28333688D01*
X96869327Y-28335269D01*
X96866433Y-28336699D01*
X96863486Y-28337979D01*
X96860492Y-28339109D01*
X96857457Y-28340087D01*
X96854387Y-28340915D01*
X96851288Y-28341593D01*
X96848165Y-28342120D01*
X96845024Y-28342496D01*
X96841872Y-28342722D01*
X96838714Y-28342797D01*
X96835555Y-28342722D01*
X96832403Y-28342496D01*
X96829262Y-28342120D01*
X96826140Y-28341593D01*
X96823040Y-28340915D01*
X96819970Y-28340087D01*
X96816935Y-28339109D01*
X96813941Y-28337979D01*
X96810994Y-28336699D01*
X96808100Y-28335269D01*
X96805265Y-28333688D01*
X96802494Y-28331957D01*
X96799793Y-28330074D01*
X96797169Y-28328042D01*
X96794627Y-28325858D01*
X96792173Y-28323525D01*
X96667320Y-28198682D01*
X92966735Y-28198682D01*
X92963351Y-28198596D01*
X92960011Y-28198342D01*
X92956719Y-28197923D01*
X92953480Y-28197344D01*
X92950297Y-28196608D01*
X92947176Y-28195721D01*
X92944119Y-28194685D01*
X92941132Y-28193506D01*
X92938218Y-28192188D01*
X92935381Y-28190733D01*
X92932626Y-28189148D01*
X92929956Y-28187435D01*
X92927377Y-28185600D01*
X92924891Y-28183645D01*
X92922504Y-28181576D01*
X92920219Y-28179396D01*
X92918040Y-28177110D01*
X92915972Y-28174721D01*
X92914018Y-28172234D01*
X92912183Y-28169654D01*
X92910472Y-28166983D01*
X92908887Y-28164227D01*
X92907434Y-28161389D01*
X92906116Y-28158474D01*
X92904937Y-28155485D01*
X92903903Y-28152428D01*
X92903016Y-28149305D01*
X92902281Y-28146122D01*
X92901702Y-28142882D01*
X92901284Y-28139590D01*
X92901029Y-28136249D01*
X92900944Y-28132864D01*
X92901029Y-28129480D01*
X92901284Y-28126141D01*
X92901702Y-28122849D01*
X92902281Y-28119610D01*
X92903016Y-28116428D01*
X92903903Y-28113306D01*
X92904937Y-28110249D01*
X92906116Y-28107261D01*
X92907434Y-28104346D01*
X92908887Y-28101508D01*
X92910472Y-28098752D01*
X92912183Y-28096082D01*
X92914018Y-28093501D01*
X92915972Y-28091014D01*
X92918040Y-28088625D01*
X92920219Y-28086339D01*
X92922504Y-28084158D01*
X92924891Y-28082089D01*
X92927377Y-28080134D01*
X92929956Y-28078298D01*
X92932626Y-28076584D01*
X92935381Y-28074998D01*
X92938218Y-28073544D01*
X92941132Y-28072225D01*
X92944119Y-28071045D01*
X92947176Y-28070009D01*
X92950297Y-28069122D01*
X92953480Y-28068386D01*
X92956719Y-28067806D01*
X92960011Y-28067387D01*
X92963351Y-28067133D01*
X92966735Y-28067047D01*
X96535695Y-28067047D01*
X96503923Y-28035269D01*
X96501591Y-28032815D01*
X96499408Y-28030274D01*
X96497377Y-28027650D01*
X96495495Y-28024950D01*
X96493765Y-28022179D01*
X96492184Y-28019344D01*
X96490755Y-28016451D01*
X96489475Y-28013504D01*
X96488346Y-28010511D01*
X96487368Y-28007476D01*
X96486540Y-28004407D01*
X96485863Y-28001308D01*
X96485336Y-27998186D01*
X96484960Y-27995046D01*
X96484734Y-27991894D01*
X96484659Y-27988736D01*
X96484734Y-27985579D01*
X96484960Y-27982427D01*
X96485336Y-27979287D01*
X96485863Y-27976165D01*
X96486540Y-27973066D01*
X96487368Y-27969997D01*
X96488346Y-27966962D01*
X96489475Y-27963969D01*
X96490755Y-27961023D01*
X96492184Y-27958129D01*
X96493765Y-27955294D01*
X96495495Y-27952524D01*
X96497377Y-27949824D01*
X96499408Y-27947200D01*
X96501591Y-27944659D01*
X96503923Y-27942205D01*
X96506377Y-27939873D01*
X96508919Y-27937691D01*
X96511543Y-27935659D01*
X96514244Y-27933778D01*
X96517014Y-27932048D01*
X96519849Y-27930468D01*
X96522743Y-27929038D01*
X96525689Y-27927759D01*
X96528683Y-27926631D01*
X96531717Y-27925652D01*
X96534787Y-27924825D01*
X96537886Y-27924148D01*
X96541008Y-27923621D01*
X96544148Y-27923245D01*
X96547300Y-27923019D01*
X96550457Y-27922944D01*
X96553615Y-27923019D01*
D13*
G36*
X93525980Y-25654901D02*
G01*
X93554358Y-25655985D01*
X93582953Y-25657792D01*
X93611765Y-25660323D01*
X93640794Y-25663576D01*
X93670040Y-25667553D01*
X93699503Y-25672254D01*
X93729182Y-25677679D01*
X93741547Y-25680117D01*
X93754346Y-25682808D01*
X93781246Y-25688953D01*
X93809881Y-25696110D01*
X93840252Y-25704278D01*
X93855974Y-25708745D01*
X93871913Y-25713465D01*
X93904446Y-25723660D01*
X93937849Y-25734866D01*
X93972123Y-25747082D01*
X93972123Y-26065221D01*
X93956549Y-26056408D01*
X93941067Y-26047902D01*
X93925677Y-26039704D01*
X93910376Y-26031814D01*
X93895167Y-26024230D01*
X93880047Y-26016954D01*
X93865017Y-26009985D01*
X93850076Y-26003322D01*
X93835226Y-25996935D01*
X93820466Y-25990783D01*
X93805798Y-25984864D01*
X93791221Y-25979179D01*
X93776733Y-25973729D01*
X93762336Y-25968512D01*
X93748029Y-25963529D01*
X93733810Y-25958780D01*
X93706822Y-25950378D01*
X93680233Y-25943096D01*
X93654041Y-25936934D01*
X93628247Y-25931891D01*
X93602851Y-25927969D01*
X93590301Y-25926428D01*
X93577852Y-25925167D01*
X93565501Y-25924187D01*
X93553250Y-25923486D01*
X93541098Y-25923066D01*
X93529046Y-25922925D01*
X93513361Y-25923174D01*
X93498118Y-25923920D01*
X93483319Y-25925163D01*
X93468962Y-25926903D01*
X93455049Y-25929140D01*
X93441578Y-25931874D01*
X93428550Y-25935105D01*
X93415965Y-25938833D01*
X93403823Y-25943058D01*
X93392123Y-25947780D01*
X93380867Y-25952999D01*
X93370054Y-25958715D01*
X93359684Y-25964928D01*
X93349757Y-25971638D01*
X93340273Y-25978845D01*
X93331232Y-25986548D01*
X93322685Y-25994688D01*
X93314690Y-26003198D01*
X93307247Y-26012078D01*
X93300355Y-26021328D01*
X93294014Y-26030949D01*
X93288225Y-26040941D01*
X93282987Y-26051302D01*
X93278301Y-26062035D01*
X93274166Y-26073138D01*
X93270583Y-26084611D01*
X93267551Y-26096456D01*
X93265070Y-26108671D01*
X93263141Y-26121256D01*
X93261763Y-26134213D01*
X93260936Y-26147540D01*
X93260660Y-26161239D01*
X93260809Y-26171066D01*
X93261257Y-26180885D01*
X93262003Y-26190695D01*
X93263047Y-26200496D01*
X93264389Y-26210288D01*
X93266030Y-26220071D01*
X93267969Y-26229845D01*
X93270206Y-26239610D01*
X93272741Y-26249366D01*
X93275575Y-26259113D01*
X93278707Y-26268850D01*
X93282136Y-26278579D01*
X93285864Y-26288298D01*
X93289890Y-26298008D01*
X93294214Y-26307710D01*
X93298836Y-26317401D01*
X93303933Y-26328077D01*
X93309391Y-26338698D01*
X93315211Y-26349265D01*
X93321393Y-26359777D01*
X93327937Y-26370236D01*
X93334844Y-26380640D01*
X93342112Y-26390991D01*
X93349744Y-26401288D01*
X93366082Y-26422359D01*
X93383868Y-26444516D01*
X93403099Y-26467760D01*
X93423773Y-26492092D01*
X93461375Y-26533447D01*
X93502448Y-26578854D01*
X93525870Y-26604595D01*
X93553346Y-26634386D01*
X93584874Y-26668226D01*
X93620450Y-26706113D01*
X93708939Y-26800682D01*
X93824047Y-26924760D01*
X93980226Y-27091348D01*
X93983728Y-27095423D01*
X93987005Y-27099553D01*
X93990056Y-27103737D01*
X93992880Y-27107975D01*
X93995479Y-27112267D01*
X93997851Y-27116613D01*
X93999997Y-27121014D01*
X94001918Y-27125469D01*
X94003612Y-27129978D01*
X94005080Y-27134542D01*
X94006323Y-27139161D01*
X94007339Y-27143834D01*
X94008129Y-27148562D01*
X94008694Y-27153344D01*
X94009033Y-27158181D01*
X94009146Y-27163073D01*
X94009146Y-27412947D01*
X92912447Y-27412947D01*
X92912447Y-27112167D01*
X93674817Y-27112167D01*
X93667295Y-27104522D01*
X93659774Y-27097202D01*
X93652255Y-27090206D01*
X93644735Y-27083536D01*
X93637216Y-27077190D01*
X93629696Y-27071170D01*
X93622176Y-27065476D01*
X93614654Y-27060107D01*
X93606848Y-27054602D01*
X93598463Y-27048501D01*
X93589499Y-27041803D01*
X93579956Y-27034509D01*
X93559134Y-27018133D01*
X93535996Y-26999375D01*
X93523287Y-26988681D01*
X93509457Y-26976559D01*
X93494507Y-26963010D01*
X93478437Y-26948034D01*
X93461246Y-26931630D01*
X93442936Y-26913799D01*
X93423505Y-26894540D01*
X93402955Y-26873854D01*
X93336365Y-26807044D01*
X93277728Y-26747753D01*
X93227043Y-26695982D01*
X93184308Y-26651732D01*
X93165512Y-26631961D01*
X93147870Y-26613128D01*
X93131385Y-26595234D01*
X93116057Y-26578279D01*
X93101885Y-26562263D01*
X93088872Y-26547188D01*
X93077017Y-26533053D01*
X93066320Y-26519860D01*
X93048299Y-26496017D01*
X93031253Y-26471922D01*
X93015183Y-26447573D01*
X93000089Y-26422971D01*
X92985970Y-26398115D01*
X92972828Y-26373007D01*
X92960661Y-26347645D01*
X92949470Y-26322030D01*
X92945267Y-26310594D01*
X92941336Y-26299130D01*
X92937675Y-26287639D01*
X92934286Y-26276120D01*
X92931169Y-26264575D01*
X92928322Y-26253002D01*
X92925747Y-26241401D01*
X92923443Y-26229774D01*
X92921409Y-26218119D01*
X92919648Y-26206437D01*
X92918157Y-26194728D01*
X92916937Y-26182992D01*
X92915989Y-26171229D01*
X92915311Y-26159439D01*
X92914905Y-26147621D01*
X92914769Y-26135777D01*
X92914929Y-26120869D01*
X92915410Y-26106224D01*
X92916212Y-26091841D01*
X92917334Y-26077719D01*
X92918777Y-26063860D01*
X92920541Y-26050263D01*
X92922626Y-26036928D01*
X92925032Y-26023855D01*
X92927759Y-26011044D01*
X92930806Y-25998496D01*
X92934175Y-25986209D01*
X92937865Y-25974184D01*
X92941876Y-25962422D01*
X92946208Y-25950921D01*
X92950861Y-25939683D01*
X92955836Y-25928707D01*
X92961097Y-25917965D01*
X92966616Y-25907432D01*
X92972392Y-25897106D01*
X92978426Y-25886988D01*
X92984718Y-25877077D01*
X92991267Y-25867375D01*
X92998074Y-25857880D01*
X93005139Y-25848593D01*
X93012461Y-25839514D01*
X93020041Y-25830643D01*
X93027879Y-25821980D01*
X93035974Y-25813525D01*
X93044327Y-25805277D01*
X93052938Y-25797238D01*
X93061806Y-25789407D01*
X93070932Y-25781783D01*
X93081306Y-25773679D01*
X93091892Y-25765851D01*
X93102691Y-25758298D01*
X93113703Y-25751021D01*
X93124926Y-25744020D01*
X93136362Y-25737295D01*
X93148010Y-25730845D01*
X93159871Y-25724671D01*
X93171944Y-25718772D01*
X93184229Y-25713149D01*
X93196727Y-25707802D01*
X93209436Y-25702730D01*
X93222358Y-25697934D01*
X93235492Y-25693413D01*
X93248839Y-25689168D01*
X93262397Y-25685198D01*
X93289989Y-25678012D01*
X93318106Y-25671785D01*
X93346749Y-25666516D01*
X93375915Y-25662205D01*
X93405606Y-25658851D01*
X93435821Y-25656456D01*
X93466559Y-25655019D01*
X93497820Y-25654540D01*
X93525980Y-25654901D01*
G37*
G36*
X92610821Y-26625304D02*
G01*
X92613899Y-26648927D01*
X92616417Y-26672961D01*
X92618375Y-26697407D01*
X92619773Y-26722263D01*
X92620612Y-26747530D01*
X92620891Y-26773209D01*
X92620212Y-26813528D01*
X92618174Y-26852641D01*
X92614776Y-26890547D01*
X92610020Y-26927247D01*
X92603904Y-26962740D01*
X92596428Y-26997027D01*
X92587592Y-27030108D01*
X92577396Y-27061982D01*
X92565839Y-27092649D01*
X92552922Y-27122110D01*
X92538644Y-27150365D01*
X92523004Y-27177413D01*
X92506004Y-27203255D01*
X92487641Y-27227890D01*
X92467917Y-27251319D01*
X92446831Y-27273541D01*
X92424438Y-27294485D01*
X92400794Y-27314077D01*
X92375899Y-27332319D01*
X92349753Y-27349208D01*
X92322355Y-27364747D01*
X92293706Y-27378935D01*
X92263805Y-27391771D01*
X92232654Y-27403257D01*
X92200251Y-27413391D01*
X92166596Y-27422173D01*
X92131691Y-27429605D01*
X92095534Y-27435685D01*
X92058127Y-27440415D01*
X92019467Y-27443793D01*
X91979557Y-27445819D01*
X91938395Y-27446495D01*
X91907207Y-27446115D01*
X91876129Y-27444977D01*
X91845162Y-27443078D01*
X91814306Y-27440421D01*
X91783559Y-27437005D01*
X91752922Y-27432829D01*
X91722395Y-27427895D01*
X91691977Y-27422201D01*
X91661669Y-27415748D01*
X91631469Y-27408536D01*
X91601378Y-27400565D01*
X91571396Y-27391835D01*
X91541522Y-27382346D01*
X91511756Y-27372098D01*
X91482098Y-27361091D01*
X91452548Y-27349325D01*
X91452548Y-27038119D01*
X91482174Y-27055072D01*
X91511763Y-27070931D01*
X91541315Y-27085696D01*
X91570831Y-27099367D01*
X91600309Y-27111945D01*
X91629750Y-27123428D01*
X91659155Y-27133818D01*
X91688522Y-27143114D01*
X91717852Y-27151316D01*
X91747145Y-27158425D01*
X91776401Y-27164440D01*
X91805621Y-27169361D01*
X91834803Y-27173189D01*
X91863948Y-27175922D01*
X91893056Y-27177563D01*
X91922127Y-27178110D01*
X91943904Y-27177814D01*
X91964991Y-27176926D01*
X91985388Y-27175445D01*
X92005094Y-27173373D01*
X92024109Y-27170709D01*
X92042434Y-27167453D01*
X92060067Y-27163605D01*
X92077010Y-27159165D01*
X92093262Y-27154133D01*
X92108824Y-27148509D01*
X92123694Y-27142293D01*
X92137873Y-27135484D01*
X92151361Y-27128084D01*
X92164158Y-27120092D01*
X92176264Y-27111508D01*
X92187678Y-27102332D01*
X92198401Y-27092564D01*
X92208433Y-27082204D01*
X92217773Y-27071252D01*
X92226422Y-27059708D01*
X92234379Y-27047572D01*
X92241644Y-27034844D01*
X92248218Y-27021524D01*
X92254100Y-27007612D01*
X92259290Y-26993108D01*
X92263789Y-26978013D01*
X92267595Y-26962325D01*
X92270710Y-26946045D01*
X92273133Y-26929174D01*
X92274863Y-26911710D01*
X92275901Y-26893655D01*
X92276247Y-26875007D01*
X91398212Y-26875007D01*
X91398212Y-26737339D01*
X91398490Y-26713233D01*
X91399323Y-26689502D01*
X91400711Y-26666146D01*
X91402655Y-26643166D01*
X91405154Y-26620560D01*
X91405162Y-26620504D01*
X91739381Y-26620504D01*
X92272772Y-26620504D01*
X92270947Y-26604397D01*
X92268670Y-26588761D01*
X92265942Y-26573594D01*
X92262762Y-26558898D01*
X92259130Y-26544672D01*
X92255047Y-26530916D01*
X92250512Y-26517630D01*
X92245526Y-26504815D01*
X92240088Y-26492469D01*
X92234198Y-26480594D01*
X92227856Y-26469189D01*
X92221064Y-26458254D01*
X92213819Y-26447789D01*
X92206123Y-26437794D01*
X92197975Y-26428270D01*
X92189375Y-26419215D01*
X92180339Y-26410668D01*
X92170880Y-26402673D01*
X92160999Y-26395230D01*
X92150693Y-26388338D01*
X92139964Y-26381997D01*
X92128811Y-26376209D01*
X92117233Y-26370971D01*
X92105229Y-26366285D01*
X92092800Y-26362150D01*
X92079944Y-26358567D01*
X92066662Y-26355535D01*
X92052953Y-26353054D01*
X92038816Y-26351125D01*
X92024252Y-26349747D01*
X92009258Y-26348920D01*
X91993836Y-26348644D01*
X91978745Y-26348913D01*
X91964095Y-26349720D01*
X91949886Y-26351065D01*
X91936118Y-26352947D01*
X91922791Y-26355367D01*
X91909907Y-26358325D01*
X91897464Y-26361821D01*
X91885463Y-26365855D01*
X91873905Y-26370426D01*
X91862789Y-26375534D01*
X91852117Y-26381181D01*
X91841887Y-26387365D01*
X91832101Y-26394087D01*
X91822758Y-26401346D01*
X91813859Y-26409143D01*
X91805405Y-26417477D01*
X91797401Y-26426336D01*
X91789915Y-26435705D01*
X91782947Y-26445586D01*
X91776497Y-26455977D01*
X91770564Y-26466879D01*
X91765148Y-26478292D01*
X91760249Y-26490215D01*
X91755867Y-26502649D01*
X91752001Y-26515594D01*
X91748652Y-26529049D01*
X91745818Y-26543015D01*
X91743500Y-26557492D01*
X91741697Y-26572479D01*
X91740410Y-26587977D01*
X91739638Y-26603985D01*
X91739381Y-26620504D01*
X91405162Y-26620504D01*
X91408208Y-26598330D01*
X91411817Y-26576474D01*
X91415982Y-26554994D01*
X91420702Y-26533889D01*
X91425977Y-26513159D01*
X91431808Y-26492804D01*
X91438193Y-26472825D01*
X91445135Y-26453221D01*
X91452631Y-26433992D01*
X91460683Y-26415138D01*
X91469290Y-26396660D01*
X91478404Y-26378618D01*
X91487977Y-26361077D01*
X91498008Y-26344037D01*
X91508498Y-26327500D01*
X91519446Y-26311464D01*
X91530852Y-26295929D01*
X91542715Y-26280896D01*
X91555036Y-26266365D01*
X91567814Y-26252335D01*
X91581049Y-26238807D01*
X91594740Y-26225780D01*
X91608889Y-26213255D01*
X91623493Y-26201232D01*
X91638553Y-26189710D01*
X91654070Y-26178690D01*
X91670042Y-26168171D01*
X91686426Y-26158225D01*
X91703181Y-26148920D01*
X91720306Y-26140257D01*
X91737802Y-26132237D01*
X91755667Y-26124857D01*
X91773903Y-26118120D01*
X91792509Y-26112024D01*
X91811485Y-26106570D01*
X91830831Y-26101758D01*
X91850548Y-26097588D01*
X91870634Y-26094059D01*
X91891091Y-26091172D01*
X91911918Y-26088926D01*
X91933115Y-26087322D01*
X91954683Y-26086360D01*
X91976620Y-26086039D01*
X92003229Y-26086374D01*
X92029275Y-26087377D01*
X92054758Y-26089049D01*
X92079676Y-26091390D01*
X92104030Y-26094400D01*
X92127819Y-26098079D01*
X92151042Y-26102427D01*
X92173700Y-26107443D01*
X92195791Y-26113128D01*
X92217315Y-26119482D01*
X92238272Y-26126504D01*
X92258661Y-26134196D01*
X92278482Y-26142556D01*
X92297734Y-26151584D01*
X92316417Y-26161282D01*
X92334530Y-26171648D01*
X92352136Y-26182616D01*
X92369181Y-26194123D01*
X92385664Y-26206168D01*
X92401586Y-26218750D01*
X92416949Y-26231871D01*
X92431752Y-26245529D01*
X92445997Y-26259725D01*
X92459684Y-26274460D01*
X92472814Y-26289732D01*
X92485388Y-26305542D01*
X92497406Y-26321889D01*
X92508868Y-26338775D01*
X92519777Y-26356199D01*
X92530132Y-26374160D01*
X92539933Y-26392659D01*
X92549183Y-26411697D01*
X92557875Y-26431206D01*
X92566004Y-26451127D01*
X92573572Y-26471459D01*
X92580577Y-26492203D01*
X92587021Y-26513358D01*
X92592903Y-26534924D01*
X92598224Y-26556902D01*
X92602983Y-26579292D01*
X92607182Y-26602092D01*
X92610068Y-26620504D01*
X92610821Y-26625304D01*
G37*
G36*
X91777312Y-28073905D02*
G01*
X91778106Y-28081521D01*
X91778724Y-28089233D01*
X91779165Y-28097042D01*
X91779430Y-28104947D01*
X91779518Y-28112948D01*
X91779296Y-28125743D01*
X91778629Y-28138196D01*
X91777517Y-28150308D01*
X91775961Y-28162077D01*
X91773961Y-28173505D01*
X91771516Y-28184590D01*
X91768627Y-28195334D01*
X91765293Y-28205735D01*
X91761514Y-28215795D01*
X91757292Y-28225512D01*
X91752624Y-28234888D01*
X91747513Y-28243921D01*
X91741957Y-28252612D01*
X91735957Y-28260960D01*
X91729513Y-28268966D01*
X91722624Y-28276630D01*
X91715349Y-28283892D01*
X91707737Y-28290685D01*
X91699789Y-28297010D01*
X91691505Y-28302866D01*
X91682885Y-28308254D01*
X91673929Y-28313174D01*
X91664636Y-28317625D01*
X91655008Y-28321608D01*
X91645043Y-28325122D01*
X91634742Y-28328168D01*
X91624105Y-28330746D01*
X91613132Y-28332854D01*
X91601822Y-28334494D01*
X91590177Y-28335666D01*
X91578195Y-28336369D01*
X91565877Y-28336603D01*
X91556072Y-28336462D01*
X91546320Y-28336037D01*
X91536622Y-28335330D01*
X91526978Y-28334339D01*
X91517390Y-28333064D01*
X91507856Y-28331506D01*
X91498378Y-28329663D01*
X91488956Y-28327537D01*
X91479571Y-28325180D01*
X91470216Y-28322636D01*
X91460891Y-28319903D01*
X91451595Y-28316984D01*
X91442331Y-28313877D01*
X91433096Y-28310583D01*
X91423893Y-28307102D01*
X91414720Y-28303435D01*
X91414720Y-28232863D01*
X91423532Y-28237310D01*
X91432421Y-28241588D01*
X91441390Y-28245698D01*
X91450436Y-28249639D01*
X91459562Y-28253413D01*
X91468765Y-28257018D01*
X91478048Y-28260456D01*
X91487409Y-28263725D01*
X91496848Y-28266707D01*
X91506365Y-28269291D01*
X91515961Y-28271476D01*
X91525634Y-28273264D01*
X91535385Y-28274654D01*
X91545214Y-28275647D01*
X91555120Y-28276242D01*
X91565103Y-28276441D01*
X91573648Y-28276284D01*
X91581928Y-28275814D01*
X91589942Y-28275031D01*
X91597692Y-28273935D01*
X91605176Y-28272525D01*
X91612396Y-28270802D01*
X91619349Y-28268766D01*
X91626038Y-28266416D01*
X91632462Y-28263754D01*
X91638620Y-28260777D01*
X91644513Y-28257487D01*
X91650140Y-28253884D01*
X91655503Y-28249968D01*
X91660600Y-28245738D01*
X91665431Y-28241194D01*
X91669997Y-28236337D01*
X91674292Y-28231216D01*
X91678310Y-28225882D01*
X91682051Y-28220334D01*
X91685515Y-28214572D01*
X91688702Y-28208597D01*
X91691612Y-28202408D01*
X91694245Y-28196005D01*
X91696601Y-28189389D01*
X91698680Y-28182559D01*
X91700482Y-28175514D01*
X91702006Y-28168257D01*
X91703254Y-28160785D01*
X91704224Y-28153099D01*
X91704917Y-28145200D01*
X91705333Y-28137086D01*
X91705471Y-28128759D01*
X91705471Y-28126437D01*
X91398136Y-28126437D01*
X91398136Y-28091736D01*
X91398322Y-28079659D01*
X91398737Y-28070919D01*
X91469086Y-28070919D01*
X91702771Y-28070919D01*
X91702246Y-28066508D01*
X91701635Y-28062149D01*
X91700938Y-28057841D01*
X91700156Y-28053584D01*
X91699288Y-28049379D01*
X91698334Y-28045226D01*
X91697294Y-28041123D01*
X91696169Y-28037072D01*
X91694958Y-28033072D01*
X91693660Y-28029124D01*
X91692277Y-28025226D01*
X91690808Y-28021380D01*
X91689253Y-28017585D01*
X91687611Y-28013841D01*
X91685884Y-28010149D01*
X91684070Y-28006507D01*
X91682168Y-28002940D01*
X91680176Y-27999464D01*
X91678094Y-27996080D01*
X91675922Y-27992787D01*
X91673660Y-27989586D01*
X91671308Y-27986476D01*
X91668865Y-27983459D01*
X91666332Y-27980533D01*
X91663709Y-27977699D01*
X91660996Y-27974956D01*
X91658192Y-27972306D01*
X91655297Y-27969748D01*
X91652312Y-27967281D01*
X91649237Y-27964907D01*
X91646070Y-27962624D01*
X91642814Y-27960434D01*
X91639461Y-27958357D01*
X91636008Y-27956414D01*
X91632453Y-27954605D01*
X91628797Y-27952930D01*
X91625041Y-27951389D01*
X91621183Y-27949982D01*
X91617224Y-27948708D01*
X91613165Y-27947569D01*
X91609005Y-27946564D01*
X91604743Y-27945693D01*
X91600381Y-27944956D01*
X91595918Y-27944353D01*
X91591355Y-27943884D01*
X91586690Y-27943549D01*
X91581925Y-27943348D01*
X91577059Y-27943281D01*
X91572250Y-27943347D01*
X91567560Y-27943546D01*
X91562990Y-27943877D01*
X91558538Y-27944341D01*
X91554205Y-27944938D01*
X91549992Y-27945667D01*
X91545898Y-27946528D01*
X91541922Y-27947522D01*
X91538066Y-27948648D01*
X91534328Y-27949907D01*
X91530710Y-27951299D01*
X91527211Y-27952823D01*
X91523830Y-27954479D01*
X91520569Y-27956269D01*
X91517426Y-27958190D01*
X91514402Y-27960244D01*
X91511488Y-27962411D01*
X91508675Y-27964672D01*
X91505963Y-27967025D01*
X91503352Y-27969472D01*
X91500843Y-27972013D01*
X91498434Y-27974647D01*
X91496125Y-27977374D01*
X91493918Y-27980195D01*
X91491812Y-27983109D01*
X91489807Y-27986117D01*
X91487902Y-27989218D01*
X91486098Y-27992413D01*
X91484395Y-27995701D01*
X91482793Y-27999083D01*
X91481291Y-28002558D01*
X91479890Y-28006128D01*
X91478582Y-28009771D01*
X91477358Y-28013468D01*
X91476219Y-28017219D01*
X91475164Y-28021024D01*
X91474193Y-28024884D01*
X91473307Y-28028798D01*
X91472505Y-28032765D01*
X91471787Y-28036787D01*
X91471154Y-28040864D01*
X91470606Y-28044994D01*
X91469761Y-28053418D01*
X91469255Y-28062060D01*
X91469086Y-28070919D01*
X91398737Y-28070919D01*
X91398880Y-28067915D01*
X91399810Y-28056504D01*
X91401112Y-28045426D01*
X91402786Y-28034681D01*
X91404833Y-28024268D01*
X91407251Y-28014189D01*
X91410041Y-28004442D01*
X91413204Y-27995028D01*
X91416738Y-27985946D01*
X91420645Y-27977198D01*
X91424923Y-27968782D01*
X91429574Y-27960699D01*
X91434596Y-27952949D01*
X91439991Y-27945532D01*
X91445758Y-27938447D01*
X91451862Y-27931748D01*
X91458269Y-27925481D01*
X91464979Y-27919646D01*
X91471991Y-27914243D01*
X91479307Y-27909272D01*
X91486925Y-27904733D01*
X91494846Y-27900627D01*
X91503070Y-27896952D01*
X91511596Y-27893710D01*
X91520426Y-27890900D01*
X91529558Y-27888522D01*
X91538993Y-27886577D01*
X91548731Y-27885064D01*
X91558772Y-27883983D01*
X91569115Y-27883335D01*
X91579761Y-27883118D01*
X91587874Y-27883238D01*
X91595821Y-27883597D01*
X91603605Y-27884196D01*
X91611224Y-27885034D01*
X91618679Y-27886112D01*
X91625970Y-27887429D01*
X91633097Y-27888986D01*
X91640059Y-27890782D01*
X91646858Y-27892818D01*
X91653492Y-27895093D01*
X91659962Y-27897608D01*
X91666268Y-27900363D01*
X91672409Y-27903356D01*
X91678387Y-27906590D01*
X91684201Y-27910063D01*
X91689850Y-27913775D01*
X91695332Y-27917691D01*
X91700642Y-27921774D01*
X91705781Y-27926023D01*
X91710747Y-27930440D01*
X91715542Y-27935024D01*
X91720165Y-27939775D01*
X91724616Y-27944694D01*
X91728896Y-27949779D01*
X91733003Y-27955032D01*
X91736939Y-27960453D01*
X91740703Y-27966041D01*
X91744296Y-27971796D01*
X91747716Y-27977719D01*
X91750965Y-27983809D01*
X91754043Y-27990067D01*
X91756948Y-27996493D01*
X91759679Y-28003048D01*
X91762235Y-28009699D01*
X91764614Y-28016447D01*
X91766818Y-28023292D01*
X91768845Y-28030233D01*
X91770697Y-28037270D01*
X91772372Y-28044405D01*
X91773871Y-28051635D01*
X91775194Y-28058962D01*
X91776341Y-28066385D01*
X91776926Y-28070919D01*
X91777312Y-28073905D01*
G37*
G36*
X96431958Y-26086211D02*
G01*
X96441472Y-26086726D01*
X96450868Y-26087585D01*
X96460146Y-26088787D01*
X96469306Y-26090333D01*
X96478349Y-26092222D01*
X96487274Y-26094454D01*
X96496081Y-26097030D01*
X96504770Y-26099949D01*
X96513342Y-26103212D01*
X96521796Y-26106818D01*
X96530133Y-26110767D01*
X96538351Y-26115059D01*
X96546453Y-26119695D01*
X96554436Y-26124674D01*
X96562302Y-26129996D01*
X96569980Y-26135623D01*
X96577396Y-26141512D01*
X96584551Y-26147663D01*
X96591443Y-26154076D01*
X96598073Y-26160751D01*
X96604441Y-26167688D01*
X96610547Y-26174887D01*
X96616390Y-26182348D01*
X96621972Y-26190071D01*
X96627292Y-26198056D01*
X96632349Y-26206303D01*
X96637145Y-26214813D01*
X96641678Y-26223585D01*
X96645949Y-26232619D01*
X96649958Y-26241915D01*
X96653705Y-26251474D01*
X96687254Y-26117281D01*
X96900105Y-26117281D01*
X96900105Y-27412947D01*
X96622463Y-27412947D01*
X96622463Y-26581175D01*
X96622102Y-26545475D01*
X96621650Y-26528831D01*
X96621018Y-26512992D01*
X96620205Y-26497957D01*
X96619211Y-26483727D01*
X96618036Y-26470301D01*
X96616680Y-26457679D01*
X96615144Y-26445862D01*
X96613427Y-26434850D01*
X96611529Y-26424641D01*
X96609450Y-26415238D01*
X96607190Y-26406638D01*
X96604749Y-26398843D01*
X96602127Y-26391853D01*
X96599324Y-26385667D01*
X96596572Y-26380063D01*
X96593521Y-26374822D01*
X96590173Y-26369941D01*
X96586527Y-26365422D01*
X96582582Y-26361264D01*
X96578339Y-26357468D01*
X96573798Y-26354033D01*
X96568958Y-26350960D01*
X96563820Y-26348248D01*
X96558384Y-26345897D01*
X96552649Y-26343908D01*
X96546616Y-26342281D01*
X96540284Y-26341016D01*
X96533654Y-26340111D01*
X96526725Y-26339569D01*
X96519497Y-26339388D01*
X96512408Y-26339582D01*
X96508968Y-26339825D01*
X96505599Y-26340166D01*
X96502299Y-26340603D01*
X96499069Y-26341137D01*
X96495910Y-26341769D01*
X96492820Y-26342498D01*
X96489800Y-26343324D01*
X96486851Y-26344247D01*
X96483971Y-26345267D01*
X96481162Y-26346385D01*
X96478422Y-26347600D01*
X96475753Y-26348911D01*
X96473153Y-26350321D01*
X96470624Y-26351827D01*
X96468165Y-26353430D01*
X96465776Y-26355131D01*
X96463456Y-26356929D01*
X96461207Y-26358823D01*
X96459028Y-26360816D01*
X96456919Y-26362905D01*
X96454881Y-26365091D01*
X96452912Y-26367375D01*
X96451013Y-26369756D01*
X96449185Y-26372234D01*
X96447426Y-26374809D01*
X96445738Y-26377481D01*
X96444120Y-26380251D01*
X96442572Y-26383118D01*
X96441094Y-26386082D01*
X96439686Y-26389143D01*
X96436883Y-26396398D01*
X96434261Y-26404286D01*
X96431820Y-26412807D01*
X96429560Y-26421962D01*
X96425583Y-26442169D01*
X96422329Y-26464908D01*
X96419799Y-26490178D01*
X96417991Y-26517980D01*
X96416907Y-26548312D01*
X96416546Y-26581175D01*
X96416546Y-27412947D01*
X96142363Y-27412947D01*
X96142363Y-26581175D01*
X96141984Y-26547537D01*
X96141510Y-26531734D01*
X96140846Y-26516609D01*
X96139993Y-26502161D01*
X96138950Y-26488391D01*
X96137717Y-26475299D01*
X96136295Y-26462884D01*
X96134682Y-26451148D01*
X96132879Y-26440089D01*
X96130887Y-26429708D01*
X96128704Y-26420005D01*
X96126331Y-26410980D01*
X96123769Y-26402633D01*
X96121015Y-26394964D01*
X96118072Y-26387973D01*
X96115191Y-26382089D01*
X96112039Y-26376584D01*
X96108615Y-26371460D01*
X96104920Y-26366715D01*
X96100953Y-26362350D01*
X96096715Y-26358364D01*
X96092206Y-26354759D01*
X96087425Y-26351533D01*
X96082374Y-26348686D01*
X96077050Y-26346219D01*
X96071456Y-26344132D01*
X96065590Y-26342424D01*
X96059453Y-26341096D01*
X96053044Y-26340147D01*
X96046364Y-26339578D01*
X96039413Y-26339388D01*
X96032183Y-26339582D01*
X96028677Y-26339825D01*
X96025243Y-26340166D01*
X96021881Y-26340603D01*
X96018591Y-26341137D01*
X96015374Y-26341769D01*
X96012229Y-26342498D01*
X96009156Y-26343324D01*
X96006156Y-26344247D01*
X96003227Y-26345267D01*
X96000372Y-26346385D01*
X95997588Y-26347600D01*
X95994877Y-26348911D01*
X95992238Y-26350321D01*
X95989671Y-26351827D01*
X95987176Y-26353430D01*
X95984754Y-26355131D01*
X95982404Y-26356929D01*
X95980127Y-26358823D01*
X95977921Y-26360816D01*
X95975788Y-26362905D01*
X95973727Y-26365091D01*
X95971739Y-26367375D01*
X95969822Y-26369756D01*
X95967978Y-26372234D01*
X95966207Y-26374809D01*
X95964507Y-26377481D01*
X95962880Y-26380251D01*
X95961325Y-26383118D01*
X95959843Y-26386082D01*
X95958432Y-26389143D01*
X95955770Y-26395856D01*
X95953279Y-26403275D01*
X95950961Y-26411400D01*
X95948814Y-26420229D01*
X95945035Y-26440003D01*
X95941943Y-26462598D01*
X95939538Y-26488012D01*
X95937821Y-26516247D01*
X95936790Y-26547301D01*
X95936447Y-26581175D01*
X95936447Y-27412947D01*
X95658805Y-27412947D01*
X95658805Y-26682973D01*
X95659053Y-26638115D01*
X95659799Y-26595218D01*
X95661042Y-26554281D01*
X95662782Y-26515306D01*
X95665019Y-26478292D01*
X95667754Y-26443239D01*
X95670986Y-26410146D01*
X95674714Y-26379015D01*
X95678940Y-26349845D01*
X95683663Y-26322636D01*
X95688884Y-26297388D01*
X95694601Y-26274102D01*
X95700816Y-26252776D01*
X95707527Y-26233412D01*
X95714736Y-26216009D01*
X95722443Y-26200567D01*
X95730783Y-26186699D01*
X95739901Y-26173725D01*
X95749796Y-26161646D01*
X95760469Y-26150461D01*
X95771919Y-26140172D01*
X95784146Y-26130777D01*
X95797151Y-26122277D01*
X95810933Y-26114671D01*
X95825493Y-26107961D01*
X95840830Y-26102145D01*
X95856944Y-26097224D01*
X95873836Y-26093197D01*
X95891505Y-26090066D01*
X95909952Y-26087829D01*
X95929176Y-26086487D01*
X95949177Y-26086039D01*
X95970343Y-26086667D01*
X95980641Y-26087453D01*
X95990749Y-26088552D01*
X96000668Y-26089966D01*
X96010397Y-26091693D01*
X96019937Y-26093735D01*
X96029286Y-26096090D01*
X96038446Y-26098760D01*
X96047416Y-26101744D01*
X96056196Y-26105042D01*
X96064787Y-26108654D01*
X96073188Y-26112580D01*
X96081399Y-26116820D01*
X96089420Y-26121375D01*
X96097252Y-26126243D01*
X96104893Y-26131425D01*
X96112345Y-26136922D01*
X96119608Y-26142732D01*
X96126680Y-26148857D01*
X96133563Y-26155295D01*
X96140255Y-26162048D01*
X96146759Y-26169114D01*
X96153072Y-26176495D01*
X96159195Y-26184190D01*
X96165129Y-26192199D01*
X96170873Y-26200521D01*
X96176427Y-26209158D01*
X96186966Y-26227374D01*
X96196745Y-26246846D01*
X96198680Y-26238538D01*
X96201011Y-26230388D01*
X96203741Y-26222396D01*
X96206868Y-26214562D01*
X96210392Y-26206887D01*
X96214314Y-26199369D01*
X96218634Y-26192009D01*
X96223352Y-26184808D01*
X96228467Y-26177765D01*
X96233979Y-26170879D01*
X96239889Y-26164152D01*
X96246197Y-26157583D01*
X96252902Y-26151172D01*
X96260005Y-26144919D01*
X96267506Y-26138824D01*
X96275404Y-26132887D01*
X96283571Y-26127215D01*
X96291874Y-26121908D01*
X96300311Y-26116968D01*
X96308884Y-26112393D01*
X96317593Y-26108184D01*
X96326436Y-26104341D01*
X96335415Y-26100864D01*
X96344530Y-26097753D01*
X96353780Y-26095008D01*
X96363165Y-26092628D01*
X96372686Y-26090615D01*
X96382343Y-26088968D01*
X96392135Y-26087687D01*
X96402064Y-26086771D01*
X96412127Y-26086222D01*
X96422327Y-26086039D01*
X96431958Y-26086211D01*
G37*
G36*
X92255236Y-28117081D02*
G01*
X92254837Y-28127370D01*
X92254171Y-28137640D01*
X92253241Y-28147892D01*
X92252045Y-28158126D01*
X92250585Y-28168341D01*
X92248860Y-28178538D01*
X92246872Y-28188717D01*
X92244585Y-28198776D01*
X92243318Y-28203722D01*
X92241968Y-28208612D01*
X92240534Y-28213447D01*
X92239018Y-28218226D01*
X92237420Y-28222949D01*
X92235738Y-28227617D01*
X92233974Y-28232229D01*
X92232127Y-28236786D01*
X92230197Y-28241286D01*
X92228185Y-28245731D01*
X92226089Y-28250120D01*
X92223912Y-28254453D01*
X92221651Y-28258730D01*
X92219308Y-28262951D01*
X92216871Y-28267092D01*
X92214333Y-28271128D01*
X92211694Y-28275057D01*
X92208955Y-28278882D01*
X92206115Y-28282601D01*
X92203174Y-28286214D01*
X92200132Y-28289722D01*
X92196989Y-28293124D01*
X92193745Y-28296421D01*
X92190401Y-28299612D01*
X92186955Y-28302697D01*
X92183409Y-28305678D01*
X92179761Y-28308552D01*
X92176013Y-28311321D01*
X92172163Y-28313985D01*
X92168212Y-28316543D01*
X92164153Y-28318973D01*
X92159976Y-28321246D01*
X92155681Y-28323362D01*
X92151269Y-28325322D01*
X92146740Y-28327124D01*
X92142093Y-28328770D01*
X92137329Y-28330258D01*
X92132447Y-28331590D01*
X92127448Y-28332765D01*
X92122331Y-28333784D01*
X92117097Y-28334645D01*
X92111745Y-28335350D01*
X92106275Y-28335899D01*
X92100687Y-28336290D01*
X92094982Y-28336525D01*
X92089159Y-28336603D01*
X92079437Y-28336347D01*
X92074695Y-28336027D01*
X92070034Y-28335579D01*
X92065452Y-28335002D01*
X92060951Y-28334298D01*
X92056529Y-28333465D01*
X92052187Y-28332505D01*
X92047925Y-28331416D01*
X92043743Y-28330199D01*
X92039641Y-28328855D01*
X92035619Y-28327382D01*
X92031676Y-28325781D01*
X92027814Y-28324052D01*
X92024031Y-28322195D01*
X92020328Y-28320210D01*
X92016705Y-28318097D01*
X92013162Y-28315856D01*
X92009698Y-28313487D01*
X92006314Y-28310990D01*
X92003010Y-28308364D01*
X91999786Y-28305611D01*
X91996642Y-28302730D01*
X91993577Y-28299721D01*
X91990592Y-28296584D01*
X91987687Y-28293318D01*
X91984862Y-28289925D01*
X91982116Y-28286404D01*
X91979450Y-28282755D01*
X91976864Y-28278977D01*
X91974358Y-28275072D01*
X91971931Y-28271039D01*
X91964997Y-28325420D01*
X91900980Y-28325420D01*
X91900980Y-28109473D01*
X91971931Y-28109473D01*
X91971992Y-28116164D01*
X91972173Y-28122933D01*
X91972476Y-28129781D01*
X91972898Y-28136708D01*
X91973441Y-28143713D01*
X91974103Y-28150796D01*
X91974884Y-28157958D01*
X91975784Y-28165198D01*
X91976861Y-28172417D01*
X91978160Y-28179514D01*
X91979681Y-28186491D01*
X91981425Y-28193346D01*
X91983392Y-28200081D01*
X91985582Y-28206695D01*
X91987996Y-28213189D01*
X91990632Y-28219563D01*
X91992044Y-28222683D01*
X91993531Y-28225730D01*
X91995093Y-28228703D01*
X91996730Y-28231602D01*
X91998443Y-28234427D01*
X92000230Y-28237178D01*
X92002093Y-28239856D01*
X92004032Y-28242460D01*
X92006045Y-28244990D01*
X92008134Y-28247446D01*
X92010299Y-28249828D01*
X92012539Y-28252136D01*
X92014854Y-28254371D01*
X92017245Y-28256531D01*
X92019711Y-28258618D01*
X92022253Y-28260630D01*
X92024883Y-28262546D01*
X92027613Y-28264338D01*
X92030445Y-28266007D01*
X92033377Y-28267551D01*
X92036409Y-28268972D01*
X92039543Y-28270269D01*
X92042778Y-28271442D01*
X92046113Y-28272492D01*
X92049549Y-28273417D01*
X92053086Y-28274220D01*
X92056725Y-28274899D01*
X92060464Y-28275454D01*
X92064304Y-28275886D01*
X92068244Y-28276194D01*
X92072286Y-28276379D01*
X92076429Y-28276441D01*
X92080621Y-28276378D01*
X92084708Y-28276191D01*
X92088691Y-28275879D01*
X92092570Y-28275442D01*
X92096344Y-28274880D01*
X92100015Y-28274193D01*
X92103581Y-28273381D01*
X92107043Y-28272444D01*
X92110402Y-28271382D01*
X92113656Y-28270195D01*
X92116806Y-28268883D01*
X92119853Y-28267445D01*
X92122795Y-28265882D01*
X92125634Y-28264193D01*
X92128369Y-28262379D01*
X92131000Y-28260440D01*
X92133541Y-28258405D01*
X92136002Y-28256297D01*
X92138386Y-28254117D01*
X92140691Y-28251864D01*
X92142917Y-28249539D01*
X92145065Y-28247141D01*
X92147135Y-28244671D01*
X92149127Y-28242128D01*
X92151040Y-28239513D01*
X92152875Y-28236826D01*
X92154632Y-28234066D01*
X92156310Y-28231235D01*
X92157910Y-28228330D01*
X92159433Y-28225354D01*
X92160877Y-28222305D01*
X92162242Y-28219184D01*
X92164785Y-28212809D01*
X92167117Y-28206314D01*
X92169239Y-28199697D01*
X92171151Y-28192959D01*
X92172852Y-28186100D01*
X92174343Y-28179121D01*
X92175624Y-28172022D01*
X92176695Y-28164803D01*
X92177600Y-28157574D01*
X92178383Y-28150434D01*
X92179045Y-28143383D01*
X92179587Y-28136422D01*
X92180008Y-28129550D01*
X92180308Y-28122768D01*
X92180488Y-28116075D01*
X92180548Y-28109473D01*
X92180488Y-28102874D01*
X92180308Y-28096191D01*
X92180008Y-28089424D01*
X92179587Y-28082573D01*
X92179045Y-28075638D01*
X92178383Y-28068620D01*
X92177600Y-28061518D01*
X92176695Y-28054333D01*
X92175624Y-28047159D01*
X92174343Y-28040100D01*
X92172852Y-28033157D01*
X92171151Y-28026328D01*
X92169239Y-28019614D01*
X92167117Y-28013014D01*
X92164785Y-28006529D01*
X92162242Y-28000158D01*
X92160877Y-27997035D01*
X92159433Y-27993987D01*
X92157910Y-27991012D01*
X92156310Y-27988113D01*
X92154632Y-27985287D01*
X92152875Y-27982535D01*
X92151040Y-27979857D01*
X92149127Y-27977253D01*
X92147135Y-27974723D01*
X92145065Y-27972267D01*
X92142917Y-27969885D01*
X92140691Y-27967576D01*
X92138386Y-27965340D01*
X92136002Y-27963179D01*
X92133541Y-27961091D01*
X92131000Y-27959076D01*
X92128369Y-27957162D01*
X92125634Y-27955372D01*
X92122795Y-27953706D01*
X92119853Y-27952163D01*
X92116806Y-27950744D01*
X92113656Y-27949448D01*
X92110402Y-27948276D01*
X92107043Y-27947227D01*
X92103581Y-27946302D01*
X92100015Y-27945501D01*
X92096344Y-27944822D01*
X92092570Y-27944267D01*
X92088691Y-27943836D01*
X92084708Y-27943528D01*
X92080621Y-27943343D01*
X92076429Y-27943281D01*
X92072286Y-27943343D01*
X92068244Y-27943528D01*
X92064304Y-27943836D01*
X92060464Y-27944267D01*
X92056725Y-27944822D01*
X92053086Y-27945501D01*
X92049549Y-27946302D01*
X92046113Y-27947227D01*
X92042778Y-27948276D01*
X92039543Y-27949448D01*
X92036409Y-27950744D01*
X92033377Y-27952163D01*
X92030445Y-27953706D01*
X92027613Y-27955372D01*
X92024883Y-27957162D01*
X92022253Y-27959076D01*
X92019711Y-27961091D01*
X92017245Y-27963179D01*
X92014854Y-27965340D01*
X92012539Y-27967576D01*
X92010299Y-27969885D01*
X92008134Y-27972267D01*
X92006045Y-27974723D01*
X92004032Y-27977253D01*
X92002093Y-27979857D01*
X92000230Y-27982535D01*
X91998443Y-27985287D01*
X91996730Y-27988113D01*
X91995093Y-27991012D01*
X91993531Y-27993987D01*
X91992044Y-27997035D01*
X91990632Y-28000158D01*
X91987996Y-28006529D01*
X91985582Y-28013014D01*
X91983392Y-28019614D01*
X91981425Y-28026328D01*
X91979681Y-28033157D01*
X91978160Y-28040100D01*
X91976861Y-28047159D01*
X91975784Y-28054333D01*
X91974884Y-28061518D01*
X91974103Y-28068620D01*
X91973441Y-28075638D01*
X91972898Y-28082573D01*
X91972476Y-28089424D01*
X91972173Y-28096191D01*
X91971992Y-28102874D01*
X91971931Y-28109473D01*
X91900980Y-28109473D01*
X91900980Y-27725406D01*
X91971931Y-27725406D01*
X91971931Y-27948666D01*
X91974197Y-27944541D01*
X91976560Y-27940554D01*
X91979019Y-27936703D01*
X91981574Y-27932990D01*
X91984225Y-27929414D01*
X91986973Y-27925976D01*
X91989817Y-27922674D01*
X91992758Y-27919509D01*
X91995795Y-27916481D01*
X91998929Y-27913590D01*
X92002159Y-27910836D01*
X92005486Y-27908219D01*
X92008909Y-27905739D01*
X92012428Y-27903395D01*
X92016045Y-27901188D01*
X92019758Y-27899118D01*
X92023546Y-27897181D01*
X92027395Y-27895369D01*
X92031303Y-27893682D01*
X92035273Y-27892120D01*
X92039302Y-27890683D01*
X92043392Y-27889370D01*
X92047543Y-27888183D01*
X92051754Y-27887120D01*
X92056025Y-27886182D01*
X92060356Y-27885370D01*
X92064748Y-27884682D01*
X92069200Y-27884119D01*
X92073713Y-27883681D01*
X92078286Y-27883369D01*
X92082919Y-27883181D01*
X92087613Y-27883118D01*
X92097131Y-27883353D01*
X92106400Y-27884058D01*
X92115420Y-27885232D01*
X92124191Y-27886877D01*
X92132713Y-27888991D01*
X92140986Y-27891576D01*
X92149011Y-27894630D01*
X92156787Y-27898155D01*
X92164315Y-27902150D01*
X92171594Y-27906614D01*
X92178624Y-27911550D01*
X92185407Y-27916955D01*
X92191941Y-27922831D01*
X92198226Y-27929177D01*
X92204264Y-27935994D01*
X92210053Y-27943281D01*
X92215539Y-27950969D01*
X92220671Y-27958994D01*
X92225450Y-27967357D01*
X92229875Y-27976056D01*
X92233946Y-27985093D01*
X92237663Y-27994468D01*
X92241027Y-28004180D01*
X92244036Y-28014229D01*
X92246692Y-28024615D01*
X92248994Y-28035340D01*
X92250942Y-28046401D01*
X92252536Y-28057800D01*
X92253775Y-28069537D01*
X92254661Y-28081611D01*
X92255192Y-28094023D01*
X92255369Y-28106772D01*
X92255334Y-28109473D01*
X92255236Y-28117081D01*
G37*
D16*
%TO.C,J1*%
X141341000Y-28579000D02*
X141341000Y-34699000D01*
X141341000Y-31139000D02*
X145701000Y-31139000D01*
X141341000Y-32939000D02*
X143601000Y-32939000D01*
X141341000Y-33439000D02*
X143601000Y-33439000D01*
X141341000Y-34699000D02*
X149161000Y-34699000D01*
X143601000Y-29339000D02*
X145201000Y-29339000D01*
X143601000Y-30339000D02*
X143601000Y-29339000D01*
X143601000Y-32939000D02*
X143601000Y-33939000D01*
X143601000Y-33939000D02*
X145201000Y-33939000D01*
X145201000Y-29339000D02*
X145201000Y-30339000D01*
X145201000Y-30339000D02*
X143601000Y-30339000D01*
X145201000Y-32939000D02*
X143601000Y-32939000D01*
X145201000Y-33939000D02*
X145201000Y-32939000D01*
X145701000Y-31139000D02*
X145701000Y-32139000D01*
X145701000Y-32139000D02*
X141341000Y-32139000D01*
X147561000Y-29499000D02*
X147561000Y-28579000D01*
X147561000Y-29499000D02*
X149161000Y-29499000D01*
X147561000Y-29779000D02*
X147561000Y-29499000D01*
X147561000Y-33779000D02*
X147561000Y-33499000D01*
X147561000Y-33779000D02*
X147561000Y-34699000D01*
X148776000Y-33499000D02*
X147561000Y-33499000D01*
X149161000Y-28579000D02*
X141341000Y-28579000D01*
X149161000Y-29499000D02*
X149161000Y-28579000D01*
X149161000Y-33779000D02*
X147561000Y-33779000D01*
X149161000Y-34699000D02*
X149161000Y-33779000D01*
%TD*%
%LPC*%
D17*
%TO.C,SW10*%
X112360051Y-32372051D03*
X124860051Y-32372051D03*
X112360051Y-37372051D03*
X124860051Y-37372051D03*
%TD*%
%TO.C,SW4*%
X96104051Y-47724051D03*
X108604051Y-47724051D03*
X96104051Y-52724051D03*
X108604051Y-52724051D03*
%TD*%
%TO.C,SW16*%
X124860051Y-45024051D03*
X112360051Y-45024051D03*
X124860051Y-40024051D03*
X112360051Y-40024051D03*
%TD*%
D18*
%TO.C,SW11*%
X160274000Y-29718000D03*
X160274000Y-36518102D03*
%TD*%
D17*
%TO.C,SW3*%
X79848051Y-47724051D03*
X92348051Y-47724051D03*
X79848051Y-52724051D03*
X92348051Y-52724051D03*
%TD*%
%TO.C,SW7*%
X63592051Y-32372051D03*
X76092051Y-32372051D03*
X63592051Y-37372051D03*
X76092051Y-37372051D03*
%TD*%
%TO.C,SW6*%
X47390051Y-32372051D03*
X59890051Y-32372051D03*
X47390051Y-37372051D03*
X59890051Y-37372051D03*
%TD*%
%TO.C,SW2*%
X63592051Y-47724051D03*
X76092051Y-47724051D03*
X63592051Y-52724051D03*
X76092051Y-52724051D03*
%TD*%
%TO.C,SW14*%
X92348051Y-45024051D03*
X79848051Y-45024051D03*
X92348051Y-40024051D03*
X79848051Y-40024051D03*
%TD*%
%TO.C,SW12*%
X59890051Y-45024051D03*
X47390051Y-45024051D03*
X59890051Y-40024051D03*
X47390051Y-40024051D03*
%TD*%
%TO.C,SW13*%
X76092051Y-45024051D03*
X63592051Y-45024051D03*
X76092051Y-40024051D03*
X63592051Y-40024051D03*
%TD*%
%TO.C,SW1*%
X47390051Y-47724051D03*
X59890051Y-47724051D03*
X47390051Y-52724051D03*
X59890051Y-52724051D03*
%TD*%
%TO.C,SW5*%
X112360051Y-47724051D03*
X124860051Y-47724051D03*
X112360051Y-52724051D03*
X124860051Y-52724051D03*
%TD*%
%TO.C,SW9*%
X96104051Y-32372051D03*
X108604051Y-32372051D03*
X96104051Y-37372051D03*
X108604051Y-37372051D03*
%TD*%
%TO.C,SW8*%
X79848051Y-32372051D03*
X92348051Y-32372051D03*
X79848051Y-37372051D03*
X92348051Y-37372051D03*
%TD*%
%TO.C,SW15*%
X108604051Y-45024051D03*
X96104051Y-45024051D03*
X108604051Y-40024051D03*
X96104051Y-40024051D03*
%TD*%
D19*
%TO.C,J1*%
X147701000Y-32639000D03*
D20*
X147701000Y-30639000D03*
%TD*%
D21*
%TO.C,RZ1*%
X136814000Y-26162000D03*
X136814000Y-28702000D03*
X136814000Y-31242000D03*
X136814000Y-33782000D03*
X136814000Y-36322000D03*
D22*
X136814000Y-38862000D03*
D23*
X137404000Y-41462050D03*
D22*
X136814000Y-43942000D03*
X136814000Y-46482000D03*
D24*
X139954000Y-47292000D03*
D25*
X142494000Y-47292000D03*
X145034000Y-47292000D03*
X147574000Y-47292000D03*
X150114000Y-47292000D03*
D22*
X153254000Y-46482000D03*
X153254000Y-43942000D03*
D23*
X152699000Y-41402000D03*
D22*
X153254000Y-38862000D03*
X153254000Y-36322000D03*
X153254000Y-33782000D03*
X153254000Y-31242000D03*
X153254000Y-26162000D03*
X153254000Y-28702000D03*
%TD*%
D26*
%TO.C,U1*%
X157733990Y-56642010D03*
X155193990Y-56642010D03*
X152653990Y-56642010D03*
X150113990Y-56642010D03*
X147573990Y-56642010D03*
X145033990Y-56642010D03*
X142493990Y-56642010D03*
X139953990Y-56642010D03*
X137413990Y-56642010D03*
X134873990Y-56642010D03*
X132333990Y-56642010D03*
X129793990Y-56642010D03*
X157734000Y-41402000D03*
X155194000Y-41402000D03*
X152654000Y-41402000D03*
X150114000Y-41402000D03*
X147574000Y-41402000D03*
X145034000Y-41402000D03*
X142494000Y-41402000D03*
X139954000Y-41402000D03*
X137414000Y-41402000D03*
X134874000Y-41402000D03*
X132334000Y-41402000D03*
X129794000Y-41402000D03*
D27*
X132888790Y-53562010D03*
X132888790Y-51022010D03*
X132888790Y-48482010D03*
D26*
X160273990Y-56642010D03*
X160274000Y-41402000D03*
%TD*%
%LPD*%
M02*
