M48
; DRILL file {KiCad 8.0.6} date 2024-12-17T19:04:38+0100
; FORMAT={-:-/ absolute / inch / decimal}
; #@! TF.CreationDate,2024-12-17T19:04:38+01:00
; #@! TF.GenerationSoftware,Kicad,Pcbnew,8.0.6
; #@! TF.FileFunction,Plated,1,2,PTH
FMAT,2
INCH
; #@! TA.AperFunction,Plated,PTH,ViaDrill
T1C0.0118
; #@! TA.AperFunction,Plated,PTH,ComponentDrill
T2C0.0295
; #@! TA.AperFunction,Plated,PTH,ComponentDrill
T3C0.0300
; #@! TA.AperFunction,Plated,PTH,ComponentDrill
T4C0.0315
; #@! TA.AperFunction,Plated,PTH,ComponentDrill
T5C0.0350
; #@! TA.AperFunction,Plated,PTH,ComponentDrill
T6C0.0360
; #@! TA.AperFunction,Plated,PTH,ComponentDrill
T7C0.0360
; #@! TA.AperFunction,Plated,PTH,ComponentDrill
T8C0.0472
%
G90
G05
T1
X1.765Y-1.155
X1.765Y-1.54
X1.765Y-1.93
X1.97Y-2.235
X2.0Y-1.11
X2.43Y-2.34
X2.63Y-1.525
X2.87Y-1.525
X3.07Y-2.335
X3.26Y-1.52
X3.51Y-1.52
X3.71Y-2.34
X4.345Y-2.34
X4.94Y-1.13
X4.9863Y-1.13
X5.0325Y-1.13
X5.075Y-1.475
X5.0788Y-1.13
X5.125Y-1.13
X5.61Y-1.0
X5.655Y-1.165
X5.865Y-1.475
X5.865Y-1.72
X5.91Y-2.315
X5.95Y-1.28
X5.955Y-1.18
X6.01Y-2.315
X6.19Y-1.8
X6.19Y-1.94
X6.19Y-2.105
T2
X5.815Y-1.2063
X5.815Y-1.285
T3
X6.31Y-2.23
X6.31Y-1.63
T4
X5.41Y-1.03
X5.41Y-1.13
X5.41Y-1.23
X5.41Y-1.33
X5.41Y-1.43
X5.41Y-1.53
X5.41Y-1.63
X5.41Y-1.73
X5.41Y-1.83
X5.51Y-1.8383
X5.61Y-1.8383
X5.71Y-1.8383
X5.81Y-1.8383
X5.91Y-1.8383
X6.01Y-1.03
X6.01Y-1.13
X6.01Y-1.23
X6.01Y-1.33
X6.01Y-1.43
X6.01Y-1.53
X6.01Y-1.63
X6.01Y-1.73
X6.01Y-1.83
T5
X5.2318Y-1.9087
X5.2318Y-2.0087
X5.2318Y-2.1087
T6
X5.11Y-2.23
T7
X5.11Y-1.63
X5.21Y-2.23
X5.21Y-1.63
X5.31Y-2.23
X5.31Y-1.63
X5.41Y-2.23
X5.41Y-1.63
X5.51Y-2.23
X5.51Y-1.63
X5.61Y-2.23
X5.61Y-1.63
X5.71Y-2.23
X5.71Y-1.63
X5.81Y-2.23
X5.81Y-1.63
X5.91Y-2.23
X5.91Y-1.63
X6.01Y-2.23
X6.01Y-1.63
X6.11Y-2.23
X6.11Y-1.63
X6.21Y-2.23
X6.21Y-1.63
T8
X1.8658Y-1.2745
X1.8658Y-1.4713
X1.8658Y-1.5758
X1.8658Y-1.7726
X1.8658Y-1.8789
X1.8658Y-2.0758
X2.3579Y-1.2745
X2.3579Y-1.4713
X2.3579Y-1.5758
X2.3579Y-1.7726
X2.3579Y-1.8789
X2.3579Y-2.0758
X2.5036Y-1.2745
X2.5036Y-1.4713
X2.5036Y-1.5758
X2.5036Y-1.7726
X2.5036Y-1.8789
X2.5036Y-2.0758
X2.9958Y-1.2745
X2.9958Y-1.4713
X2.9958Y-1.5758
X2.9958Y-1.7726
X2.9958Y-1.8789
X2.9958Y-2.0758
X3.1436Y-1.2745
X3.1436Y-1.4713
X3.1436Y-1.5758
X3.1436Y-1.7726
X3.1436Y-1.8789
X3.1436Y-2.0758
X3.6358Y-1.2745
X3.6358Y-1.4713
X3.6358Y-1.5758
X3.6358Y-1.7726
X3.6358Y-1.8789
X3.6358Y-2.0758
X3.7836Y-1.2745
X3.7836Y-1.4713
X3.7836Y-1.5758
X3.7836Y-1.7726
X3.7836Y-1.8789
X3.7836Y-2.0758
X4.2758Y-1.2745
X4.2758Y-1.4713
X4.2758Y-1.5758
X4.2758Y-1.7726
X4.2758Y-1.8789
X4.2758Y-2.0758
X4.4236Y-1.2745
X4.4236Y-1.4713
X4.4236Y-1.5758
X4.4236Y-1.7726
X4.4236Y-1.8789
X4.4236Y-2.0758
X4.9158Y-1.2745
X4.9158Y-1.4713
X4.9158Y-1.5758
X4.9158Y-1.7726
X4.9158Y-1.8789
X4.9158Y-2.0758
M30
