%TF.GenerationSoftware,KiCad,Pcbnew,8.0.6*%
%TF.CreationDate,2024-12-17T19:04:38+01:00*%
%TF.ProjectId,MultiMacro,4d756c74-694d-4616-9372-6f2e6b696361,rev?*%
%TF.SameCoordinates,Original*%
%TF.FileFunction,Paste,Top*%
%TF.FilePolarity,Positive*%
%FSLAX46Y46*%
G04 Gerber Fmt 4.6, Leading zero omitted, Abs format (unit mm)*
G04 Created by KiCad (PCBNEW 8.0.6) date 2024-12-17 19:04:38*
%MOMM*%
%LPD*%
G01*
G04 APERTURE LIST*
%ADD10R,1.200000X0.900000*%
%ADD11R,0.900000X1.200000*%
%ADD12R,2.700000X1.200000*%
G04 APERTURE END LIST*
D10*
%TO.C,U14*%
X120079070Y-25411936D03*
X120079070Y-26912064D03*
X117079070Y-26912064D03*
X117079070Y-25411936D03*
%TD*%
%TO.C,U13*%
X100836570Y-25411936D03*
X100836570Y-26912064D03*
X103836570Y-26912064D03*
X103836570Y-25411936D03*
%TD*%
%TO.C,U12*%
X84594070Y-25411936D03*
X84594070Y-26912064D03*
X87594070Y-26912064D03*
X87594070Y-25411936D03*
%TD*%
%TO.C,U11*%
X68351570Y-25411936D03*
X68351570Y-26912064D03*
X71351570Y-26912064D03*
X71351570Y-25411936D03*
%TD*%
%TO.C,U10*%
X52109070Y-25411936D03*
X52109070Y-26912064D03*
X55109070Y-26912064D03*
X55109070Y-25411936D03*
%TD*%
D11*
%TO.C,U9*%
X43445936Y-34119949D03*
X44946064Y-34119949D03*
X44946064Y-31119949D03*
X43445936Y-31119949D03*
%TD*%
%TO.C,U8*%
X43445936Y-44025949D03*
X44946064Y-44025949D03*
X44946064Y-41025949D03*
X43445936Y-41025949D03*
%TD*%
%TO.C,U7*%
X43445936Y-53931949D03*
X44946064Y-53931949D03*
X44946064Y-50931949D03*
X43445936Y-50931949D03*
%TD*%
D10*
%TO.C,U6*%
X55171033Y-59659013D03*
X55171033Y-58158885D03*
X52171033Y-58158885D03*
X52171033Y-59659013D03*
%TD*%
%TO.C,U5*%
X71413533Y-59659013D03*
X71413533Y-58158885D03*
X68413533Y-58158885D03*
X68413533Y-59659013D03*
%TD*%
%TO.C,U4*%
X87656033Y-59659013D03*
X87656033Y-58158885D03*
X84656033Y-58158885D03*
X84656033Y-59659013D03*
%TD*%
%TO.C,U3*%
X103898533Y-59659013D03*
X103898533Y-58158885D03*
X100898533Y-58158885D03*
X100898533Y-59659013D03*
%TD*%
%TO.C,U2*%
X120141033Y-59659013D03*
X120141033Y-58158885D03*
X117141033Y-58158885D03*
X117141033Y-59659013D03*
%TD*%
D12*
%TO.C,SW11*%
X156867980Y-30618178D03*
X156867980Y-33118051D03*
X156867980Y-35617924D03*
%TD*%
M02*
